180528-Arima Madurai-Bold.ufo
<glyph name="quotesingle" format="1">
  <advance width="203"/>
  <unicode hex="0027"/>
  <outline>
    <contour>
      <point x="70" y="532" type="line"/>
      <point x="40" y="725" type="line"/>
      <point x="78" y="737"/>
      <point x="129" y="737"/>
      <point x="163" y="725" type="curve"/>
      <point x="127" y="532" type="line"/>
    </contour>
  </outline>
</glyph>
<glyph name="six" format="1">
  <advance width="594"/>
  <unicode hex="0036"/>
  <outline>
    <contour>
      <point x="303" y="-12" type="curve"/>
      <point x="476" y="-12"/>
      <point x="555" y="86"/>
      <point x="555" y="217" type="curve"/>
      <point x="555" y="361"/>
      <point x="457" y="431"/>
      <point x="347" y="431" type="curve"/>
      <point x="217" y="431"/>
      <point x="171" y="331"/>
      <point x="149" y="255" type="curve"/>
      <point x="191" y="219" type="line"/>
      <point x="203" y="325"/>
      <point x="256" y="370"/>
      <point x="317" y="370" type="curve"/>
      <point x="385" y="370"/>
      <point x="405" y="315"/>
      <point x="405" y="223" type="curve"/>
      <point x="405" y="126"/>
      <point x="386" y="35"/>
      <point x="310" y="35" type="curve"/>
      <point x="220" y="35"/>
      <point x="207" y="166"/>
      <point x="207" y="313" type="curve"/>
      <point x="207" y="502"/>
      <point x="222" y="655"/>
      <point x="338" y="655" type="curve"/>
      <point x="380" y="655"/>
      <point x="420" y="629"/>
      <point x="465" y="550" type="curve"/>
      <point x="477" y="554"/>
      <point x="514" y="589"/>
      <point x="514" y="625" type="curve"/>
      <point x="514" y="687"/>
      <point x="423" y="711"/>
      <point x="346" y="711" type="curve"/>
      <point x="137" y="711"/>
      <point x="54" y="571"/>
      <point x="54" y="320" type="curve"/>
      <point x="54" y="47"/>
      <point x="168" y="-12"/>
    </contour>
  </outline>
</glyph>
<glyph name="A" format="1">
  <advance width="628"/>
  <unicode hex="0041"/>
  <outline>
    <contour>
      <point x="343" y="713" type="curve"/>
      <point x="304" y="713"/>
      <point x="265" y="707"/>
      <point x="225" y="694" type="curve"/>
      <point x="31" y="115" type="line" smooth="yes"/>
      <point x="22" y="87"/>
      <point x="17" y="61"/>
      <point x="17" y="44" type="curve"/>
      <point x="17" y="3"/>
      <point x="41" y="-14"/>
      <point x="95" y="-14" type="curve"/>
      <point x="130" y="-14"/>
      <point x="151" y="-7"/>
      <point x="171" y="1" type="curve"/>
      <point x="164" y="8"/>
      <point x="160" y="18"/>
      <point x="160" y="34" type="curve"/>
      <point x="160" y="49"/>
      <point x="163" y="64"/>
      <point x="167" y="80" type="curve"/>
      <point x="311" y="657" type="line"/>
      <point x="297" y="660" type="line"/>
      <point x="459" y="40" type="line" smooth="yes"/>
      <point x="467" y="4"/>
      <point x="500" y="-14"/>
      <point x="543" y="-14" type="curve"/>
      <point x="589" y="-14"/>
      <point x="613" y="3"/>
      <point x="625" y="17" type="curve"/>
      <point x="608" y="35"/>
      <point x="597" y="65"/>
      <point x="592" y="82" type="curve"/>
      <point x="418" y="668" type="line" smooth="yes"/>
      <point x="408" y="704"/>
      <point x="376" y="713"/>
    </contour>
    <contour>
      <point x="493" y="277" type="line"/>
      <point x="161" y="277" type="line"/>
      <point x="161" y="203" type="line"/>
      <point x="493" y="203" type="line"/>
    </contour>
    <contour>
      <point x="315" y="0" type="move" name="bottom"/>
    </contour>
    <contour>
      <point x="551" y="-13" type="move" name="ogonek"/>
    </contour>
    <contour>
      <point x="320" y="698" type="move" name="top"/>
    </contour>
  </outline>
</glyph>
<glyph name="C" format="1">
  <advance width="619"/>
  <unicode hex="0043"/>
  <outline>
    <contour>
      <point x="330" y="-14" type="curve"/>
      <point x="453" y="-14"/>
      <point x="584" y="33"/>
      <point x="584" y="129" type="curve"/>
      <point x="584" y="184"/>
      <point x="522" y="207"/>
      <point x="467" y="199" type="curve"/>
      <point x="453" y="86"/>
      <point x="408" y="33"/>
      <point x="338" y="33" type="curve"/>
      <point x="243" y="33"/>
      <point x="201" y="138"/>
      <point x="201" y="349" type="curve"/>
      <point x="201" y="560"/>
      <point x="244" y="665"/>
      <point x="342" y="665" type="curve"/>
      <point x="407" y="665"/>
      <point x="445" y="617"/>
      <point x="455" y="511" type="curve"/>
      <point x="529" y="510"/>
      <point x="567" y="551"/>
      <point x="567" y="591" type="curve"/>
      <point x="567" y="670"/>
      <point x="448" y="712"/>
      <point x="340" y="712" type="curve"/>
      <point x="156" y="712"/>
      <point x="47" y="580"/>
      <point x="47" y="349" type="curve"/>
      <point x="47" y="118"/>
      <point x="152" y="-14"/>
    </contour>
    <contour>
      <point x="314" y="0" type="move" name="bottom"/>
    </contour>
    <contour>
      <point x="337" y="698" type="move" name="top"/>
    </contour>
  </outline>
</glyph>
<glyph name="e" format="1">
  <advance width="527"/>
  <unicode hex="0065"/>
  <outline>
    <contour>
      <point x="289" y="-14" type="curve"/>
      <point x="384" y="-14"/>
      <point x="454" y="23"/>
      <point x="480" y="88" type="curve"/>
      <point x="495" y="125"/>
      <point x="485" y="140"/>
      <point x="471" y="146" type="curve"/>
      <point x="449" y="104"/>
      <point x="402" y="71"/>
      <point x="328" y="71" type="curve"/>
      <point x="234" y="71"/>
      <point x="181" y="123"/>
      <point x="181" y="278" type="curve"/>
      <point x="181" y="407"/>
      <point x="219" y="485"/>
      <point x="285" y="485" type="curve"/>
      <point x="317" y="485"/>
      <point x="348" y="469"/>
      <point x="348" y="402" type="curve"/>
      <point x="348" y="284"/>
      <point x="259" y="275"/>
      <point x="200" y="276" type="curve"/>
      <point x="156" y="277"/>
      <point x="129" y="282"/>
      <point x="101" y="285" type="curve"/>
      <point x="97" y="244" type="line"/>
      <point x="167" y="227"/>
      <point x="227" y="226"/>
      <point x="281" y="226" type="curve"/>
      <point x="408" y="226"/>
      <point x="496" y="280"/>
      <point x="496" y="379" type="curve"/>
      <point x="496" y="480"/>
      <point x="405" y="531"/>
      <point x="290" y="531" type="curve"/>
      <point x="124" y="531"/>
      <point x="34" y="428"/>
      <point x="34" y="260" type="curve"/>
      <point x="34" y="85"/>
      <point x="134" y="-14"/>
    </contour>
    <contour>
      <point x="268" y="0" type="move" name="bottom"/>
    </contour>
    <contour>
      <point x="365" y="3" type="move" name="ogonek"/>
    </contour>
    <contour>
      <point x="272" y="516" type="move" name="top"/>
    </contour>
  </outline>
</glyph>
<glyph name="r" format="1">
  <advance width="473"/>
  <unicode hex="0072"/>
  <outline>
    <contour>
      <point x="160" y="-11" type="curve"/>
      <point x="199" y="-10"/>
      <point x="227" y="8"/>
      <point x="239" y="19" type="curve"/>
      <point x="216" y="73"/>
      <point x="216" y="109"/>
      <point x="216" y="235" type="curve"/>
      <point x="216" y="391"/>
      <point x="244" y="468"/>
      <point x="291" y="468" type="curve"/>
      <point x="319" y="468"/>
      <point x="332" y="449"/>
      <point x="332" y="416" type="curve"/>
      <point x="332" y="389"/>
      <point x="328" y="373"/>
      <point x="314" y="347" type="curve"/>
      <point x="326" y="333"/>
      <point x="349" y="325"/>
      <point x="377" y="325" type="curve"/>
      <point x="425" y="326"/>
      <point x="461" y="364"/>
      <point x="461" y="416" type="curve"/>
      <point x="461" y="488"/>
      <point x="407" y="531"/>
      <point x="331" y="531" type="curve"/>
      <point x="253" y="531"/>
      <point x="207" y="481"/>
      <point x="188" y="376" type="curve"/>
      <point x="200" y="366" type="line"/>
      <point x="200" y="392" type="line" smooth="yes"/>
      <point x="203" y="486"/>
      <point x="161" y="531"/>
      <point x="97" y="531" type="curve"/>
      <point x="44" y="531"/>
      <point x="15" y="501"/>
      <point x="15" y="460" type="curve"/>
      <point x="15" y="444"/>
      <point x="19" y="431"/>
      <point x="28" y="417" type="curve"/>
      <point x="34" y="427"/>
      <point x="47" y="429"/>
      <point x="54" y="429" type="curve"/>
      <point x="71" y="429"/>
      <point x="80" y="414"/>
      <point x="80" y="376" type="curve"/>
      <point x="80" y="67" type="line" smooth="yes"/>
      <point x="80" y="17"/>
      <point x="118" y="-11"/>
    </contour>
    <contour>
      <point x="159" y="0" type="move" name="bottom"/>
    </contour>
    <contour>
      <point x="217" y="516" type="move" name="top"/>
    </contour>
  </outline>
</glyph>
<glyph name="asciitilde" format="1">
  <advance width="502"/>
  <unicode hex="007E"/>
  <outline>
    <contour>
      <point x="442" y="386" type="curve"/>
      <point x="433" y="393"/>
      <point x="424" y="395"/>
      <point x="409" y="395" type="curve"/>
      <point x="397" y="370"/>
      <point x="386" y="347"/>
      <point x="346" y="347" type="curve"/>
      <point x="283" y="347"/>
      <point x="239" y="408"/>
      <point x="174" y="408" type="curve"/>
      <point x="122" y="408"/>
      <point x="66" y="381"/>
      <point x="59" y="295" type="curve"/>
      <point x="68" y="289"/>
      <point x="85" y="284"/>
      <point x="94" y="286" type="curve"/>
      <point x="105" y="308"/>
      <point x="124" y="333"/>
      <point x="167" y="333" type="curve"/>
      <point x="226" y="333"/>
      <point x="272" y="272"/>
      <point x="335" y="272" type="curve"/>
      <point x="396" y="272"/>
      <point x="432" y="320"/>
    </contour>
  </outline>
</glyph>
<glyph name="sterling" format="1">
  <advance width="511"/>
  <unicode hex="00A3"/>
  <outline>
    <contour>
      <point x="247" y="281" type="curve"/>
      <point x="247" y="367"/>
      <point x="229" y="427"/>
      <point x="229" y="518" type="curve"/>
      <point x="229" y="634"/>
      <point x="267" y="656"/>
      <point x="307" y="656" type="curve"/>
      <point x="349" y="656"/>
      <point x="379" y="618"/>
      <point x="379" y="543" type="curve"/>
      <point x="386" y="541"/>
      <point x="395" y="540"/>
      <point x="406" y="540" type="curve"/>
      <point x="437" y="540"/>
      <point x="473" y="552"/>
      <point x="473" y="610" type="curve"/>
      <point x="473" y="656"/>
      <point x="422" y="700"/>
      <point x="321" y="700" type="curve"/>
      <point x="223" y="700"/>
      <point x="93" y="664"/>
      <point x="93" y="463" type="curve"/>
      <point x="93" y="394"/>
      <point x="113" y="309"/>
      <point x="113" y="234" type="curve"/>
      <point x="113" y="166"/>
      <point x="93" y="123"/>
      <point x="32" y="38" type="curve"/>
      <point x="32" y="0" type="line"/>
      <point x="438" y="0" type="line"/>
      <point x="472" y="0"/>
      <point x="487" y="39"/>
      <point x="487" y="77" type="curve"/>
      <point x="487" y="106"/>
      <point x="483" y="135"/>
      <point x="473" y="153" type="curve"/>
      <point x="357" y="83"/>
      <point x="239" y="50"/>
      <point x="102" y="50" type="curve"/>
      <point x="204" y="83"/>
      <point x="247" y="160"/>
    </contour>
    <contour>
      <point x="24" y="305" type="curve"/>
      <point x="23" y="273" type="line"/>
      <point x="36" y="274"/>
      <point x="70" y="276"/>
      <point x="83" y="276" type="curve"/>
      <point x="349" y="276" type="line" smooth="yes"/>
      <point x="368" y="276"/>
      <point x="384" y="287"/>
      <point x="385" y="309" type="curve"/>
      <point x="386" y="341" type="line"/>
      <point x="376" y="340"/>
      <point x="264" y="338"/>
      <point x="254" y="338" type="curve"/>
      <point x="60" y="338" type="line" smooth="yes"/>
      <point x="41" y="338"/>
      <point x="25" y="327"/>
    </contour>
  </outline>
</glyph>
<glyph name="brokenbar" format="1">
  <advance width="361"/>
  <unicode hex="00A6"/>
  <outline>
    <contour>
      <point x="116" y="233" type="line"/>
      <point x="116" y="-137" type="line"/>
      <point x="244" y="-137" type="line"/>
      <point x="244" y="233" type="line"/>
    </contour>
    <contour>
      <point x="116" y="730" type="line"/>
      <point x="116" y="360" type="line"/>
      <point x="244" y="360" type="line"/>
      <point x="244" y="730" type="line"/>
    </contour>
  </outline>
</glyph>
<glyph name="degree" format="1">
  <advance width="378"/>
  <unicode hex="00B0"/>
  <outline>
    <contour>
      <point x="190" y="450" type="curve"/>
      <point x="265" y="450"/>
      <point x="326" y="509"/>
      <point x="326" y="582" type="curve"/>
      <point x="326" y="653"/>
      <point x="265" y="712"/>
      <point x="190" y="712" type="curve"/>
      <point x="114" y="712"/>
      <point x="53" y="653"/>
      <point x="53" y="582" type="curve"/>
      <point x="53" y="509"/>
      <point x="114" y="450"/>
    </contour>
    <contour>
      <point x="189" y="514" type="curve"/>
      <point x="155" y="514"/>
      <point x="127" y="544"/>
      <point x="127" y="582" type="curve"/>
      <point x="127" y="619"/>
      <point x="155" y="648"/>
      <point x="189" y="648" type="curve"/>
      <point x="223" y="648"/>
      <point x="252" y="619"/>
      <point x="252" y="582" type="curve"/>
      <point x="252" y="544"/>
      <point x="223" y="514"/>
    </contour>
  </outline>
</glyph>
<glyph name="periodcentered" format="1">
  <advance width="315"/>
  <unicode hex="00B7"/>
  <outline>
    <contour>
      <point x="158" y="221" type="curve"/>
      <point x="201" y="221"/>
      <point x="235" y="255"/>
      <point x="235" y="299" type="curve"/>
      <point x="235" y="342"/>
      <point x="201" y="376"/>
      <point x="158" y="376" type="curve"/>
      <point x="114" y="376"/>
      <point x="80" y="342"/>
      <point x="80" y="299" type="curve"/>
      <point x="80" y="255"/>
      <point x="114" y="221"/>
    </contour>
  </outline>
</glyph>
<glyph name="ordmasculine" format="1">
  <advance width="405"/>
  <unicode hex="00BA"/>
  <outline>
    <contour>
      <point x="202" y="360" type="curve"/>
      <point x="314" y="360"/>
      <point x="380" y="427"/>
      <point x="380" y="540" type="curve"/>
      <point x="380" y="653"/>
      <point x="314" y="720"/>
      <point x="202" y="720" type="curve"/>
      <point x="89" y="720"/>
      <point x="24" y="653"/>
      <point x="24" y="540" type="curve"/>
      <point x="24" y="427"/>
      <point x="89" y="360"/>
    </contour>
    <contour>
      <point x="203" y="394" type="curve"/>
      <point x="155" y="394"/>
      <point x="136" y="442"/>
      <point x="136" y="540" type="curve"/>
      <point x="136" y="638"/>
      <point x="155" y="685"/>
      <point x="203" y="685" type="curve"/>
      <point x="248" y="685"/>
      <point x="269" y="638"/>
      <point x="269" y="540" type="curve"/>
      <point x="269" y="442"/>
      <point x="248" y="394"/>
    </contour>
  </outline>
</glyph>
<glyph name="Eth" format="1">
  <advance width="658"/>
  <unicode hex="00D0"/>
  <outline>
    <contour>
      <point x="341" y="375" type="curve"/>
      <point x="21" y="375" type="line"/>
      <point x="15" y="358"/>
      <point x="15" y="342"/>
      <point x="21" y="324" type="curve"/>
      <point x="341" y="324" type="line"/>
      <point x="346" y="342"/>
      <point x="346" y="358"/>
    </contour>
    <component base="D"/>
  </outline>
</glyph>
<glyph name="Oslash" format="1">
  <advance width="662"/>
  <unicode hex="00D8"/>
  <outline>
    <contour>
      <point x="515" y="731" type="curve"/>
      <point x="82" y="10" type="line"/>
      <point x="92" y="-7"/>
      <point x="106" y="-15"/>
      <point x="125" y="-15" type="curve"/>
      <point x="558" y="706" type="line"/>
      <point x="549" y="723"/>
      <point x="535" y="732"/>
    </contour>
    <component base="O"/>
    <contour>
      <point x="331" y="0" type="move" name="bottom"/>
    </contour>
    <contour>
      <point x="331" y="698" type="move" name="top"/>
    </contour>
  </outline>
</glyph>
<glyph name="thorn" format="1">
  <advance width="570"/>
  <unicode hex="00FE"/>
  <outline>
    <contour>
      <point x="144" y="-216" type="curve"/>
      <point x="183" y="-216"/>
      <point x="211" y="-197"/>
      <point x="223" y="-186" type="curve"/>
      <point x="204" y="-120"/>
      <point x="201" y="-41"/>
      <point x="201" y="4" type="curve"/>
      <point x="201" y="44" type="line"/>
      <point x="220" y="6"/>
      <point x="262" y="-14"/>
      <point x="320" y="-14" type="curve"/>
      <point x="452" y="-14"/>
      <point x="536" y="86"/>
      <point x="536" y="277" type="curve"/>
      <point x="536" y="416"/>
      <point x="489" y="531"/>
      <point x="356" y="531" type="curve"/>
      <point x="254" y="531"/>
      <point x="190" y="460"/>
      <point x="172" y="307" type="curve"/>
      <point x="196" y="297" type="line"/>
      <point x="196" y="458" type="line" smooth="yes"/>
      <point x="197" y="558"/>
      <point x="200" y="637"/>
      <point x="220" y="703" type="curve"/>
      <point x="207" y="713"/>
      <point x="169" y="736"/>
      <point x="126" y="732" type="curve"/>
      <point x="89" y="729"/>
      <point x="65" y="707"/>
      <point x="65" y="662" type="curve"/>
      <point x="65" y="-146" type="line" smooth="yes"/>
      <point x="65" y="-190"/>
      <point x="99" y="-216"/>
    </contour>
    <contour>
      <point x="284" y="56" type="curve"/>
      <point x="224" y="56"/>
      <point x="202" y="104"/>
      <point x="202" y="207" type="curve"/>
      <point x="202" y="325"/>
      <point x="235" y="458"/>
      <point x="314" y="458" type="curve"/>
      <point x="374" y="458"/>
      <point x="389" y="390"/>
      <point x="389" y="278" type="curve"/>
      <point x="389" y="137"/>
      <point x="360" y="56"/>
    </contour>
    <contour>
      <point x="284" y="0" type="move" name="bottom"/>
    </contour>
    <contour>
      <point x="284" y="516" type="move" name="top"/>
    </contour>
  </outline>
</glyph>
<glyph name="Hbar" format="1">
  <advance width="701"/>
  <unicode hex="0126"/>
  <outline>
    <contour>
      <point x="661" y="566" type="curve"/>
      <point x="32" y="566" type="line"/>
      <point x="26" y="549"/>
      <point x="26" y="532"/>
      <point x="32" y="515" type="curve"/>
      <point x="661" y="515" type="line"/>
      <point x="667" y="532"/>
      <point x="667" y="549"/>
    </contour>
    <component base="H"/>
  </outline>
</glyph>
<glyph name="hbar" format="1">
  <advance width="573"/>
  <unicode hex="0127"/>
  <outline>
    <contour>
      <point x="309" y="616" type="curve"/>
      <point x="-3" y="616" type="line"/>
      <point x="-7" y="599"/>
      <point x="-7" y="583"/>
      <point x="-3" y="566" type="curve"/>
      <point x="309" y="566" type="line"/>
      <point x="314" y="583"/>
      <point x="314" y="599"/>
    </contour>
    <component base="h"/>
  </outline>
</glyph>
<glyph name="Lcaron" format="1">
  <advance width="508"/>
  <unicode hex="013D"/>
  <outline>
    <contour>
      <point x="288" y="750" type="curve"/>
      <point x="326" y="763"/>
      <point x="377" y="762"/>
      <point x="411" y="750" type="curve"/>
      <point x="411" y="683"/>
      <point x="389" y="612"/>
      <point x="364" y="562" type="curve"/>
      <point x="306" y="562" type="line"/>
      <point x="312" y="614"/>
      <point x="310" y="692"/>
    </contour>
    <component base="L"/>
  </outline>
</glyph>
<glyph name="brevebelowcomb" format="1">
  <advance width="600"/>
  <unicode hex="032E"/>
  <outline>
    <contour>
      <point x="303" y="-145" type="curve"/>
      <point x="252" y="-145"/>
      <point x="207" y="-123"/>
      <point x="195" y="-68" type="curve"/>
      <point x="154" y="-76" type="line"/>
      <point x="162" y="-145"/>
      <point x="203" y="-216"/>
      <point x="299" y="-216" type="curve"/>
      <point x="390" y="-216"/>
      <point x="432" y="-150"/>
      <point x="446" y="-75" type="curve"/>
      <point x="410" y="-69" type="line"/>
      <point x="393" y="-120"/>
      <point x="354" y="-145"/>
    </contour>
    <contour>
      <point x="292" y="0" type="move" name="_bottom"/>
    </contour>
    <contour>
      <point x="296" y="-6" type="move" name="bottom"/>
    </contour>
  </outline>
</glyph>
<glyph name="macronbelowcomb" format="1">
  <advance width="600"/>
  <unicode hex="0331"/>
  <outline>
    <contour>
      <point x="442" y="-60" type="curve"/>
      <point x="158" y="-60" type="line"/>
      <point x="152" y="-77"/>
      <point x="152" y="-95"/>
      <point x="158" y="-112" type="curve"/>
      <point x="442" y="-112" type="line"/>
      <point x="448" y="-95"/>
      <point x="448" y="-77"/>
    </contour>
    <contour>
      <point x="295" y="0" type="move" name="_bottom"/>
    </contour>
    <contour>
      <point x="297" y="0" type="move" name="bottom"/>
    </contour>
  </outline>
</glyph>
<glyph name="iota" format="1">
  <advance width="304"/>
  <unicode hex="03B9"/>
  <outline>
    <contour>
      <point x="209" y="140" type="curve"/>
      <point x="208" y="461" type="line" smooth="yes"/>
      <point x="208" y="506"/>
      <point x="175" y="532"/>
      <point x="130" y="532" type="curve"/>
      <point x="92" y="532"/>
      <point x="65" y="512"/>
      <point x="53" y="502" type="curve"/>
      <point x="70" y="457"/>
      <point x="73" y="409"/>
      <point x="73" y="371" type="curve"/>
      <point x="73" y="145" type="line" smooth="yes"/>
      <point x="73" y="59"/>
      <point x="101" y="-14"/>
      <point x="187" y="-14" type="curve"/>
      <point x="243" y="-14"/>
      <point x="282" y="15"/>
      <point x="282" y="56" type="curve"/>
      <point x="282" y="68"/>
      <point x="278" y="85"/>
      <point x="269" y="99" type="curve"/>
      <point x="263" y="90"/>
      <point x="250" y="88"/>
      <point x="243" y="88" type="curve"/>
      <point x="221" y="88"/>
      <point x="209" y="105"/>
    </contour>
  </outline>
</glyph>
<glyph name="rho" format="1">
  <advance width="560"/>
  <unicode hex="03C1"/>
  <outline>
    <contour>
      <point x="177" y="261" type="curve"/>
      <point x="177" y="55" type="line"/>
      <point x="195" y="44"/>
      <point x="227" y="40"/>
      <point x="250" y="40" type="curve"/>
      <point x="351" y="40"/>
      <point x="378" y="149"/>
      <point x="379" y="263" type="curve"/>
      <point x="379" y="451"/>
      <point x="329" y="489"/>
      <point x="281" y="489" type="curve"/>
      <point x="227" y="489"/>
      <point x="177" y="441"/>
    </contour>
    <contour>
      <point x="42" y="-147" type="curve"/>
      <point x="42" y="261" type="line" smooth="yes"/>
      <point x="42" y="477"/>
      <point x="185" y="535"/>
      <point x="282" y="535" type="curve"/>
      <point x="378" y="535"/>
      <point x="525" y="490"/>
      <point x="525" y="264" type="curve"/>
      <point x="525" y="100"/>
      <point x="453" y="-14"/>
      <point x="262" y="-14" type="curve"/>
      <point x="191" y="-14"/>
      <point x="108" y="11"/>
      <point x="61" y="52" type="curve"/>
      <point x="180" y="36" type="line"/>
      <point x="178" y="-70" type="line" smooth="yes"/>
      <point x="178" y="-104"/>
      <point x="178" y="-141"/>
      <point x="201" y="-195" type="curve"/>
      <point x="189" y="-206"/>
      <point x="160" y="-225"/>
      <point x="123" y="-225" type="curve"/>
      <point x="76" y="-225"/>
      <point x="42" y="-195"/>
    </contour>
  </outline>
</glyph>
<glyph name="anusvara-tamil" format="1">
  <advance width="0"/>
  <unicode hex="0B82"/>
  <outline>
    <contour>
      <point x="0" y="643" type="curve"/>
      <point x="70" y="643"/>
      <point x="118" y="687"/>
      <point x="118" y="754" type="curve"/>
      <point x="118" y="821"/>
      <point x="70" y="865"/>
      <point x="0" y="865" type="curve"/>
      <point x="-70" y="865"/>
      <point x="-118" y="821"/>
      <point x="-118" y="754" type="curve"/>
      <point x="-118" y="687"/>
      <point x="-70" y="643"/>
    </contour>
    <contour>
      <point x="0" y="687" type="curve"/>
      <point x="-37" y="687"/>
      <point x="-67" y="713"/>
      <point x="-67" y="753" type="curve"/>
      <point x="-67" y="797"/>
      <point x="-42" y="821"/>
      <point x="0" y="821" type="curve"/>
      <point x="40" y="821"/>
      <point x="67" y="794"/>
      <point x="67" y="753" type="curve"/>
      <point x="67" y="713"/>
      <point x="40" y="687"/>
    </contour>
    <contour>
      <point x="1" y="548" type="move" name="_top"/>
    </contour>
  </outline>
</glyph>
<glyph name="a-tamil" format="1">
  <advance width="1133"/>
  <unicode hex="0B85"/>
  <outline>
    <contour>
      <point x="314" y="-83" type="curve"/>
      <point x="574" y="-83"/>
      <point x="796" y="35"/>
      <point x="796" y="305" type="curve"/>
      <point x="796" y="514"/>
      <point x="663" y="563"/>
      <point x="549" y="563" type="curve"/>
      <point x="390" y="563"/>
      <point x="314" y="469"/>
      <point x="314" y="362" type="curve"/>
      <point x="314" y="299"/>
      <point x="341" y="236"/>
      <point x="433" y="236" type="curve"/>
      <point x="510" y="236"/>
      <point x="559" y="281"/>
      <point x="559" y="351" type="curve"/>
      <point x="559" y="414"/>
      <point x="518" y="458"/>
      <point x="444" y="458" type="curve"/>
      <point x="428" y="458"/>
      <point x="411" y="456"/>
      <point x="392" y="447" type="curve"/>
      <point x="421" y="484"/>
      <point x="464" y="495"/>
      <point x="499" y="495" type="curve"/>
      <point x="579" y="495"/>
      <point x="645" y="434"/>
      <point x="645" y="290" type="curve"/>
      <point x="645" y="59"/>
      <point x="477" y="-13"/>
      <point x="291" y="-13" type="curve"/>
      <point x="172" y="-13"/>
      <point x="108" y="18"/>
      <point x="108" y="70" type="curve"/>
      <point x="108" y="123"/>
      <point x="175" y="141"/>
      <point x="300" y="141" type="curve"/>
      <point x="949" y="141" type="line"/>
      <point x="940" y="189" type="line"/>
      <point x="263" y="189" type="line" smooth="yes"/>
      <point x="113" y="189"/>
      <point x="30" y="153"/>
      <point x="30" y="70" type="curve"/>
      <point x="30" y="-19"/>
      <point x="125" y="-83"/>
    </contour>
    <contour>
      <point x="411" y="278" type="curve"/>
      <point x="373" y="278"/>
      <point x="362" y="312"/>
      <point x="362" y="346" type="curve"/>
      <point x="362" y="386"/>
      <point x="378" y="415"/>
      <point x="412" y="415" type="curve"/>
      <point x="451" y="415"/>
      <point x="461" y="377"/>
      <point x="461" y="347" type="curve"/>
      <point x="461" y="322"/>
      <point x="454" y="278"/>
    </contour>
    <contour>
      <point x="982" y="-112" type="curve"/>
      <point x="1013" y="-112"/>
      <point x="1039" y="-104"/>
      <point x="1063" y="-87" type="curve"/>
      <point x="1044" y="-84"/>
      <point x="1048" y="-69"/>
      <point x="1048" y="180" type="curve"/>
      <point x="1048" y="482" type="line" smooth="yes"/>
      <point x="1048" y="531"/>
      <point x="1019" y="557"/>
      <point x="980" y="562" type="curve"/>
      <point x="931" y="568"/>
      <point x="891" y="536"/>
      <point x="882" y="528" type="curve"/>
      <point x="900" y="463"/>
      <point x="902" y="378"/>
      <point x="902" y="366" type="curve"/>
      <point x="902" y="-4" type="line" smooth="yes"/>
      <point x="902" y="-93"/>
      <point x="933" y="-112"/>
    </contour>
  </outline>
</glyph>
<glyph name="aa-tamil" format="1">
  <advance width="1373"/>
  <unicode hex="0B86"/>
  <outline>
    <contour>
      <point x="554" y="-433" type="curve"/>
      <point x="871" y="-433"/>
      <point x="1331" y="-294"/>
      <point x="1331" y="37" type="curve"/>
      <point x="1331" y="174"/>
      <point x="1277" y="232"/>
      <point x="1197" y="232" type="curve"/>
      <point x="1125" y="232"/>
      <point x="1075" y="196"/>
      <point x="1044" y="148" type="curve"/>
      <point x="1044" y="482" type="line" smooth="yes"/>
      <point x="1044" y="531"/>
      <point x="1015" y="557"/>
      <point x="976" y="562" type="curve"/>
      <point x="927" y="568"/>
      <point x="887" y="536"/>
      <point x="878" y="528" type="curve"/>
      <point x="896" y="463"/>
      <point x="898" y="372"/>
      <point x="898" y="366" type="curve"/>
      <point x="898" y="24" type="line" smooth="yes"/>
      <point x="898" y="-65"/>
      <point x="929" y="-84"/>
      <point x="978" y="-84" type="curve"/>
      <point x="1009" y="-84"/>
      <point x="1035" y="-76"/>
      <point x="1059" y="-59" type="curve"/>
      <point x="1051" y="-58"/>
      <point x="1047" y="-54"/>
      <point x="1045" y="-36" type="curve"/>
      <point x="1048" y="72"/>
      <point x="1079" y="137"/>
      <point x="1137" y="137" type="curve"/>
      <point x="1164" y="137"/>
      <point x="1181" y="104"/>
      <point x="1181" y="26" type="curve"/>
      <point x="1181" y="-277"/>
      <point x="795" y="-373"/>
      <point x="555" y="-373" type="curve"/>
      <point x="372" y="-373"/>
      <point x="316" y="-321"/>
      <point x="316" y="-270" type="curve"/>
      <point x="316" y="-204"/>
      <point x="404" y="-181"/>
      <point x="483" y="-181" type="curve"/>
      <point x="587" y="-181"/>
      <point x="625" y="-226"/>
      <point x="639" y="-258" type="curve"/>
      <point x="683" y="-244"/>
      <point x="689" y="-221"/>
      <point x="689" y="-198" type="curve"/>
      <point x="689" y="-157"/>
      <point x="622" y="-113"/>
      <point x="489" y="-113" type="curve"/>
      <point x="381" y="-113"/>
      <point x="202" y="-140"/>
      <point x="202" y="-264" type="curve"/>
      <point x="202" y="-360"/>
      <point x="310" y="-433"/>
    </contour>
    <contour>
      <point x="314" y="-83" type="curve"/>
      <point x="573" y="-83"/>
      <point x="795" y="35"/>
      <point x="795" y="305" type="curve"/>
      <point x="795" y="514"/>
      <point x="663" y="563"/>
      <point x="549" y="563" type="curve"/>
      <point x="390" y="563"/>
      <point x="314" y="469"/>
      <point x="314" y="362" type="curve"/>
      <point x="314" y="299"/>
      <point x="341" y="236"/>
      <point x="433" y="236" type="curve"/>
      <point x="510" y="236"/>
      <point x="559" y="281"/>
      <point x="559" y="351" type="curve"/>
      <point x="559" y="414"/>
      <point x="518" y="458"/>
      <point x="444" y="458" type="curve"/>
      <point x="428" y="458"/>
      <point x="411" y="456"/>
      <point x="392" y="447" type="curve"/>
      <point x="421" y="484"/>
      <point x="464" y="495"/>
      <point x="499" y="495" type="curve"/>
      <point x="579" y="495"/>
      <point x="645" y="434"/>
      <point x="645" y="290" type="curve"/>
      <point x="645" y="59"/>
      <point x="477" y="-13"/>
      <point x="291" y="-13" type="curve"/>
      <point x="172" y="-13"/>
      <point x="108" y="18"/>
      <point x="108" y="70" type="curve"/>
      <point x="108" y="123"/>
      <point x="175" y="141"/>
      <point x="300" y="141" type="curve"/>
      <point x="949" y="141" type="line"/>
      <point x="940" y="189" type="line"/>
      <point x="263" y="189" type="line" smooth="yes"/>
      <point x="113" y="189"/>
      <point x="30" y="153"/>
      <point x="30" y="70" type="curve"/>
      <point x="30" y="-19"/>
      <point x="125" y="-83"/>
    </contour>
    <contour>
      <point x="411" y="278" type="curve"/>
      <point x="373" y="278"/>
      <point x="362" y="312"/>
      <point x="362" y="346" type="curve"/>
      <point x="362" y="386"/>
      <point x="378" y="415"/>
      <point x="412" y="415" type="curve"/>
      <point x="451" y="415"/>
      <point x="461" y="377"/>
      <point x="461" y="347" type="curve"/>
      <point x="461" y="322"/>
      <point x="454" y="278"/>
    </contour>
  </outline>
</glyph>
<glyph name="i-tamil" format="1">
  <advance width="1066"/>
  <unicode hex="0B87"/>
  <outline>
    <contour>
      <point x="256" y="-189" type="curve"/>
      <point x="521" y="-189"/>
      <point x="795" y="65"/>
      <point x="795" y="320" type="curve"/>
      <point x="795" y="510"/>
      <point x="642" y="565"/>
      <point x="544" y="565" type="curve"/>
      <point x="451" y="565"/>
      <point x="346" y="515"/>
      <point x="346" y="406" type="curve"/>
      <point x="346" y="338"/>
      <point x="386" y="290"/>
      <point x="463" y="290" type="curve"/>
      <point x="537" y="290"/>
      <point x="594" y="334"/>
      <point x="594" y="406" type="curve"/>
      <point x="594" y="475"/>
      <point x="541" y="520"/>
      <point x="494" y="520" type="curve"/>
      <point x="491" y="520"/>
      <point x="488" y="520"/>
      <point x="485" y="520" type="curve"/>
      <point x="493" y="522"/>
      <point x="501" y="523"/>
      <point x="510" y="523" type="curve"/>
      <point x="585" y="524"/>
      <point x="655" y="453"/>
      <point x="655" y="312" type="curve"/>
      <point x="655" y="68"/>
      <point x="445" y="-141"/>
      <point x="290" y="-141" type="curve"/>
      <point x="231" y="-141"/>
      <point x="190" y="-111"/>
      <point x="190" y="-44" type="curve"/>
      <point x="190" y="87"/>
      <point x="320" y="154"/>
      <point x="486" y="154" type="curve"/>
      <point x="677" y="154"/>
      <point x="782" y="50"/>
      <point x="782" y="-62" type="curve"/>
      <point x="782" y="-116"/>
      <point x="752" y="-141"/>
      <point x="693" y="-141" type="curve"/>
      <point x="524" y="-141"/>
      <point x="269" y="67"/>
      <point x="269" y="345" type="curve"/>
      <point x="269" y="543"/>
      <point x="399" y="652"/>
      <point x="560" y="652" type="curve"/>
      <point x="719" y="652"/>
      <point x="876" y="545"/>
      <point x="876" y="327" type="curve"/>
      <point x="876" y="252"/>
      <point x="857" y="204"/>
      <point x="851" y="181" type="curve"/>
      <point x="931" y="146"/>
      <point x="981" y="174"/>
      <point x="997" y="231" type="curve"/>
      <point x="1005" y="260"/>
      <point x="1006" y="299"/>
      <point x="1006" y="318" type="curve"/>
      <point x="1006" y="571"/>
      <point x="820" y="700"/>
      <point x="559" y="700" type="curve"/>
      <point x="199" y="700"/>
      <point x="139" y="454"/>
      <point x="139" y="335" type="curve"/>
      <point x="139" y="76"/>
      <point x="425" y="-189"/>
      <point x="723" y="-189" type="curve"/>
      <point x="878" y="-189"/>
      <point x="932" y="-118"/>
      <point x="932" y="-44" type="curve"/>
      <point x="932" y="102"/>
      <point x="735" y="202"/>
      <point x="482" y="202" type="curve"/>
      <point x="282" y="202"/>
      <point x="40" y="131"/>
      <point x="40" y="-37" type="curve"/>
      <point x="40" y="-140"/>
      <point x="140" y="-189"/>
    </contour>
    <contour>
      <point x="447" y="341" type="curve"/>
      <point x="416" y="341"/>
      <point x="397" y="366"/>
      <point x="397" y="409" type="curve"/>
      <point x="397" y="452"/>
      <point x="416" y="478"/>
      <point x="447" y="478" type="curve"/>
      <point x="478" y="478"/>
      <point x="497" y="452"/>
      <point x="497" y="409" type="curve"/>
      <point x="497" y="366"/>
      <point x="478" y="341"/>
    </contour>
  </outline>
</glyph>
<glyph name="uu-tamil" format="1">
  <advance width="1552"/>
  <unicode hex="0B8A"/>
  <outline>
    <contour>
      <point x="205" y="0" type="curve"/>
      <point x="1542" y="0" type="line"/>
      <point x="1542" y="48" type="line"/>
      <point x="209" y="48" type="line" smooth="yes"/>
      <point x="122" y="48"/>
      <point x="115" y="72"/>
      <point x="115" y="92" type="curve"/>
      <point x="115" y="130"/>
      <point x="142" y="142"/>
      <point x="224" y="143" type="curve"/>
      <point x="444" y="146"/>
      <point x="551" y="205"/>
      <point x="551" y="363" type="curve"/>
      <point x="551" y="528"/>
      <point x="416" y="563"/>
      <point x="310" y="563" type="curve"/>
      <point x="141" y="563"/>
      <point x="65" y="473"/>
      <point x="65" y="373" type="curve"/>
      <point x="65" y="304"/>
      <point x="100" y="243"/>
      <point x="189" y="243" type="curve"/>
      <point x="267" y="243"/>
      <point x="317" y="290"/>
      <point x="317" y="357" type="curve"/>
      <point x="317" y="418"/>
      <point x="276" y="461"/>
      <point x="201" y="461" type="curve"/>
      <point x="185" y="461"/>
      <point x="168" y="459"/>
      <point x="151" y="451" type="curve"/>
      <point x="174" y="480"/>
      <point x="216" y="495"/>
      <point x="269" y="495" type="curve"/>
      <point x="332" y="495"/>
      <point x="401" y="472"/>
      <point x="401" y="343" type="curve"/>
      <point x="401" y="228"/>
      <point x="357" y="194"/>
      <point x="228" y="191" type="curve"/>
      <point x="97" y="188"/>
      <point x="40" y="159"/>
      <point x="40" y="88" type="curve"/>
      <point x="40" y="38"/>
      <point x="68" y="0"/>
    </contour>
    <contour>
      <point x="170" y="295" type="curve"/>
      <point x="134" y="295"/>
      <point x="122" y="321"/>
      <point x="122" y="354" type="curve"/>
      <point x="122" y="391"/>
      <point x="137" y="418"/>
      <point x="171" y="418" type="curve"/>
      <point x="209" y="418"/>
      <point x="219" y="383"/>
      <point x="219" y="354" type="curve"/>
      <point x="219" y="329"/>
      <point x="211" y="295"/>
    </contour>
    <contour>
      <point x="825" y="146" type="curve"/>
      <point x="797" y="146"/>
      <point x="783" y="180"/>
      <point x="783" y="240" type="curve"/>
      <point x="783" y="300"/>
      <point x="798" y="341"/>
      <point x="827" y="341" type="curve"/>
      <point x="857" y="341"/>
      <point x="867" y="297"/>
      <point x="867" y="244" type="curve"/>
      <point x="867" y="175"/>
      <point x="851" y="146"/>
    </contour>
    <contour>
      <point x="828" y="104" type="curve"/>
      <point x="911" y="104"/>
      <point x="991" y="142"/>
      <point x="991" y="249" type="curve"/>
      <point x="991" y="326"/>
      <point x="949" y="391"/>
      <point x="855" y="391" type="curve"/>
      <point x="776" y="391"/>
      <point x="733" y="342"/>
      <point x="733" y="249" type="curve"/>
      <point x="733" y="220"/>
      <point x="739" y="178"/>
      <point x="766" y="146" type="curve"/>
      <point x="723" y="155"/>
      <point x="685" y="205"/>
      <point x="685" y="312" type="curve"/>
      <point x="685" y="484"/>
      <point x="794" y="515"/>
      <point x="864" y="515" type="curve"/>
      <point x="1023" y="515"/>
      <point x="1067" y="367"/>
      <point x="1067" y="274" type="curve"/>
      <point x="1067" y="200" type="line" smooth="yes"/>
      <point x="1067" y="126"/>
      <point x="1091" y="111"/>
      <point x="1127" y="111" type="curve"/>
      <point x="1157" y="111"/>
      <point x="1185" y="117"/>
      <point x="1204" y="131" type="curve"/>
      <point x="1195" y="154"/>
      <point x="1191" y="176"/>
      <point x="1190" y="251" type="curve"/>
      <point x="1188" y="440" type="line" smooth="yes"/>
      <point x="1188" y="484"/>
      <point x="1191" y="508"/>
      <point x="1243" y="508" type="curve"/>
      <point x="1478" y="509" type="line" smooth="yes"/>
      <point x="1504" y="509"/>
      <point x="1525" y="518"/>
      <point x="1514" y="552" type="curve"/>
      <point x="1216" y="552" type="line" smooth="yes"/>
      <point x="1095" y="552"/>
      <point x="1076" y="507"/>
      <point x="1076" y="421" type="curve"/>
      <point x="1050" y="512"/>
      <point x="969" y="562"/>
      <point x="862" y="563" type="curve"/>
      <point x="733" y="564"/>
      <point x="622" y="498"/>
      <point x="622" y="321" type="curve"/>
      <point x="622" y="161"/>
      <point x="710" y="104"/>
    </contour>
    <contour>
      <point x="1377" y="111" type="curve"/>
      <point x="1405" y="111"/>
      <point x="1426" y="117"/>
      <point x="1446" y="131" type="curve"/>
      <point x="1438" y="154"/>
      <point x="1433" y="176"/>
      <point x="1432" y="251" type="curve"/>
      <point x="1430" y="520" type="line"/>
      <point x="1307" y="515" type="line"/>
      <point x="1307" y="200" type="line" smooth="yes"/>
      <point x="1307" y="126"/>
      <point x="1333" y="111"/>
    </contour>
  </outline>
</glyph>
<glyph name="ee-tamil" format="1">
  <advance width="907"/>
  <unicode hex="0B8F"/>
  <outline>
    <contour>
      <point x="281" y="31" type="curve"/>
      <point x="241" y="31"/>
      <point x="221" y="77"/>
      <point x="221" y="156" type="curve"/>
      <point x="221" y="236"/>
      <point x="242" y="290"/>
      <point x="283" y="290" type="curve"/>
      <point x="326" y="290"/>
      <point x="340" y="232"/>
      <point x="340" y="161" type="curve"/>
      <point x="340" y="69"/>
      <point x="317" y="31"/>
    </contour>
    <contour>
      <point x="337" y="-196" type="curve"/>
      <point x="456" y="-196"/>
      <point x="739" y="-137"/>
      <point x="737" y="135" type="curve"/>
      <point x="735" y="515" type="line"/>
      <point x="589" y="509" type="line"/>
      <point x="589" y="149" type="line" smooth="yes"/>
      <point x="589" y="-53"/>
      <point x="467" y="-106"/>
      <point x="344" y="-146" type="curve"/>
      <point x="325" y="-152"/>
      <point x="312" y="-155"/>
      <point x="299" y="-154" type="curve"/>
      <point x="300" y="-175"/>
      <point x="314" y="-196"/>
    </contour>
    <contour>
      <point x="431" y="500" type="curve"/>
      <point x="858" y="500" type="line"/>
      <point x="885" y="500"/>
      <point x="904" y="501"/>
      <point x="904" y="527" type="curve"/>
      <point x="904" y="533"/>
      <point x="903" y="540"/>
      <point x="901" y="548" type="curve"/>
      <point x="445" y="548" type="line" smooth="yes"/>
      <point x="207" y="548"/>
      <point x="45" y="468"/>
      <point x="45" y="233" type="curve"/>
      <point x="45" y="56"/>
      <point x="152" y="-15"/>
      <point x="284" y="-15" type="curve"/>
      <point x="389" y="-15"/>
      <point x="490" y="32"/>
      <point x="490" y="168" type="curve"/>
      <point x="490" y="265"/>
      <point x="438" y="347"/>
      <point x="318" y="347" type="curve"/>
      <point x="217" y="347"/>
      <point x="163" y="285"/>
      <point x="163" y="168" type="curve"/>
      <point x="163" y="124"/>
      <point x="171" y="74"/>
      <point x="205" y="31" type="curve"/>
      <point x="154" y="43"/>
      <point x="109" y="106"/>
      <point x="109" y="225" type="curve"/>
      <point x="109" y="448"/>
      <point x="276" y="500"/>
    </contour>
  </outline>
</glyph>
<glyph name="ai-tamil" format="1">
  <advance width="907"/>
  <unicode hex="0B90"/>
  <outline>
    <contour>
      <point x="229" y="-189" type="curve"/>
      <point x="341" y="-189"/>
      <point x="427" y="-138"/>
      <point x="453" y="-31" type="curve"/>
      <point x="470" y="-116"/>
      <point x="511" y="-189"/>
      <point x="645" y="-189" type="curve"/>
      <point x="778" y="-189"/>
      <point x="858" y="-117"/>
      <point x="858" y="-14" type="curve"/>
      <point x="858" y="61"/>
      <point x="816" y="118"/>
      <point x="754" y="127" type="curve"/>
      <point x="695" y="136"/>
      <point x="657" y="97"/>
      <point x="642" y="75" type="curve"/>
      <point x="692" y="59"/>
      <point x="709" y="12"/>
      <point x="709" y="-33" type="curve"/>
      <point x="709" y="-91"/>
      <point x="683" y="-130"/>
      <point x="634" y="-130" type="curve"/>
      <point x="564" y="-130"/>
      <point x="531" y="-35"/>
      <point x="536" y="88" type="curve"/>
      <point x="380" y="88" type="line"/>
      <point x="377" y="-14"/>
      <point x="358" y="-122"/>
      <point x="271" y="-122" type="curve"/>
      <point x="216" y="-122"/>
      <point x="194" y="-87"/>
      <point x="194" y="-30" type="curve"/>
      <point x="194" y="79"/>
      <point x="270" y="133"/>
      <point x="487" y="165" type="curve"/>
      <point x="689" y="195"/>
      <point x="862" y="219"/>
      <point x="862" y="395" type="curve"/>
      <point x="862" y="502"/>
      <point x="797" y="563"/>
      <point x="674" y="563" type="curve"/>
      <point x="548" y="563"/>
      <point x="487" y="497"/>
      <point x="471" y="402" type="curve"/>
      <point x="455" y="504"/>
      <point x="393" y="563"/>
      <point x="273" y="563" type="curve"/>
      <point x="126" y="563"/>
      <point x="52" y="474"/>
      <point x="52" y="369" type="curve"/>
      <point x="52" y="305"/>
      <point x="80" y="249"/>
      <point x="174" y="249" type="curve"/>
      <point x="254" y="249"/>
      <point x="304" y="290"/>
      <point x="304" y="353" type="curve"/>
      <point x="304" y="411"/>
      <point x="262" y="451"/>
      <point x="186" y="451" type="curve"/>
      <point x="169" y="451"/>
      <point x="153" y="449"/>
      <point x="135" y="441" type="curve"/>
      <point x="152" y="488"/>
      <point x="201" y="501"/>
      <point x="240" y="501" type="curve"/>
      <point x="341" y="501"/>
      <point x="384" y="409"/>
      <point x="380" y="291" type="curve"/>
      <point x="536" y="291" type="line"/>
      <point x="547" y="405"/>
      <point x="559" y="496"/>
      <point x="639" y="496" type="curve"/>
      <point x="692" y="496"/>
      <point x="712" y="462"/>
      <point x="712" y="405" type="curve"/>
      <point x="712" y="292"/>
      <point x="640" y="237"/>
      <point x="445" y="206" type="curve"/>
      <point x="227" y="171"/>
      <point x="45" y="134"/>
      <point x="45" y="-30" type="curve"/>
      <point x="45" y="-123"/>
      <point x="104" y="-189"/>
    </contour>
    <contour>
      <point x="150" y="287" type="curve"/>
      <point x="116" y="287"/>
      <point x="107" y="318"/>
      <point x="107" y="348" type="curve"/>
      <point x="107" y="385"/>
      <point x="121" y="412"/>
      <point x="151" y="412" type="curve"/>
      <point x="186" y="412"/>
      <point x="194" y="377"/>
      <point x="194" y="350" type="curve"/>
      <point x="194" y="327"/>
      <point x="188" y="287"/>
    </contour>
  </outline>
</glyph>
<glyph name="o-tamil" format="1">
  <advance width="812"/>
  <unicode hex="0B92"/>
  <outline>
    <contour>
      <point x="368" y="-189" type="curve"/>
      <point x="503" y="-189"/>
      <point x="661" y="-91"/>
      <point x="702" y="71" type="curve"/>
      <point x="691" y="79" type="line"/>
      <point x="651" y="63"/>
      <point x="613" y="63"/>
      <point x="592" y="63" type="curve"/>
      <point x="505" y="63"/>
      <point x="434" y="109"/>
      <point x="434" y="208" type="curve"/>
      <point x="434" y="280"/>
      <point x="472" y="317"/>
      <point x="491" y="323" type="curve"/>
      <point x="478" y="310"/>
      <point x="470" y="281"/>
      <point x="470" y="256" type="curve"/>
      <point x="470" y="192"/>
      <point x="521" y="145"/>
      <point x="605" y="145" type="curve"/>
      <point x="712" y="145"/>
      <point x="772" y="221"/>
      <point x="772" y="316" type="curve"/>
      <point x="772" y="486"/>
      <point x="578" y="563"/>
      <point x="384" y="563" type="curve"/>
      <point x="129" y="563"/>
      <point x="35" y="430"/>
      <point x="35" y="297" type="curve"/>
      <point x="35" y="221"/>
      <point x="66" y="164"/>
      <point x="163" y="164" type="curve"/>
      <point x="246" y="164"/>
      <point x="295" y="205"/>
      <point x="295" y="269" type="curve"/>
      <point x="295" y="326"/>
      <point x="255" y="366"/>
      <point x="172" y="366" type="curve"/>
      <point x="140" y="366"/>
      <point x="104" y="360"/>
      <point x="78" y="332" type="curve"/>
      <point x="87" y="276" type="line"/>
      <point x="87" y="412"/>
      <point x="185" y="502"/>
      <point x="365" y="502" type="curve"/>
      <point x="505" y="502"/>
      <point x="622" y="447"/>
      <point x="622" y="313" type="curve"/>
      <point x="622" y="259"/>
      <point x="605" y="215"/>
      <point x="573" y="215" type="curve"/>
      <point x="555" y="215"/>
      <point x="534" y="228"/>
      <point x="534" y="277" type="curve"/>
      <point x="534" y="295"/>
      <point x="537" y="331"/>
      <point x="551" y="343" type="curve"/>
      <point x="542" y="359" type="line"/>
      <point x="465" y="359"/>
      <point x="335" y="295"/>
      <point x="335" y="153" type="curve"/>
      <point x="335" y="28"/>
      <point x="437" y="-38"/>
      <point x="543" y="-38" type="curve"/>
      <point x="556" y="-38"/>
      <point x="571" y="-37"/>
      <point x="586" y="-34" type="curve"/>
      <point x="556" y="-71"/>
      <point x="493" y="-122"/>
      <point x="405" y="-122" type="curve"/>
      <point x="332" y="-122"/>
      <point x="295" y="-87"/>
      <point x="295" y="-14" type="curve"/>
      <point x="295" y="-12"/>
      <point x="295" y="-15"/>
      <point x="296" y="4" type="curve"/>
      <point x="289" y="9"/>
      <point x="279" y="11"/>
      <point x="269" y="11" type="curve"/>
      <point x="238" y="11"/>
      <point x="201" y="-9"/>
      <point x="201" y="-67" type="curve"/>
      <point x="201" y="-156"/>
      <point x="289" y="-189"/>
    </contour>
    <contour>
      <point x="141" y="202" type="curve"/>
      <point x="107" y="202"/>
      <point x="98" y="233"/>
      <point x="98" y="263" type="curve"/>
      <point x="98" y="300"/>
      <point x="112" y="327"/>
      <point x="142" y="327" type="curve"/>
      <point x="177" y="327"/>
      <point x="185" y="292"/>
      <point x="185" y="265" type="curve"/>
      <point x="185" y="242"/>
      <point x="179" y="202"/>
    </contour>
  </outline>
</glyph>
<glyph name="ca-tamil" format="1">
  <advance width="757"/>
  <unicode hex="0B9A"/>
  <outline>
    <contour>
      <point x="266" y="-15" type="curve"/>
      <point x="406" y="-15"/>
      <point x="531" y="69"/>
      <point x="531" y="240" type="curve"/>
      <point x="531" y="532" type="line"/>
      <point x="385" y="531" type="line"/>
      <point x="385" y="230" type="line" smooth="yes"/>
      <point x="385" y="147"/>
      <point x="362" y="55"/>
      <point x="245" y="55" type="curve"/>
      <point x="172" y="55"/>
      <point x="112" y="90"/>
      <point x="112" y="174" type="curve"/>
      <point x="112" y="235"/>
      <point x="150" y="286"/>
      <point x="260" y="286" type="curve"/>
      <point x="694" y="286" type="line" smooth="yes"/>
      <point x="721" y="286"/>
      <point x="731" y="318"/>
      <point x="723" y="334" type="curve"/>
      <point x="239" y="334" type="line" smooth="yes"/>
      <point x="110" y="334"/>
      <point x="50" y="261"/>
      <point x="50" y="173" type="curve"/>
      <point x="50" y="70"/>
      <point x="126" y="-15"/>
    </contour>
    <contour>
      <point x="166" y="507" type="curve"/>
      <point x="166" y="291" type="line"/>
      <point x="210" y="299" type="line"/>
      <point x="210" y="482" type="line" smooth="yes"/>
      <point x="210" y="496"/>
      <point x="218" y="499"/>
      <point x="227" y="499" type="curve"/>
      <point x="657" y="500" type="line" smooth="yes"/>
      <point x="687" y="500"/>
      <point x="694" y="516"/>
      <point x="694" y="532" type="curve"/>
      <point x="694" y="538"/>
      <point x="693" y="542"/>
      <point x="689" y="548" type="curve"/>
      <point x="204" y="548" type="line" smooth="yes"/>
      <point x="180" y="548"/>
      <point x="166" y="537"/>
    </contour>
    <contour>
      <point x="457" y="548" type="move" name="imatra"/>
    </contour>
    <contour>
      <point x="454" y="548" type="move" name="top"/>
    </contour>
  </outline>
</glyph>
<glyph name="ta-tamil" format="1">
  <advance width="829"/>
  <unicode hex="0BA4"/>
  <outline>
    <contour>
      <point x="133" y="-300" type="curve"/>
      <point x="173" y="-300"/>
      <point x="198" y="-278"/>
      <point x="202" y="-252" type="curve"/>
      <point x="181" y="-228"/>
      <point x="178" y="-217"/>
      <point x="180" y="-200" type="curve"/>
      <point x="182" y="-180"/>
      <point x="192" y="-152"/>
      <point x="261" y="-152" type="curve"/>
      <point x="440" y="-152" type="line" smooth="yes"/>
      <point x="643" y="-152"/>
      <point x="779" y="-58"/>
      <point x="779" y="115" type="curve"/>
      <point x="779" y="258"/>
      <point x="696" y="332"/>
      <point x="540" y="333" type="curve"/>
      <point x="247" y="334" type="line" smooth="yes"/>
      <point x="107" y="334"/>
      <point x="50" y="261"/>
      <point x="50" y="173" type="curve"/>
      <point x="50" y="70"/>
      <point x="128" y="-15"/>
      <point x="261" y="-15" type="curve"/>
      <point x="402" y="-15"/>
      <point x="532" y="69"/>
      <point x="532" y="240" type="curve"/>
      <point x="531" y="532" type="line"/>
      <point x="385" y="531" type="line"/>
      <point x="385" y="209" type="line" smooth="yes"/>
      <point x="385" y="136"/>
      <point x="354" y="55"/>
      <point x="244" y="55" type="curve"/>
      <point x="167" y="55"/>
      <point x="112" y="91"/>
      <point x="112" y="174" type="curve"/>
      <point x="112" y="230"/>
      <point x="147" y="286"/>
      <point x="269" y="286" type="curve"/>
      <point x="512" y="285" type="line" smooth="yes"/>
      <point x="606" y="285"/>
      <point x="629" y="220"/>
      <point x="629" y="120" type="curve"/>
      <point x="629" y="0"/>
      <point x="577" y="-104"/>
      <point x="388" y="-104" type="curve"/>
      <point x="269" y="-104" type="line" smooth="yes"/>
      <point x="131" y="-104"/>
      <point x="65" y="-150"/>
      <point x="65" y="-225" type="curve"/>
      <point x="65" y="-260"/>
      <point x="79" y="-300"/>
    </contour>
    <contour>
      <point x="230" y="500" type="curve"/>
      <point x="642" y="500" type="line"/>
      <point x="669" y="500"/>
      <point x="694" y="499"/>
      <point x="694" y="525" type="curve"/>
      <point x="694" y="531"/>
      <point x="693" y="540"/>
      <point x="689" y="548" type="curve"/>
      <point x="203" y="548" type="line" smooth="yes"/>
      <point x="179" y="548"/>
      <point x="165" y="537"/>
      <point x="165" y="507" type="curve"/>
      <point x="165" y="290" type="line"/>
      <point x="213" y="295" type="line"/>
      <point x="213" y="482" type="line" smooth="yes"/>
      <point x="213" y="496"/>
      <point x="221" y="500"/>
    </contour>
    <contour>
      <point x="464" y="548" type="move" name="imatra"/>
    </contour>
    <contour>
      <point x="462" y="548" type="move" name="top"/>
    </contour>
  </outline>
</glyph>
<glyph name="na-tamil" format="1">
  <advance width="856"/>
  <unicode hex="0BA8"/>
  <outline>
    <contour>
      <point x="133" y="-300" type="curve"/>
      <point x="173" y="-300"/>
      <point x="198" y="-278"/>
      <point x="202" y="-252" type="curve"/>
      <point x="181" y="-228"/>
      <point x="178" y="-217"/>
      <point x="180" y="-200" type="curve"/>
      <point x="182" y="-180"/>
      <point x="192" y="-152"/>
      <point x="261" y="-152" type="curve"/>
      <point x="479" y="-152" type="line" smooth="yes"/>
      <point x="728" y="-152"/>
      <point x="806" y="-30"/>
      <point x="806" y="182" type="curve"/>
      <point x="806" y="299"/>
      <point x="778" y="417"/>
      <point x="637" y="417" type="curve"/>
      <point x="500" y="417"/>
      <point x="470" y="288"/>
      <point x="458" y="215" type="curve"/>
      <point x="497" y="163" type="line"/>
      <point x="498" y="233"/>
      <point x="533" y="322"/>
      <point x="587" y="322" type="curve"/>
      <point x="641" y="322"/>
      <point x="656" y="262"/>
      <point x="656" y="178" type="curve"/>
      <point x="656" y="11"/>
      <point x="626" y="-104"/>
      <point x="479" y="-104" type="curve"/>
      <point x="269" y="-104" type="line" smooth="yes"/>
      <point x="131" y="-104"/>
      <point x="65" y="-150"/>
      <point x="65" y="-225" type="curve"/>
      <point x="65" y="-260"/>
      <point x="79" y="-300"/>
    </contour>
    <contour>
      <point x="107" y="509" type="line"/>
      <point x="107" y="0" type="line"/>
      <point x="161" y="0" type="line"/>
      <point x="161" y="515" type="line"/>
    </contour>
    <contour>
      <point x="431" y="-10" type="curve"/>
      <point x="464" y="-10"/>
      <point x="492" y="-2"/>
      <point x="516" y="15" type="curve"/>
      <point x="503" y="49"/>
      <point x="497" y="107"/>
      <point x="497" y="183" type="curve"/>
      <point x="497" y="514" type="line"/>
      <point x="351" y="508" type="line"/>
      <point x="351" y="103" type="line" smooth="yes"/>
      <point x="351" y="9"/>
      <point x="382" y="-10"/>
    </contour>
    <contour>
      <point x="648" y="548" type="curve"/>
      <point x="107" y="548" type="line"/>
      <point x="107" y="500" type="line"/>
      <point x="604" y="500" type="line" smooth="yes"/>
      <point x="631" y="500"/>
      <point x="653" y="500"/>
      <point x="653" y="526" type="curve"/>
      <point x="653" y="532"/>
      <point x="652" y="540"/>
    </contour>
    <contour>
      <point x="444" y="548" type="move" name="imatra"/>
    </contour>
    <contour>
      <point x="425" y="548" type="move" name="top"/>
    </contour>
  </outline>
</glyph>
<glyph name="nnna-tamil" format="1">
  <advance width="1332"/>
  <unicode hex="0BA9"/>
  <outline>
    <contour>
      <point x="290" y="31" type="curve"/>
      <point x="250" y="31"/>
      <point x="230" y="77"/>
      <point x="230" y="156" type="curve"/>
      <point x="230" y="236"/>
      <point x="251" y="290"/>
      <point x="292" y="290" type="curve"/>
      <point x="335" y="290"/>
      <point x="349" y="232"/>
      <point x="349" y="161" type="curve"/>
      <point x="349" y="69"/>
      <point x="326" y="31"/>
    </contour>
    <contour>
      <point x="1094" y="-10" type="curve"/>
      <point x="1126" y="-10"/>
      <point x="1154" y="-2"/>
      <point x="1178" y="15" type="curve"/>
      <point x="1165" y="49"/>
      <point x="1159" y="83"/>
      <point x="1159" y="167" type="curve"/>
      <point x="1159" y="514" type="line"/>
      <point x="1013" y="508" type="line"/>
      <point x="1013" y="103" type="line" smooth="yes"/>
      <point x="1013" y="9"/>
      <point x="1044" y="-10"/>
    </contour>
    <contour>
      <point x="947" y="500" type="curve"/>
      <point x="1276" y="500" type="line"/>
      <point x="1303" y="500"/>
      <point x="1329" y="500"/>
      <point x="1329" y="525" type="curve"/>
      <point x="1329" y="531"/>
      <point x="1328" y="540"/>
      <point x="1324" y="548" type="curve"/>
      <point x="960" y="548" type="line" smooth="yes"/>
      <point x="724" y="548"/>
      <point x="563" y="439"/>
      <point x="563" y="197" type="curve"/>
      <point x="563" y="53"/>
      <point x="622" y="-15"/>
      <point x="727" y="-15" type="curve"/>
      <point x="849" y="-15"/>
      <point x="914" y="78"/>
      <point x="914" y="209" type="curve"/>
      <point x="914" y="427"/>
      <point x="741" y="566"/>
      <point x="461" y="566" type="curve"/>
      <point x="211" y="566"/>
      <point x="45" y="456"/>
      <point x="45" y="234" type="curve"/>
      <point x="45" y="56"/>
      <point x="155" y="-15"/>
      <point x="290" y="-15" type="curve"/>
      <point x="399" y="-15"/>
      <point x="499" y="32"/>
      <point x="499" y="167" type="curve"/>
      <point x="499" y="265"/>
      <point x="446" y="347"/>
      <point x="328" y="347" type="curve"/>
      <point x="226" y="347"/>
      <point x="173" y="285"/>
      <point x="173" y="169" type="curve"/>
      <point x="173" y="124"/>
      <point x="181" y="74"/>
      <point x="217" y="31" type="curve"/>
      <point x="159" y="43"/>
      <point x="108" y="106"/>
      <point x="108" y="225" type="curve"/>
      <point x="108" y="448"/>
      <point x="279" y="515"/>
      <point x="450" y="515" type="curve"/>
      <point x="606" y="515"/>
      <point x="764" y="459"/>
      <point x="764" y="201" type="curve"/>
      <point x="764" y="131"/>
      <point x="752" y="74"/>
      <point x="690" y="74" type="curve"/>
      <point x="652" y="74"/>
      <point x="618" y="95"/>
      <point x="618" y="201" type="curve"/>
      <point x="618" y="467"/>
      <point x="823" y="500"/>
    </contour>
    <contour>
      <point x="1092" y="548" type="move" name="imatra"/>
    </contour>
    <contour>
      <point x="734" y="548" type="move" name="top"/>
    </contour>
  </outline>
</glyph>
<glyph name="ma-tamil" format="1">
  <advance width="911"/>
  <unicode hex="0BAE"/>
  <outline>
    <contour>
      <point x="604" y="563" type="curve"/>
      <point x="494" y="563"/>
      <point x="426" y="518"/>
      <point x="426" y="368" type="curve"/>
      <point x="426" y="48" type="line"/>
      <point x="231" y="48" type="line"/>
      <point x="231" y="492" type="line" smooth="yes"/>
      <point x="231" y="532"/>
      <point x="216" y="558"/>
      <point x="156" y="558" type="curve"/>
      <point x="135" y="558"/>
      <point x="99" y="555"/>
      <point x="78" y="549" type="curve"/>
      <point x="85" y="531"/>
      <point x="85" y="503"/>
      <point x="85" y="483" type="curve"/>
      <point x="85" y="39" type="line" smooth="yes"/>
      <point x="85" y="18"/>
      <point x="95" y="0"/>
      <point x="124" y="0" type="curve"/>
      <point x="654" y="0" type="line" smooth="yes"/>
      <point x="819" y="0"/>
      <point x="861" y="116"/>
      <point x="861" y="263" type="curve"/>
      <point x="861" y="430"/>
      <point x="768" y="563"/>
    </contour>
    <contour>
      <point x="572" y="49" type="line"/>
      <point x="572" y="385" type="line"/>
      <point x="572" y="481"/>
      <point x="583" y="507"/>
      <point x="635" y="507" type="curve"/>
      <point x="726" y="507"/>
      <point x="806" y="416"/>
      <point x="806" y="256" type="curve"/>
      <point x="806" y="114"/>
      <point x="776" y="49"/>
      <point x="638" y="49" type="curve"/>
    </contour>
    <contour>
      <point x="694" y="548" type="move" name="imatra"/>
    </contour>
    <contour>
      <point x="611" y="548" type="move" name="top"/>
    </contour>
  </outline>
</glyph>
<glyph name="rra-tamil" format="1">
  <advance width="908"/>
  <unicode hex="0BB1"/>
  <outline>
    <contour>
      <point x="85" y="0" type="line"/>
      <point x="231" y="0" type="line"/>
      <point x="231" y="323" type="line" smooth="yes"/>
      <point x="231" y="442"/>
      <point x="244" y="492"/>
      <point x="302" y="492" type="curve"/>
      <point x="342" y="492"/>
      <point x="374" y="461"/>
      <point x="374" y="334" type="curve"/>
      <point x="374" y="103" type="line" smooth="yes"/>
      <point x="374" y="9"/>
      <point x="405" y="-10"/>
      <point x="456" y="-10" type="curve"/>
      <point x="490" y="-10"/>
      <point x="515" y="-2"/>
      <point x="539" y="15" type="curve"/>
      <point x="529" y="37"/>
      <point x="520" y="103"/>
      <point x="520" y="167" type="curve"/>
      <point x="520" y="277" type="line" smooth="yes"/>
      <point x="520" y="409"/>
      <point x="544" y="492"/>
      <point x="612" y="491" type="curve"/>
      <point x="686" y="490"/>
      <point x="698" y="380"/>
      <point x="698" y="204" type="curve"/>
      <point x="698" y="-45"/>
      <point x="675" y="-104"/>
      <point x="482" y="-104" type="curve"/>
      <point x="264" y="-104" type="line" smooth="yes"/>
      <point x="126" y="-104"/>
      <point x="60" y="-150"/>
      <point x="60" y="-225" type="curve"/>
      <point x="60" y="-260"/>
      <point x="74" y="-300"/>
      <point x="128" y="-300" type="curve"/>
      <point x="168" y="-300"/>
      <point x="193" y="-278"/>
      <point x="197" y="-252" type="curve"/>
      <point x="176" y="-228"/>
      <point x="173" y="-217"/>
      <point x="175" y="-200" type="curve"/>
      <point x="177" y="-180"/>
      <point x="187" y="-152"/>
      <point x="256" y="-152" type="curve"/>
      <point x="482" y="-152" type="line" smooth="yes"/>
      <point x="760" y="-152"/>
      <point x="848" y="-68"/>
      <point x="848" y="228" type="curve"/>
      <point x="848" y="425"/>
      <point x="808" y="563"/>
      <point x="632" y="563" type="curve"/>
      <point x="532" y="563"/>
      <point x="471" y="513"/>
      <point x="449" y="405" type="curve"/>
      <point x="439" y="518"/>
      <point x="371" y="563"/>
      <point x="285" y="563" type="curve"/>
      <point x="114" y="563"/>
      <point x="85" y="441"/>
      <point x="85" y="310" type="curve"/>
    </contour>
    <contour>
      <point x="711" y="548" type="move" name="imatra"/>
    </contour>
    <contour>
      <point x="472" y="548" type="move" name="top"/>
    </contour>
  </outline>
</glyph>
<glyph name="lla-tamil" format="1">
  <advance width="1239"/>
  <unicode hex="0BB3"/>
  <outline>
    <contour>
      <point x="294" y="-15" type="curve"/>
      <point x="399" y="-15"/>
      <point x="500" y="32"/>
      <point x="500" y="168" type="curve"/>
      <point x="500" y="265"/>
      <point x="448" y="347"/>
      <point x="328" y="347" type="curve"/>
      <point x="228" y="347"/>
      <point x="174" y="285"/>
      <point x="174" y="168" type="curve"/>
      <point x="174" y="130"/>
      <point x="182" y="74"/>
      <point x="218" y="31" type="curve"/>
      <point x="159" y="43"/>
      <point x="108" y="107"/>
      <point x="108" y="245" type="curve"/>
      <point x="108" y="475"/>
      <point x="247" y="515"/>
      <point x="337" y="515" type="curve"/>
      <point x="550" y="515"/>
      <point x="608" y="337"/>
      <point x="608" y="225" type="curve"/>
      <point x="608" y="103" type="line" smooth="yes"/>
      <point x="608" y="9"/>
      <point x="639" y="-10"/>
      <point x="684" y="-10" type="curve"/>
      <point x="717" y="-10"/>
      <point x="745" y="-2"/>
      <point x="769" y="15" type="curve"/>
      <point x="758" y="45"/>
      <point x="752" y="72"/>
      <point x="751" y="167" type="curve"/>
      <point x="749" y="416" type="line" smooth="yes"/>
      <point x="749" y="478"/>
      <point x="775" y="501"/>
      <point x="832" y="501" type="curve"/>
      <point x="1187" y="501" type="line" smooth="yes"/>
      <point x="1214" y="501"/>
      <point x="1236" y="502"/>
      <point x="1236" y="528" type="curve"/>
      <point x="1236" y="534"/>
      <point x="1235" y="540"/>
      <point x="1231" y="548" type="curve"/>
      <point x="797" y="548" type="line" smooth="yes"/>
      <point x="644" y="548"/>
      <point x="620" y="491"/>
      <point x="620" y="383" type="curve"/>
      <point x="587" y="498"/>
      <point x="482" y="563"/>
      <point x="337" y="563" type="curve"/>
      <point x="180" y="563"/>
      <point x="45" y="481"/>
      <point x="45" y="256" type="curve"/>
      <point x="45" y="56"/>
      <point x="151" y="-15"/>
    </contour>
    <contour>
      <point x="291" y="31" type="curve"/>
      <point x="251" y="31"/>
      <point x="231" y="77"/>
      <point x="231" y="156" type="curve"/>
      <point x="231" y="236"/>
      <point x="252" y="290"/>
      <point x="293" y="290" type="curve"/>
      <point x="336" y="290"/>
      <point x="350" y="232"/>
      <point x="350" y="161" type="curve"/>
      <point x="350" y="69"/>
      <point x="327" y="31"/>
    </contour>
    <contour>
      <point x="1004" y="-10" type="curve"/>
      <point x="1038" y="-10"/>
      <point x="1063" y="-2"/>
      <point x="1087" y="15" type="curve"/>
      <point x="1076" y="45"/>
      <point x="1070" y="72"/>
      <point x="1068" y="167" type="curve"/>
      <point x="1068" y="515" type="line"/>
      <point x="922" y="509" type="line"/>
      <point x="922" y="103" type="line" smooth="yes"/>
      <point x="922" y="9"/>
      <point x="953" y="-10"/>
    </contour>
    <contour>
      <point x="1003" y="548" type="move" name="imatra"/>
    </contour>
    <contour>
      <point x="671" y="548" type="move" name="top"/>
    </contour>
  </outline>
</glyph>
<glyph name="ssa-tamil" format="1">
  <advance width="1526"/>
  <unicode hex="0BB7"/>
  <outline>
    <contour>
      <point x="288" y="-15" type="curve"/>
      <point x="399" y="-18"/>
      <point x="499" y="29"/>
      <point x="499" y="167" type="curve"/>
      <point x="499" y="265"/>
      <point x="446" y="347"/>
      <point x="328" y="347" type="curve"/>
      <point x="226" y="347"/>
      <point x="173" y="285"/>
      <point x="173" y="169" type="curve"/>
      <point x="173" y="124"/>
      <point x="181" y="71"/>
      <point x="217" y="31" type="curve"/>
      <point x="159" y="44"/>
      <point x="108" y="101"/>
      <point x="108" y="231" type="curve"/>
      <point x="108" y="445"/>
      <point x="243" y="512"/>
      <point x="385" y="512" type="curve"/>
      <point x="553" y="512"/>
      <point x="612" y="418"/>
      <point x="612" y="278" type="curve"/>
      <point x="612" y="167"/>
      <point x="576" y="78"/>
      <point x="502" y="37" type="curve"/>
      <point x="502" y="0" type="line"/>
      <point x="1368" y="0" type="line"/>
      <point x="1368" y="48" type="line"/>
      <point x="679" y="48" type="line"/>
      <point x="729" y="92"/>
      <point x="762" y="165"/>
      <point x="762" y="269" type="curve"/>
      <point x="762" y="475"/>
      <point x="630" y="563"/>
      <point x="419" y="563" type="curve"/>
      <point x="185" y="563"/>
      <point x="45" y="454"/>
      <point x="45" y="241" type="curve"/>
      <point x="45" y="52"/>
      <point x="155" y="-15"/>
    </contour>
    <contour>
      <point x="290" y="31" type="curve"/>
      <point x="250" y="28"/>
      <point x="230" y="74"/>
      <point x="230" y="156" type="curve"/>
      <point x="230" y="236"/>
      <point x="251" y="290"/>
      <point x="292" y="290" type="curve"/>
      <point x="335" y="290"/>
      <point x="349" y="232"/>
      <point x="349" y="161" type="curve"/>
      <point x="349" y="66"/>
      <point x="326" y="28"/>
    </contour>
    <contour>
      <point x="1016" y="280" type="curve"/>
      <point x="1016" y="-246" type="line"/>
      <point x="1146" y="-246" type="line"/>
      <point x="1146" y="287" type="line" smooth="yes"/>
      <point x="1146" y="478"/>
      <point x="1096" y="547"/>
      <point x="989" y="547" type="curve"/>
      <point x="895" y="547"/>
      <point x="815" y="494"/>
      <point x="815" y="375" type="curve"/>
      <point x="815" y="248"/>
      <point x="906" y="189"/>
      <point x="1047" y="189" type="curve"/>
      <point x="1272" y="189"/>
      <point x="1314" y="329"/>
      <point x="1344" y="375" type="curve"/>
      <point x="1296" y="410" type="line"/>
      <point x="1238" y="320"/>
      <point x="1196" y="243"/>
      <point x="1047" y="243" type="curve"/>
      <point x="952" y="243"/>
      <point x="870" y="274"/>
      <point x="870" y="380" type="curve"/>
      <point x="870" y="448"/>
      <point x="903" y="490"/>
      <point x="954" y="490" type="curve"/>
      <point x="1004" y="490"/>
      <point x="1016" y="448"/>
    </contour>
    <contour>
      <point x="1294" y="409" type="line"/>
      <point x="1294" y="0" type="line"/>
      <point x="1441" y="0" type="line"/>
      <point x="1441" y="409" type="line"/>
    </contour>
    <contour>
      <point x="998" y="535" type="move" name="imatra"/>
    </contour>
    <contour>
      <point x="762" y="548" type="move" name="top"/>
    </contour>
  </outline>
</glyph>
<glyph name="sa-tamil" format="1">
  <advance width="1350"/>
  <unicode hex="0BB8"/>
  <outline>
    <contour>
      <point x="282" y="-15" type="curve"/>
      <point x="388" y="-15"/>
      <point x="489" y="32"/>
      <point x="489" y="167" type="curve"/>
      <point x="489" y="265"/>
      <point x="436" y="344"/>
      <point x="320" y="344" type="curve"/>
      <point x="219" y="344"/>
      <point x="168" y="284"/>
      <point x="168" y="171" type="curve"/>
      <point x="168" y="129"/>
      <point x="175" y="74"/>
      <point x="207" y="31" type="curve"/>
      <point x="149" y="43"/>
      <point x="98" y="107"/>
      <point x="98" y="245" type="curve"/>
      <point x="98" y="475"/>
      <point x="238" y="515"/>
      <point x="331" y="515" type="curve"/>
      <point x="529" y="515"/>
      <point x="588" y="335"/>
      <point x="588" y="204" type="curve"/>
      <point x="588" y="103" type="line" smooth="yes"/>
      <point x="588" y="8"/>
      <point x="619" y="-10"/>
      <point x="665" y="-10" type="curve"/>
      <point x="696" y="-10"/>
      <point x="725" y="-2"/>
      <point x="749" y="15" type="curve"/>
      <point x="738" y="45"/>
      <point x="732" y="76"/>
      <point x="731" y="167" type="curve"/>
      <point x="729" y="383" type="line" smooth="yes"/>
      <point x="728" y="447"/>
      <point x="747" y="502"/>
      <point x="810" y="502" type="curve"/>
      <point x="901" y="502"/>
      <point x="888" y="383"/>
      <point x="888" y="270" type="curve"/>
      <point x="888" y="101"/>
      <point x="885" y="-15"/>
      <point x="1053" y="-15" type="curve"/>
      <point x="1270" y="-15"/>
      <point x="1300" y="204"/>
      <point x="1300" y="315" type="curve"/>
      <point x="1300" y="478"/>
      <point x="1233" y="563"/>
      <point x="1168" y="563" type="curve"/>
      <point x="1120" y="563"/>
      <point x="1103" y="516"/>
      <point x="1109" y="505" type="curve"/>
      <point x="1152" y="487"/>
      <point x="1239" y="443"/>
      <point x="1239" y="291" type="curve"/>
      <point x="1239" y="171"/>
      <point x="1186" y="52"/>
      <point x="1101" y="52" type="curve"/>
      <point x="1026" y="52"/>
      <point x="1031" y="119"/>
      <point x="1031" y="245" type="curve"/>
      <point x="1031" y="437"/>
      <point x="1025" y="563"/>
      <point x="811" y="563" type="curve"/>
      <point x="627" y="563"/>
      <point x="600" y="461"/>
      <point x="600" y="380" type="curve"/>
      <point x="553" y="490"/>
      <point x="462" y="562"/>
      <point x="326" y="563" type="curve"/>
      <point x="179" y="564"/>
      <point x="45" y="480"/>
      <point x="45" y="256" type="curve"/>
      <point x="45" y="56"/>
      <point x="151" y="-15"/>
    </contour>
    <contour>
      <point x="280" y="31" type="curve"/>
      <point x="240" y="31"/>
      <point x="220" y="77"/>
      <point x="220" y="156" type="curve"/>
      <point x="220" y="236"/>
      <point x="241" y="290"/>
      <point x="282" y="290" type="curve"/>
      <point x="325" y="290"/>
      <point x="339" y="232"/>
      <point x="339" y="161" type="curve"/>
      <point x="339" y="69"/>
      <point x="316" y="31"/>
    </contour>
    <contour>
      <point x="1201" y="548" type="move" name="imatra"/>
    </contour>
    <contour>
      <point x="655" y="548" type="move" name="top"/>
    </contour>
  </outline>
</glyph>
<glyph name="ha-tamil" format="1">
  <advance width="1708"/>
  <unicode hex="0BB9"/>
  <outline>
    <contour>
      <point x="159" y="-340" type="curve"/>
      <point x="199" y="-340"/>
      <point x="224" y="-318"/>
      <point x="228" y="-292" type="curve"/>
      <point x="207" y="-268"/>
      <point x="204" y="-257"/>
      <point x="206" y="-240" type="curve"/>
      <point x="208" y="-221"/>
      <point x="218" y="-195"/>
      <point x="287" y="-195" type="curve"/>
      <point x="1303" y="-195" type="line" smooth="yes"/>
      <point x="1543" y="-195"/>
      <point x="1643" y="-139"/>
      <point x="1643" y="212" type="curve"/>
      <point x="1643" y="425"/>
      <point x="1605" y="563"/>
      <point x="1433" y="563" type="curve"/>
      <point x="1329" y="563"/>
      <point x="1268" y="513"/>
      <point x="1246" y="405" type="curve"/>
      <point x="1230" y="535"/>
      <point x="1156" y="563"/>
      <point x="1077" y="563" type="curve"/>
      <point x="910" y="563"/>
      <point x="882" y="436"/>
      <point x="882" y="340" type="curve"/>
      <point x="882" y="43" type="line"/>
      <point x="680" y="43" type="line"/>
      <point x="730" y="87"/>
      <point x="763" y="165"/>
      <point x="763" y="269" type="curve"/>
      <point x="763" y="474"/>
      <point x="634" y="563"/>
      <point x="406" y="563" type="curve"/>
      <point x="165" y="563"/>
      <point x="45" y="464"/>
      <point x="45" y="250" type="curve"/>
      <point x="45" y="45"/>
      <point x="154" y="-15"/>
      <point x="288" y="-15" type="curve"/>
      <point x="399" y="-15"/>
      <point x="500" y="24"/>
      <point x="500" y="147" type="curve"/>
      <point x="500" y="231"/>
      <point x="448" y="304"/>
      <point x="329" y="304" type="curve"/>
      <point x="227" y="304"/>
      <point x="174" y="254"/>
      <point x="174" y="149" type="curve"/>
      <point x="174" y="114"/>
      <point x="180" y="68"/>
      <point x="216" y="32" type="curve"/>
      <point x="162" y="45"/>
      <point x="109" y="93"/>
      <point x="109" y="234" type="curve"/>
      <point x="109" y="437"/>
      <point x="219" y="514"/>
      <point x="374" y="514" type="curve"/>
      <point x="554" y="514"/>
      <point x="613" y="410"/>
      <point x="613" y="276" type="curve"/>
      <point x="613" y="167"/>
      <point x="576" y="77"/>
      <point x="503" y="37" type="curve"/>
      <point x="503" y="0" type="line"/>
      <point x="1028" y="0" type="line"/>
      <point x="1028" y="293" type="line" smooth="yes"/>
      <point x="1028" y="431"/>
      <point x="1041" y="492"/>
      <point x="1098" y="492" type="curve"/>
      <point x="1139" y="492"/>
      <point x="1171" y="460"/>
      <point x="1171" y="334" type="curve"/>
      <point x="1171" y="103" type="line" smooth="yes"/>
      <point x="1171" y="9"/>
      <point x="1202" y="-10"/>
      <point x="1253" y="-10" type="curve"/>
      <point x="1287" y="-10"/>
      <point x="1312" y="-2"/>
      <point x="1336" y="15" type="curve"/>
      <point x="1326" y="37"/>
      <point x="1317" y="103"/>
      <point x="1317" y="167" type="curve"/>
      <point x="1317" y="311" type="line" smooth="yes"/>
      <point x="1317" y="411"/>
      <point x="1333" y="491"/>
      <point x="1401" y="491" type="curve"/>
      <point x="1479" y="491"/>
      <point x="1493" y="382"/>
      <point x="1493" y="190" type="curve"/>
      <point x="1493" y="-85"/>
      <point x="1465" y="-144"/>
      <point x="1303" y="-144" type="curve"/>
      <point x="295" y="-144" type="line" smooth="yes"/>
      <point x="157" y="-144"/>
      <point x="91" y="-190"/>
      <point x="91" y="-265" type="curve"/>
      <point x="91" y="-300"/>
      <point x="105" y="-340"/>
    </contour>
    <contour>
      <point x="291" y="31" type="curve"/>
      <point x="251" y="31"/>
      <point x="231" y="70"/>
      <point x="231" y="136" type="curve"/>
      <point x="231" y="204"/>
      <point x="252" y="250"/>
      <point x="293" y="250" type="curve"/>
      <point x="336" y="250"/>
      <point x="350" y="201"/>
      <point x="350" y="141" type="curve"/>
      <point x="350" y="63"/>
      <point x="327" y="31"/>
    </contour>
    <contour>
      <point x="1510" y="548" type="move" name="imatra"/>
    </contour>
    <contour>
      <point x="1246" y="548" type="move" name="top"/>
    </contour>
  </outline>
</glyph>
<glyph name="iMatra-tamil" format="1">
  <advance width="336"/>
  <unicode hex="0BBF"/>
  <outline>
    <contour>
      <point x="177" y="-10" type="curve"/>
      <point x="211" y="-10"/>
      <point x="236" y="-2"/>
      <point x="260" y="15" type="curve"/>
      <point x="255" y="27"/>
      <point x="241" y="73"/>
      <point x="241" y="167" type="curve"/>
      <point x="241" y="438" type="line" smooth="yes"/>
      <point x="241" y="745"/>
      <point x="82" y="854"/>
      <point x="-114" y="854" type="curve"/>
      <point x="-273" y="854"/>
      <point x="-368" y="782"/>
      <point x="-368" y="676" type="curve"/>
      <point x="-368" y="584"/>
      <point x="-297" y="538"/>
      <point x="-204" y="517" type="curve"/>
      <point x="-192" y="514"/>
      <point x="-165" y="538"/>
      <point x="-169" y="548" type="curve"/>
      <point x="-208" y="560"/>
      <point x="-252" y="591"/>
      <point x="-252" y="677" type="curve"/>
      <point x="-252" y="753"/>
      <point x="-210" y="800"/>
      <point x="-123" y="800" type="curve"/>
      <point x="60" y="800"/>
      <point x="95" y="626"/>
      <point x="95" y="438" type="curve"/>
      <point x="95" y="103" type="line" smooth="yes"/>
      <point x="95" y="9"/>
      <point x="126" y="-10"/>
    </contour>
  </outline>
</glyph>
<glyph name="uMatra-tamil" format="1">
  <advance width="414"/>
  <unicode hex="0BC1"/>
  <outline>
    <contour>
      <point x="201" y="274" type="curve"/>
      <point x="264" y="274"/>
      <point x="354" y="303"/>
      <point x="354" y="406" type="curve"/>
      <point x="354" y="483"/>
      <point x="294" y="548"/>
      <point x="142" y="548" type="curve"/>
      <point x="-202" y="548" type="line"/>
      <point x="-202" y="500" type="line"/>
      <point x="118" y="500" type="line"/>
      <point x="82" y="479"/>
      <point x="67" y="440"/>
      <point x="67" y="399" type="curve"/>
      <point x="67" y="333"/>
      <point x="106" y="274"/>
    </contour>
    <contour>
      <point x="169" y="316" type="curve"/>
      <point x="140" y="316"/>
      <point x="115" y="345"/>
      <point x="115" y="396" type="curve"/>
      <point x="115" y="443"/>
      <point x="136" y="475"/>
      <point x="175" y="475" type="curve"/>
      <point x="211" y="475"/>
      <point x="227" y="445"/>
      <point x="227" y="399" type="curve"/>
      <point x="227" y="345"/>
      <point x="208" y="316"/>
    </contour>
  </outline>
</glyph>
<glyph name="aiMatra-tamil" format="1">
  <advance width="1289"/>
  <unicode hex="0BC8"/>
  <outline>
    <contour>
      <point x="1013" y="-15" type="curve"/>
      <point x="1133" y="-15"/>
      <point x="1239" y="76"/>
      <point x="1239" y="242" type="curve"/>
      <point x="1239" y="437"/>
      <point x="1095" y="563"/>
      <point x="904" y="563" type="curve"/>
      <point x="712" y="563"/>
      <point x="563" y="437"/>
      <point x="563" y="200" type="curve"/>
      <point x="563" y="50"/>
      <point x="622" y="-15"/>
      <point x="727" y="-15" type="curve"/>
      <point x="850" y="-15"/>
      <point x="914" y="79"/>
      <point x="914" y="209" type="curve"/>
      <point x="914" y="425"/>
      <point x="741" y="563"/>
      <point x="461" y="563" type="curve"/>
      <point x="211" y="563"/>
      <point x="45" y="454"/>
      <point x="45" y="235" type="curve"/>
      <point x="45" y="57"/>
      <point x="156" y="-15"/>
      <point x="290" y="-15" type="curve"/>
      <point x="399" y="-15"/>
      <point x="499" y="32"/>
      <point x="499" y="164" type="curve"/>
      <point x="499" y="262"/>
      <point x="446" y="344"/>
      <point x="329" y="344" type="curve"/>
      <point x="226" y="344"/>
      <point x="173" y="280"/>
      <point x="173" y="170" type="curve"/>
      <point x="173" y="120"/>
      <point x="185" y="70"/>
      <point x="217" y="31" type="curve"/>
      <point x="159" y="43"/>
      <point x="108" y="107"/>
      <point x="108" y="225" type="curve"/>
      <point x="108" y="446"/>
      <point x="279" y="512"/>
      <point x="450" y="512" type="curve"/>
      <point x="606" y="512"/>
      <point x="764" y="457"/>
      <point x="764" y="200" type="curve"/>
      <point x="764" y="132"/>
      <point x="752" y="74"/>
      <point x="690" y="74" type="curve"/>
      <point x="651" y="74"/>
      <point x="618" y="96"/>
      <point x="618" y="206" type="curve"/>
      <point x="618" y="463"/>
      <point x="794" y="514"/>
      <point x="885" y="514" type="curve"/>
      <point x="989" y="514"/>
      <point x="1096" y="449"/>
      <point x="1096" y="238" type="curve"/>
      <point x="1096" y="122"/>
      <point x="1063" y="38"/>
      <point x="984" y="13" type="curve"/>
      <point x="988" y="-2"/>
      <point x="1000" y="-15"/>
    </contour>
    <contour>
      <point x="290" y="31" type="curve"/>
      <point x="250" y="31"/>
      <point x="230" y="77"/>
      <point x="230" y="153" type="curve"/>
      <point x="230" y="233"/>
      <point x="251" y="287"/>
      <point x="292" y="287" type="curve"/>
      <point x="335" y="287"/>
      <point x="349" y="229"/>
      <point x="349" y="158" type="curve"/>
      <point x="349" y="69"/>
      <point x="326" y="31"/>
    </contour>
  </outline>
</glyph>
<glyph name="oMatra-tamil" format="1">
  <advance width="2164"/>
  <unicode hex="0BCA"/>
  <outline>
    <contour>
      <point x="978" y="61" type="curve"/>
      <point x="994" y="61"/>
      <point x="1006" y="73"/>
      <point x="1006" y="89" type="curve"/>
      <point x="1006" y="105"/>
      <point x="994" y="117"/>
      <point x="978" y="117" type="curve"/>
      <point x="963" y="117"/>
      <point x="951" y="105"/>
      <point x="951" y="89" type="curve"/>
      <point x="951" y="73"/>
      <point x="963" y="61"/>
    </contour>
    <contour>
      <point x="923" y="144" type="curve"/>
      <point x="939" y="144"/>
      <point x="951" y="156"/>
      <point x="951" y="172" type="curve"/>
      <point x="951" y="188"/>
      <point x="939" y="200"/>
      <point x="923" y="200" type="curve"/>
      <point x="908" y="200"/>
      <point x="896" y="188"/>
      <point x="896" y="172" type="curve"/>
      <point x="896" y="156"/>
      <point x="908" y="144"/>
    </contour>
    <contour>
      <point x="1063" y="4" type="curve"/>
      <point x="1079" y="4"/>
      <point x="1091" y="16"/>
      <point x="1091" y="32" type="curve"/>
      <point x="1091" y="48"/>
      <point x="1079" y="60"/>
      <point x="1063" y="60" type="curve"/>
      <point x="1048" y="60"/>
      <point x="1036" y="48"/>
      <point x="1036" y="32" type="curve"/>
      <point x="1036" y="16"/>
      <point x="1048" y="4"/>
    </contour>
    <contour>
      <point x="902" y="242" type="curve"/>
      <point x="918" y="242"/>
      <point x="930" y="254"/>
      <point x="930" y="270" type="curve"/>
      <point x="930" y="286"/>
      <point x="918" y="298"/>
      <point x="902" y="298" type="curve"/>
      <point x="887" y="298"/>
      <point x="875" y="286"/>
      <point x="875" y="270" type="curve"/>
      <point x="875" y="254"/>
      <point x="887" y="242"/>
    </contour>
    <contour>
      <point x="1161" y="-15" type="curve"/>
      <point x="1176" y="-15"/>
      <point x="1188" y="-3"/>
      <point x="1188" y="13" type="curve"/>
      <point x="1188" y="29"/>
      <point x="1176" y="41"/>
      <point x="1161" y="41" type="curve"/>
      <point x="1145" y="41"/>
      <point x="1133" y="29"/>
      <point x="1133" y="13" type="curve"/>
      <point x="1133" y="-3"/>
      <point x="1145" y="-15"/>
    </contour>
    <contour>
      <point x="1259" y="4" type="curve"/>
      <point x="1274" y="4"/>
      <point x="1286" y="16"/>
      <point x="1286" y="32" type="curve"/>
      <point x="1286" y="48"/>
      <point x="1274" y="60"/>
      <point x="1259" y="60" type="curve"/>
      <point x="1243" y="60"/>
      <point x="1231" y="48"/>
      <point x="1231" y="32" type="curve"/>
      <point x="1231" y="16"/>
      <point x="1243" y="4"/>
    </contour>
    <contour>
      <point x="921" y="342" type="curve"/>
      <point x="937" y="342"/>
      <point x="949" y="354"/>
      <point x="949" y="370" type="curve"/>
      <point x="949" y="386"/>
      <point x="937" y="398"/>
      <point x="921" y="398" type="curve"/>
      <point x="906" y="398"/>
      <point x="894" y="386"/>
      <point x="894" y="370" type="curve"/>
      <point x="894" y="354"/>
      <point x="906" y="342"/>
    </contour>
    <contour>
      <point x="1344" y="61" type="curve"/>
      <point x="1359" y="61"/>
      <point x="1371" y="73"/>
      <point x="1371" y="89" type="curve"/>
      <point x="1371" y="105"/>
      <point x="1359" y="117"/>
      <point x="1344" y="117" type="curve"/>
      <point x="1328" y="117"/>
      <point x="1316" y="105"/>
      <point x="1316" y="89" type="curve"/>
      <point x="1316" y="73"/>
      <point x="1328" y="61"/>
    </contour>
    <contour>
      <point x="978" y="426" type="curve"/>
      <point x="994" y="426"/>
      <point x="1006" y="438"/>
      <point x="1006" y="454" type="curve"/>
      <point x="1006" y="470"/>
      <point x="994" y="482"/>
      <point x="978" y="482" type="curve"/>
      <point x="963" y="482"/>
      <point x="951" y="470"/>
      <point x="951" y="454" type="curve"/>
      <point x="951" y="438"/>
      <point x="963" y="426"/>
    </contour>
    <contour>
      <point x="1399" y="144" type="curve"/>
      <point x="1414" y="144"/>
      <point x="1426" y="156"/>
      <point x="1426" y="172" type="curve"/>
      <point x="1426" y="188"/>
      <point x="1414" y="200"/>
      <point x="1399" y="200" type="curve"/>
      <point x="1383" y="200"/>
      <point x="1371" y="188"/>
      <point x="1371" y="172" type="curve"/>
      <point x="1371" y="156"/>
      <point x="1383" y="144"/>
    </contour>
    <contour>
      <point x="1061" y="482" type="curve"/>
      <point x="1077" y="482"/>
      <point x="1089" y="494"/>
      <point x="1089" y="510" type="curve"/>
      <point x="1089" y="526"/>
      <point x="1077" y="538"/>
      <point x="1061" y="538" type="curve"/>
      <point x="1046" y="538"/>
      <point x="1034" y="526"/>
      <point x="1034" y="510" type="curve"/>
      <point x="1034" y="494"/>
      <point x="1046" y="482"/>
    </contour>
    <contour>
      <point x="1161" y="501" type="curve"/>
      <point x="1176" y="501"/>
      <point x="1188" y="513"/>
      <point x="1188" y="529" type="curve"/>
      <point x="1188" y="545"/>
      <point x="1176" y="557"/>
      <point x="1161" y="557" type="curve"/>
      <point x="1145" y="557"/>
      <point x="1133" y="545"/>
      <point x="1133" y="529" type="curve"/>
      <point x="1133" y="513"/>
      <point x="1145" y="501"/>
    </contour>
    <contour>
      <point x="1420" y="242" type="curve"/>
      <point x="1435" y="242"/>
      <point x="1447" y="254"/>
      <point x="1447" y="270" type="curve"/>
      <point x="1447" y="286"/>
      <point x="1435" y="298"/>
      <point x="1420" y="298" type="curve"/>
      <point x="1404" y="298"/>
      <point x="1392" y="286"/>
      <point x="1392" y="270" type="curve"/>
      <point x="1392" y="254"/>
      <point x="1404" y="242"/>
    </contour>
    <contour>
      <point x="1261" y="482" type="curve"/>
      <point x="1276" y="482"/>
      <point x="1288" y="494"/>
      <point x="1288" y="510" type="curve"/>
      <point x="1288" y="526"/>
      <point x="1276" y="538"/>
      <point x="1261" y="538" type="curve"/>
      <point x="1245" y="538"/>
      <point x="1233" y="526"/>
      <point x="1233" y="510" type="curve"/>
      <point x="1233" y="494"/>
      <point x="1245" y="482"/>
    </contour>
    <contour>
      <point x="1401" y="342" type="curve"/>
      <point x="1416" y="342"/>
      <point x="1428" y="354"/>
      <point x="1428" y="370" type="curve"/>
      <point x="1428" y="386"/>
      <point x="1416" y="398"/>
      <point x="1401" y="398" type="curve"/>
      <point x="1385" y="398"/>
      <point x="1373" y="386"/>
      <point x="1373" y="370" type="curve"/>
      <point x="1373" y="354"/>
      <point x="1385" y="342"/>
    </contour>
    <contour>
      <point x="1344" y="426" type="curve"/>
      <point x="1359" y="426"/>
      <point x="1371" y="438"/>
      <point x="1371" y="454" type="curve"/>
      <point x="1371" y="470"/>
      <point x="1359" y="482"/>
      <point x="1344" y="482" type="curve"/>
      <point x="1328" y="482"/>
      <point x="1316" y="470"/>
      <point x="1316" y="454" type="curve"/>
      <point x="1316" y="438"/>
      <point x="1328" y="426"/>
    </contour>
    <component base="aaMatra-tamil" xOffset="1480"/>
    <component base="eMatra-tamil"/>
  </outline>
</glyph>
<glyph name="om-tamil" format="1">
  <advance width="813"/>
  <unicode hex="0BD0"/>
  <outline>
    <contour>
      <point x="312" y="-189" type="curve"/>
      <point x="483" y="-189"/>
      <point x="628" y="-90"/>
      <point x="703" y="71" type="curve"/>
      <point x="692" y="79" type="line"/>
      <point x="652" y="63"/>
      <point x="614" y="63"/>
      <point x="593" y="63" type="curve"/>
      <point x="506" y="63"/>
      <point x="435" y="109"/>
      <point x="435" y="208" type="curve"/>
      <point x="435" y="280"/>
      <point x="473" y="317"/>
      <point x="492" y="323" type="curve"/>
      <point x="479" y="310"/>
      <point x="471" y="281"/>
      <point x="471" y="256" type="curve"/>
      <point x="471" y="192"/>
      <point x="522" y="145"/>
      <point x="606" y="145" type="curve"/>
      <point x="713" y="145"/>
      <point x="773" y="221"/>
      <point x="773" y="316" type="curve"/>
      <point x="773" y="488"/>
      <point x="576" y="563"/>
      <point x="383" y="563" type="curve"/>
      <point x="127" y="563"/>
      <point x="35" y="430"/>
      <point x="35" y="298" type="curve"/>
      <point x="35" y="221"/>
      <point x="66" y="164"/>
      <point x="163" y="164" type="curve"/>
      <point x="246" y="164"/>
      <point x="295" y="205"/>
      <point x="295" y="269" type="curve"/>
      <point x="295" y="326"/>
      <point x="255" y="366"/>
      <point x="172" y="366" type="curve"/>
      <point x="140" y="366"/>
      <point x="104" y="360"/>
      <point x="78" y="332" type="curve"/>
      <point x="87" y="276" type="line"/>
      <point x="87" y="412"/>
      <point x="185" y="502"/>
      <point x="365" y="502" type="curve"/>
      <point x="505" y="502"/>
      <point x="623" y="449"/>
      <point x="623" y="313" type="curve"/>
      <point x="623" y="259"/>
      <point x="606" y="215"/>
      <point x="574" y="215" type="curve"/>
      <point x="556" y="215"/>
      <point x="535" y="228"/>
      <point x="535" y="277" type="curve"/>
      <point x="535" y="295"/>
      <point x="538" y="331"/>
      <point x="552" y="343" type="curve"/>
      <point x="543" y="359" type="line"/>
      <point x="466" y="359"/>
      <point x="336" y="295"/>
      <point x="336" y="153" type="curve"/>
      <point x="336" y="28"/>
      <point x="438" y="-38"/>
      <point x="544" y="-38" type="curve"/>
      <point x="557" y="-38"/>
      <point x="572" y="-37"/>
      <point x="587" y="-34" type="curve"/>
      <point x="557" y="-76"/>
      <point x="471" y="-127"/>
      <point x="334" y="-127" type="curve"/>
      <point x="192" y="-127"/>
      <point x="169" y="-72"/>
      <point x="169" y="6" type="curve"/>
      <point x="169" y="42"/>
      <point x="174" y="64"/>
      <point x="185" y="86" type="curve"/>
      <point x="178" y="97"/>
      <point x="168" y="103"/>
      <point x="152" y="103" type="curve"/>
      <point x="119" y="103"/>
      <point x="65" y="75"/>
      <point x="65" y="-4" type="curve"/>
      <point x="65" y="-106"/>
      <point x="156" y="-189"/>
    </contour>
    <contour>
      <point x="231" y="-76" type="curve"/>
      <point x="336" y="-76" type="line" smooth="yes"/>
      <point x="379" y="-76"/>
      <point x="379" y="-41"/>
      <point x="379" y="-23" type="curve"/>
      <point x="379" y="10"/>
      <point x="368" y="45"/>
      <point x="326" y="45" type="curve"/>
      <point x="306" y="45"/>
      <point x="285" y="37"/>
      <point x="285" y="7" type="curve"/>
      <point x="285" y="-54" type="line"/>
      <point x="253" y="-54" type="line"/>
      <point x="253" y="38" type="line" smooth="yes"/>
      <point x="253" y="41"/>
      <point x="247" y="43"/>
      <point x="236" y="43" type="curve"/>
      <point x="228" y="43"/>
      <point x="224" y="42"/>
      <point x="218" y="41" type="curve"/>
      <point x="220" y="37"/>
      <point x="220" y="31"/>
      <point x="220" y="26" type="curve"/>
      <point x="220" y="-61" type="line" smooth="yes"/>
      <point x="220" y="-69"/>
      <point x="218" y="-76"/>
    </contour>
    <contour>
      <point x="334" y="-54" type="curve"/>
      <point x="319" y="-54" type="line"/>
      <point x="319" y="9" type="line" smooth="yes"/>
      <point x="319" y="21"/>
      <point x="324" y="23"/>
      <point x="328" y="23" type="curve"/>
      <point x="339" y="23"/>
      <point x="345" y="6"/>
      <point x="345" y="-24" type="curve"/>
      <point x="345" y="-41"/>
      <point x="343" y="-54"/>
    </contour>
    <contour>
      <point x="282" y="58" type="curve"/>
      <point x="290" y="58"/>
      <point x="296" y="64"/>
      <point x="296" y="72" type="curve"/>
      <point x="296" y="80"/>
      <point x="290" y="86"/>
      <point x="282" y="86" type="curve"/>
      <point x="274" y="86"/>
      <point x="268" y="80"/>
      <point x="268" y="72" type="curve"/>
      <point x="268" y="64"/>
      <point x="274" y="58"/>
    </contour>
    <contour>
      <point x="141" y="202" type="curve"/>
      <point x="107" y="202"/>
      <point x="98" y="233"/>
      <point x="98" y="263" type="curve"/>
      <point x="98" y="300"/>
      <point x="112" y="327"/>
      <point x="142" y="327" type="curve"/>
      <point x="177" y="327"/>
      <point x="185" y="292"/>
      <point x="185" y="265" type="curve"/>
      <point x="185" y="242"/>
      <point x="179" y="202"/>
    </contour>
  </outline>
</glyph>
<glyph name="five-tamil" format="1">
  <advance width="1130"/>
  <unicode hex="0BEB"/>
  <outline>
    <contour>
      <point x="592" y="-200" type="curve"/>
      <point x="839" y="-200"/>
      <point x="1079" y="-104"/>
      <point x="1079" y="194" type="curve"/>
      <point x="1079" y="299"/>
      <point x="1051" y="417"/>
      <point x="915" y="417" type="curve"/>
      <point x="774" y="417"/>
      <point x="746" y="289"/>
      <point x="735" y="213" type="curve"/>
      <point x="763" y="151" type="line"/>
      <point x="765" y="219"/>
      <point x="788" y="322"/>
      <point x="863" y="322" type="curve"/>
      <point x="901" y="322"/>
      <point x="929" y="297"/>
      <point x="929" y="187" type="curve"/>
      <point x="929" y="-88"/>
      <point x="753" y="-149"/>
      <point x="597" y="-149" type="curve"/>
      <point x="324" y="-149"/>
      <point x="184" y="-17"/>
      <point x="184" y="257" type="curve"/>
      <point x="184" y="559"/>
      <point x="305" y="716"/>
      <point x="590" y="716" type="curve"/>
      <point x="705" y="716"/>
      <point x="786" y="703"/>
      <point x="907" y="612" type="curve"/>
      <point x="917" y="612"/>
      <point x="947" y="622"/>
      <point x="947" y="649" type="curve"/>
      <point x="920" y="681"/>
      <point x="784" y="764"/>
      <point x="592" y="764" type="curve"/>
      <point x="236" y="765"/>
      <point x="45" y="590"/>
      <point x="45" y="257" type="curve"/>
      <point x="45" y="-4"/>
      <point x="224" y="-200"/>
    </contour>
    <contour>
      <point x="333" y="509" type="line"/>
      <point x="333" y="0" type="line"/>
      <point x="387" y="0" type="line"/>
      <point x="387" y="515" type="line"/>
    </contour>
    <contour>
      <point x="697" y="-10" type="curve"/>
      <point x="730" y="-10"/>
      <point x="758" y="-2"/>
      <point x="782" y="15" type="curve"/>
      <point x="769" y="49"/>
      <point x="763" y="107"/>
      <point x="763" y="183" type="curve"/>
      <point x="763" y="514" type="line"/>
      <point x="617" y="508" type="line"/>
      <point x="617" y="103" type="line" smooth="yes"/>
      <point x="617" y="9"/>
      <point x="648" y="-10"/>
    </contour>
    <contour>
      <point x="333" y="548" type="line"/>
      <point x="333" y="500" type="line"/>
      <point x="877" y="500" type="line" smooth="yes"/>
      <point x="904" y="500"/>
      <point x="923" y="501"/>
      <point x="923" y="527" type="curve"/>
      <point x="923" y="533"/>
      <point x="922" y="540"/>
      <point x="920" y="548" type="curve"/>
    </contour>
  </outline>
</glyph>
<glyph name="six-tamil" format="1">
  <advance width="1248"/>
  <unicode hex="0BEC"/>
  <outline>
    <contour>
      <point x="266" y="-15" type="curve"/>
      <point x="406" y="-15"/>
      <point x="531" y="69"/>
      <point x="531" y="240" type="curve"/>
      <point x="531" y="532" type="line"/>
      <point x="385" y="531" type="line"/>
      <point x="385" y="230" type="line" smooth="yes"/>
      <point x="385" y="147"/>
      <point x="362" y="55"/>
      <point x="245" y="55" type="curve"/>
      <point x="171" y="55"/>
      <point x="112" y="91"/>
      <point x="112" y="173" type="curve"/>
      <point x="112" y="240"/>
      <point x="150" y="296"/>
      <point x="260" y="296" type="curve"/>
      <point x="555" y="296" type="line" smooth="yes"/>
      <point x="648" y="296"/>
      <point x="664" y="215"/>
      <point x="664" y="151" type="curve"/>
      <point x="664" y="115"/>
      <point x="659" y="85"/>
      <point x="653" y="62" type="curve"/>
      <point x="647" y="39"/>
      <point x="640" y="23"/>
      <point x="637" y="15" type="curve"/>
      <point x="661" y="-2"/>
      <point x="686" y="-10"/>
      <point x="720" y="-10" type="curve"/>
      <point x="772" y="-10"/>
      <point x="805" y="9"/>
      <point x="805" y="103" type="curve"/>
      <point x="805" y="127"/>
      <point x="805" y="152"/>
      <point x="805" y="176" type="curve"/>
      <point x="805" y="243"/>
      <point x="743" y="344"/>
      <point x="594" y="344" type="curve"/>
      <point x="239" y="344" type="line" smooth="yes"/>
      <point x="110" y="344"/>
      <point x="50" y="266"/>
      <point x="50" y="173" type="curve"/>
      <point x="50" y="70"/>
      <point x="126" y="-15"/>
    </contour>
    <contour>
      <point x="165" y="507" type="curve"/>
      <point x="165" y="301" type="line"/>
      <point x="209" y="306" type="line"/>
      <point x="209" y="482" type="line" smooth="yes"/>
      <point x="209" y="496"/>
      <point x="217" y="499"/>
      <point x="226" y="499" type="curve"/>
      <point x="645" y="500" type="line" smooth="yes"/>
      <point x="672" y="500"/>
      <point x="694" y="501"/>
      <point x="694" y="527" type="curve"/>
      <point x="694" y="533"/>
      <point x="693" y="540"/>
      <point x="689" y="548" type="curve"/>
      <point x="203" y="548" type="line" smooth="yes"/>
      <point x="179" y="548"/>
      <point x="165" y="537"/>
    </contour>
    <contour>
      <point x="912" y="43" type="line"/>
      <point x="912" y="0" type="line"/>
      <point x="1238" y="0" type="line"/>
      <point x="1238" y="43" type="line"/>
    </contour>
    <contour>
      <point x="912" y="43" type="curve"/>
      <point x="1000" y="27" type="line"/>
      <point x="1103" y="21"/>
      <point x="1158" y="115"/>
      <point x="1158" y="197" type="curve"/>
      <point x="1158" y="297"/>
      <point x="1076" y="350"/>
      <point x="961" y="350" type="curve"/>
      <point x="784" y="350"/>
      <point x="744" y="224"/>
      <point x="744" y="133" type="curve"/>
      <point x="805" y="103" type="line"/>
      <point x="805" y="213"/>
      <point x="833" y="296"/>
      <point x="921" y="302" type="curve"/>
      <point x="966" y="305"/>
      <point x="1008" y="287"/>
      <point x="1008" y="196" type="curve"/>
      <point x="1008" y="141"/>
      <point x="993" y="69"/>
    </contour>
  </outline>
</glyph>
<glyph name="eight-tamil" format="1">
  <advance width="1137"/>
  <unicode hex="0BEE"/>
  <outline>
    <contour>
      <point x="565" y="155" type="curve"/>
      <point x="565" y="192" type="line"/>
      <point x="396" y="192"/>
      <point x="380" y="310"/>
      <point x="380" y="366" type="curve"/>
      <point x="380" y="470"/>
      <point x="463" y="495"/>
      <point x="505" y="495" type="curve"/>
      <point x="590" y="495"/>
      <point x="646" y="436"/>
      <point x="646" y="289" type="curve"/>
      <point x="646" y="71"/>
      <point x="482" y="-11"/>
      <point x="297" y="-11" type="curve"/>
      <point x="169" y="-11"/>
      <point x="107" y="23"/>
      <point x="107" y="77" type="curve"/>
      <point x="107" y="134"/>
      <point x="175" y="144"/>
      <point x="326" y="144" type="curve"/>
      <point x="952" y="144" type="line"/>
      <point x="943" y="192" type="line"/>
      <point x="306" y="192" type="line" smooth="yes"/>
      <point x="107" y="192"/>
      <point x="30" y="159"/>
      <point x="30" y="77" type="curve"/>
      <point x="30" y="-2"/>
      <point x="101" y="-80"/>
      <point x="312" y="-80" type="curve"/>
      <point x="544" y="-80"/>
      <point x="797" y="23"/>
      <point x="797" y="308" type="curve"/>
      <point x="797" y="515"/>
      <point x="668" y="563"/>
      <point x="556" y="563" type="curve"/>
      <point x="381" y="563"/>
      <point x="310" y="469"/>
      <point x="310" y="365" type="curve"/>
      <point x="310" y="269"/>
      <point x="379" y="155"/>
    </contour>
    <contour>
      <point x="986" y="-109" type="curve"/>
      <point x="1017" y="-109"/>
      <point x="1043" y="-101"/>
      <point x="1067" y="-84" type="curve"/>
      <point x="1048" y="-81"/>
      <point x="1052" y="-66"/>
      <point x="1052" y="183" type="curve"/>
      <point x="1052" y="482" type="line" smooth="yes"/>
      <point x="1052" y="533"/>
      <point x="1020" y="558"/>
      <point x="984" y="562" type="curve"/>
      <point x="935" y="568"/>
      <point x="895" y="536"/>
      <point x="886" y="528" type="curve"/>
      <point x="904" y="463"/>
      <point x="906" y="378"/>
      <point x="906" y="366" type="curve"/>
      <point x="906" y="-1" type="line" smooth="yes"/>
      <point x="906" y="-90"/>
      <point x="937" y="-109"/>
    </contour>
  </outline>
</glyph>
<glyph name="ten-tamil" format="1">
  <advance width="910"/>
  <unicode hex="0BF0"/>
  <outline>
    <contour>
      <point x="224" y="211" type="curve"/>
      <point x="224" y="548" type="line"/>
      <point x="78" y="548" type="line"/>
      <point x="78" y="205" type="line" smooth="yes"/>
      <point x="78" y="102"/>
      <point x="107" y="-15"/>
      <point x="282" y="-15" type="curve"/>
      <point x="377" y="-18"/>
      <point x="452" y="38"/>
      <point x="465" y="143" type="curve"/>
      <point x="487" y="32"/>
      <point x="531" y="-18"/>
      <point x="633" y="-15" type="curve"/>
      <point x="814" y="-15"/>
      <point x="850" y="114"/>
      <point x="850" y="316" type="curve"/>
      <point x="850" y="580"/>
      <point x="699" y="674"/>
      <point x="509" y="728" type="curve"/>
      <point x="492" y="733"/>
      <point x="475" y="738"/>
      <point x="459" y="748" type="curve"/>
      <point x="442" y="727"/>
      <point x="447" y="698"/>
      <point x="484" y="682" type="curve"/>
      <point x="605" y="626"/>
      <point x="700" y="571"/>
      <point x="700" y="338" type="curve"/>
      <point x="700" y="158"/>
      <point x="688" y="57"/>
      <point x="620" y="57" type="curve"/>
      <point x="552" y="57"/>
      <point x="536" y="136"/>
      <point x="536" y="234" type="curve"/>
      <point x="536" y="372" type="line" smooth="yes"/>
      <point x="536" y="436"/>
      <point x="545" y="502"/>
      <point x="555" y="524" type="curve"/>
      <point x="531" y="541"/>
      <point x="506" y="549"/>
      <point x="472" y="549" type="curve"/>
      <point x="421" y="549"/>
      <point x="390" y="530"/>
      <point x="390" y="436" type="curve"/>
      <point x="390" y="211" type="line" smooth="yes"/>
      <point x="390" y="88"/>
      <point x="358" y="56"/>
      <point x="306" y="56" type="curve"/>
      <point x="235" y="56"/>
      <point x="225" y="115"/>
    </contour>
  </outline>
</glyph>
<glyph name="onehundred-tamil" format="1">
  <advance width="979"/>
  <unicode hex="0BF1"/>
  <outline>
    <contour>
      <point x="154" y="-5" type="curve"/>
      <point x="212" y="-5"/>
      <point x="231" y="22"/>
      <point x="231" y="61" type="curve"/>
      <point x="231" y="353" type="line" smooth="yes"/>
      <point x="231" y="443"/>
      <point x="240" y="488"/>
      <point x="313" y="488" type="curve"/>
      <point x="375" y="488"/>
      <point x="407" y="456"/>
      <point x="442" y="397" type="curve"/>
      <point x="465" y="447" type="line"/>
      <point x="404" y="546"/>
      <point x="335" y="565"/>
      <point x="264" y="565" type="curve"/>
      <point x="144" y="565"/>
      <point x="85" y="512"/>
      <point x="85" y="385" type="curve"/>
      <point x="85" y="70" type="line" smooth="yes"/>
      <point x="85" y="50"/>
      <point x="85" y="22"/>
      <point x="78" y="4" type="curve"/>
      <point x="99" y="-2"/>
      <point x="134" y="-5"/>
    </contour>
    <contour>
      <point x="419" y="509" type="line"/>
      <point x="419" y="0" type="line"/>
      <point x="565" y="0" type="line"/>
      <point x="565" y="515" type="line"/>
    </contour>
    <contour>
      <point x="777" y="-10" type="curve"/>
      <point x="808" y="-10"/>
      <point x="836" y="-2"/>
      <point x="860" y="15" type="curve"/>
      <point x="849" y="45"/>
      <point x="841" y="72"/>
      <point x="841" y="158" type="curve"/>
      <point x="841" y="515" type="line"/>
      <point x="695" y="509" type="line"/>
      <point x="695" y="94" type="line" smooth="yes"/>
      <point x="695" y="9"/>
      <point x="726" y="-10"/>
    </contour>
    <contour>
      <point x="419" y="501" type="line"/>
      <point x="927" y="500" type="line"/>
      <point x="954" y="500"/>
      <point x="976" y="500"/>
      <point x="976" y="525" type="curve"/>
      <point x="976" y="531"/>
      <point x="974" y="538"/>
      <point x="972" y="547" type="curve"/>
      <point x="419" y="548" type="line"/>
    </contour>
  </outline>
</glyph>
<glyph name="debit-tamil" format="1">
  <advance width="1056"/>
  <unicode hex="0BF6"/>
  <outline>
    <contour>
      <point x="311" y="-371" type="curve"/>
      <point x="549" y="-371"/>
      <point x="641" y="-180"/>
      <point x="642" y="44" type="curve"/>
      <point x="644" y="482" type="line" smooth="yes"/>
      <point x="644" y="527"/>
      <point x="623" y="548"/>
      <point x="560" y="548" type="curve"/>
      <point x="551" y="548"/>
      <point x="512" y="545"/>
      <point x="491" y="539" type="curve"/>
      <point x="498" y="521"/>
      <point x="498" y="493"/>
      <point x="498" y="473" type="curve"/>
      <point x="498" y="48" type="line"/>
      <point x="231" y="48" type="line"/>
      <point x="231" y="482" type="line" smooth="yes"/>
      <point x="231" y="527"/>
      <point x="210" y="548"/>
      <point x="147" y="548" type="curve"/>
      <point x="138" y="548"/>
      <point x="99" y="545"/>
      <point x="78" y="539" type="curve"/>
      <point x="85" y="521"/>
      <point x="85" y="493"/>
      <point x="85" y="473" type="curve"/>
      <point x="85" y="39" type="line" smooth="yes"/>
      <point x="85" y="18"/>
      <point x="95" y="0"/>
      <point x="124" y="0" type="curve"/>
      <point x="494" y="0" type="line"/>
      <point x="494" y="-127"/>
      <point x="497" y="-301"/>
      <point x="316" y="-301" type="curve"/>
      <point x="223" y="-301"/>
      <point x="162" y="-273"/>
      <point x="162" y="-219" type="curve"/>
      <point x="162" y="-162"/>
      <point x="230" y="-152"/>
      <point x="333" y="-152" type="curve"/>
      <point x="948" y="-152" type="line" smooth="yes"/>
      <point x="961" y="-152"/>
      <point x="971" y="-142"/>
      <point x="971" y="-129" type="curve"/>
      <point x="971" y="482" type="line" smooth="yes"/>
      <point x="971" y="527"/>
      <point x="950" y="548"/>
      <point x="887" y="548" type="curve"/>
      <point x="878" y="548"/>
      <point x="839" y="545"/>
      <point x="818" y="539" type="curve"/>
      <point x="825" y="521"/>
      <point x="825" y="493"/>
      <point x="825" y="473" type="curve"/>
      <point x="825" y="-104" type="line"/>
      <point x="310" y="-104" type="line" smooth="yes"/>
      <point x="162" y="-104"/>
      <point x="85" y="-137"/>
      <point x="85" y="-219" type="curve"/>
      <point x="85" y="-298"/>
      <point x="156" y="-371"/>
    </contour>
  </outline>
</glyph>
<glyph name="credit-tamil" format="1">
  <advance width="1668"/>
  <unicode hex="0BF7"/>
  <outline>
    <contour>
      <point x="859" y="548" type="curve"/>
      <point x="450" y="548" type="line" smooth="yes"/>
      <point x="211" y="548"/>
      <point x="40" y="466"/>
      <point x="40" y="239" type="curve"/>
      <point x="40" y="54"/>
      <point x="156" y="-15"/>
      <point x="287" y="-15" type="curve"/>
      <point x="395" y="-15"/>
      <point x="495" y="32"/>
      <point x="495" y="168" type="curve"/>
      <point x="495" y="265"/>
      <point x="443" y="347"/>
      <point x="323" y="347" type="curve"/>
      <point x="223" y="347"/>
      <point x="169" y="291"/>
      <point x="169" y="170" type="curve"/>
      <point x="169" y="126"/>
      <point x="176" y="75"/>
      <point x="212" y="32" type="curve"/>
      <point x="154" y="44"/>
      <point x="104" y="106"/>
      <point x="104" y="225" type="curve"/>
      <point x="104" y="448"/>
      <point x="276" y="500"/>
      <point x="436" y="500" type="curve"/>
      <point x="813" y="500" type="line" smooth="yes"/>
      <point x="840" y="500"/>
      <point x="862" y="501"/>
      <point x="862" y="527" type="curve"/>
      <point x="862" y="533"/>
      <point x="861" y="540"/>
    </contour>
    <contour>
      <point x="286" y="31" type="curve"/>
      <point x="246" y="31"/>
      <point x="226" y="77"/>
      <point x="226" y="156" type="curve"/>
      <point x="226" y="236"/>
      <point x="247" y="290"/>
      <point x="288" y="290" type="curve"/>
      <point x="331" y="290"/>
      <point x="345" y="232"/>
      <point x="345" y="161" type="curve"/>
      <point x="345" y="69"/>
      <point x="322" y="31"/>
    </contour>
    <contour>
      <point x="658" y="-10" type="curve"/>
      <point x="690" y="-10"/>
      <point x="718" y="-2"/>
      <point x="742" y="15" type="curve"/>
      <point x="731" y="45"/>
      <point x="723" y="72"/>
      <point x="723" y="167" type="curve"/>
      <point x="723" y="515" type="line"/>
      <point x="577" y="509" type="line"/>
      <point x="577" y="103" type="line" smooth="yes"/>
      <point x="577" y="9"/>
      <point x="608" y="-10"/>
    </contour>
    <contour>
      <point x="955" y="-15" type="curve"/>
      <point x="1034" y="-15"/>
      <point x="1105" y="16"/>
      <point x="1105" y="104" type="curve"/>
      <point x="1105" y="167"/>
      <point x="1045" y="220"/>
      <point x="936" y="220" type="curve"/>
      <point x="803" y="220"/>
      <point x="723" y="115"/>
      <point x="703" y="24" type="curve"/>
      <point x="742" y="15" type="line"/>
      <point x="769" y="105"/>
      <point x="840" y="178"/>
      <point x="910" y="178" type="curve"/>
      <point x="961" y="178"/>
      <point x="979" y="138"/>
      <point x="979" y="91" type="curve"/>
      <point x="979" y="47"/>
      <point x="961" y="25"/>
      <point x="930" y="25" type="curve"/>
      <point x="888" y="25"/>
      <point x="858" y="66"/>
      <point x="858" y="143" type="curve"/>
      <point x="858" y="290"/>
      <point x="965" y="330"/>
      <point x="1049" y="330" type="curve"/>
      <point x="1159" y="330"/>
      <point x="1207" y="260"/>
      <point x="1207" y="174" type="curve"/>
      <point x="1207" y="113"/>
      <point x="1184" y="51"/>
      <point x="1137" y="20" type="curve"/>
      <point x="1137" y="-6" type="line"/>
      <point x="1578" y="-6" type="line"/>
      <point x="1578" y="336" type="line" smooth="yes"/>
      <point x="1578" y="365"/>
      <point x="1565" y="381"/>
      <point x="1506" y="381" type="curve"/>
      <point x="1485" y="381"/>
      <point x="1456" y="379"/>
      <point x="1436" y="375" type="curve"/>
      <point x="1441" y="362"/>
      <point x="1441" y="343"/>
      <point x="1441" y="330" type="curve"/>
      <point x="1440" y="27" type="line"/>
      <point x="1268" y="27" type="line"/>
      <point x="1312" y="63"/>
      <point x="1345" y="110"/>
      <point x="1345" y="177" type="curve"/>
      <point x="1345" y="316"/>
      <point x="1226" y="381"/>
      <point x="1081" y="381" type="curve"/>
      <point x="928" y="381"/>
      <point x="807" y="316"/>
      <point x="807" y="156" type="curve"/>
      <point x="807" y="32"/>
      <point x="867" y="-15"/>
    </contour>
  </outline>
</glyph>
<glyph name="rupee-tamil" format="1">
  <advance width="1082"/>
  <unicode hex="0BF9"/>
  <outline>
    <contour>
      <point x="568" y="-200" type="curve"/>
      <point x="844" y="-200"/>
      <point x="1032" y="-56"/>
      <point x="1032" y="197" type="curve"/>
      <point x="1032" y="297"/>
      <point x="1003" y="417"/>
      <point x="868" y="417" type="curve"/>
      <point x="722" y="417"/>
      <point x="694" y="276"/>
      <point x="683" y="195" type="curve"/>
      <point x="716" y="153" type="line"/>
      <point x="718" y="222"/>
      <point x="742" y="322"/>
      <point x="816" y="322" type="curve"/>
      <point x="853" y="322"/>
      <point x="882" y="297"/>
      <point x="882" y="191" type="curve"/>
      <point x="882" y="-29"/>
      <point x="758" y="-149"/>
      <point x="563" y="-149" type="curve"/>
      <point x="352" y="-149"/>
      <point x="189" y="-8"/>
      <point x="189" y="305" type="curve"/>
      <point x="189" y="631"/>
      <point x="365" y="785"/>
      <point x="612" y="785" type="curve"/>
      <point x="657" y="785"/>
      <point x="764" y="780"/>
      <point x="803" y="759" type="curve"/>
      <point x="797" y="760"/>
      <point x="792" y="760"/>
      <point x="786" y="761" type="curve"/>
      <point x="718" y="763"/>
      <point x="690" y="710"/>
      <point x="690" y="672" type="curve"/>
      <point x="690" y="619"/>
      <point x="730" y="585"/>
      <point x="792" y="585" type="curve"/>
      <point x="877" y="585"/>
      <point x="914" y="623"/>
      <point x="914" y="686" type="curve"/>
      <point x="914" y="779"/>
      <point x="791" y="837"/>
      <point x="610" y="837" type="curve"/>
      <point x="235" y="837"/>
      <point x="50" y="586"/>
      <point x="50" y="310" type="curve"/>
      <point x="50" y="71"/>
      <point x="189" y="-200"/>
    </contour>
    <contour>
      <point x="358" y="509" type="line"/>
      <point x="358" y="0" type="line"/>
      <point x="412" y="0" type="line"/>
      <point x="412" y="515" type="line"/>
    </contour>
    <contour>
      <point x="659" y="-8" type="curve"/>
      <point x="692" y="-8"/>
      <point x="720" y="0"/>
      <point x="744" y="17" type="curve"/>
      <point x="731" y="51"/>
      <point x="725" y="109"/>
      <point x="725" y="183" type="curve"/>
      <point x="725" y="514" type="line"/>
      <point x="579" y="508" type="line"/>
      <point x="579" y="105" type="line" smooth="yes"/>
      <point x="579" y="11"/>
      <point x="610" y="-8"/>
    </contour>
    <contour>
      <point x="358" y="548" type="line"/>
      <point x="358" y="500" type="line"/>
      <point x="835" y="499" type="line" smooth="yes"/>
      <point x="862" y="499"/>
      <point x="884" y="505"/>
      <point x="884" y="532" type="curve"/>
      <point x="884" y="538"/>
      <point x="883" y="545"/>
      <point x="881" y="554" type="curve"/>
      <point x="855" y="546"/>
      <point x="819" y="546"/>
      <point x="791" y="546" type="curve"/>
    </contour>
    <contour>
      <point x="784" y="622" type="curve"/>
      <point x="759" y="622"/>
      <point x="744" y="642"/>
      <point x="744" y="671" type="curve"/>
      <point x="744" y="703"/>
      <point x="761" y="725"/>
      <point x="786" y="725" type="curve"/>
      <point x="812" y="725"/>
      <point x="828" y="701"/>
      <point x="828" y="673" type="curve"/>
      <point x="828" y="642"/>
      <point x="809" y="622"/>
    </contour>
  </outline>
</glyph>
<glyph name="number-tamil" format="1">
  <advance width="867"/>
  <unicode hex="0BFA"/>
  <outline>
    <contour>
      <point x="596" y="534" type="curve"/>
      <point x="654" y="548" type="line"/>
      <point x="609" y="566"/>
      <point x="581" y="598"/>
      <point x="581" y="665" type="curve"/>
      <point x="581" y="737"/>
      <point x="615" y="790"/>
      <point x="694" y="790" type="curve"/>
      <point x="772" y="790"/>
      <point x="817" y="739"/>
      <point x="817" y="649" type="curve"/>
      <point x="817" y="613"/>
      <point x="810" y="581"/>
      <point x="778" y="581" type="curve"/>
      <point x="745" y="581"/>
      <point x="729" y="614"/>
      <point x="729" y="658" type="curve"/>
      <point x="739" y="746"/>
      <point x="803" y="815"/>
      <point x="873" y="815" type="curve"/>
      <point x="958" y="815"/>
      <point x="992" y="755"/>
      <point x="992" y="645" type="curve"/>
      <point x="992" y="543" type="line"/>
      <point x="1088" y="543" type="line"/>
      <point x="1088" y="658" type="line" smooth="yes"/>
      <point x="1088" y="724"/>
      <point x="1094" y="782"/>
      <point x="1192" y="785" type="curve"/>
      <point x="1237" y="785" type="line"/>
      <point x="1237" y="842" type="line"/>
      <point x="1195" y="842" type="line" smooth="yes"/>
      <point x="1090" y="842"/>
      <point x="1067" y="771"/>
      <point x="1063" y="736" type="curve"/>
      <point x="1048" y="785"/>
      <point x="998" y="849"/>
      <point x="885" y="849" type="curve"/>
      <point x="782" y="849"/>
      <point x="701" y="773"/>
      <point x="691" y="658" type="curve"/>
      <point x="691" y="590"/>
      <point x="719" y="533"/>
      <point x="797" y="533" type="curve"/>
      <point x="857" y="533"/>
      <point x="924" y="567"/>
      <point x="917" y="660" type="curve"/>
      <point x="908" y="775"/>
      <point x="799" y="820"/>
      <point x="693" y="820" type="curve"/>
      <point x="588" y="820"/>
      <point x="497" y="778"/>
      <point x="497" y="675" type="curve"/>
      <point x="497" y="609"/>
      <point x="529" y="561"/>
    </contour>
    <component base="na-tamil" xOffset="-5"/>
  </outline>
</glyph>
<glyph name="figuredash" format="1">
  <advance width="333"/>
  <unicode hex="2012"/>
  <outline>
    <contour>
      <point x="297" y="298" type="line"/>
      <point x="35" y="298" type="line"/>
      <point x="35" y="219" type="line"/>
      <point x="297" y="219" type="line"/>
    </contour>
  </outline>
</glyph>
<glyph name="emdash" format="1">
  <advance width="795"/>
  <unicode hex="2014"/>
  <outline>
    <contour>
      <point x="760" y="298" type="line"/>
      <point x="35" y="298" type="line"/>
      <point x="35" y="219" type="line"/>
      <point x="760" y="219" type="line"/>
    </contour>
  </outline>
</glyph>
<glyph name="twoinferior" format="1">
  <advance width="439"/>
  <unicode hex="2082"/>
  <outline>
    <contour>
      <point x="51" y="0" type="curve"/>
      <point x="384" y="0" type="line"/>
      <point x="420" y="1"/>
      <point x="419" y="110"/>
      <point x="391" y="133" type="curve"/>
      <point x="354" y="98"/>
      <point x="180" y="61"/>
      <point x="113" y="58" type="curve"/>
      <point x="157" y="53"/>
      <point x="395" y="186"/>
      <point x="395" y="361" type="curve"/>
      <point x="395" y="445"/>
      <point x="320" y="484"/>
      <point x="218" y="484" type="curve"/>
      <point x="110" y="484"/>
      <point x="41" y="445"/>
      <point x="41" y="385" type="curve"/>
      <point x="41" y="356"/>
      <point x="57" y="307"/>
      <point x="134" y="307" type="curve"/>
      <point x="135" y="369"/>
      <point x="144" y="449"/>
      <point x="209" y="449" type="curve"/>
      <point x="257" y="449"/>
      <point x="274" y="410"/>
      <point x="274" y="374" type="curve"/>
      <point x="274" y="198"/>
      <point x="59" y="72"/>
      <point x="38" y="62" type="curve"/>
      <point x="30" y="35"/>
      <point x="40" y="11"/>
    </contour>
  </outline>
</glyph>
<glyph name="nineinferior" format="1">
  <advance width="487"/>
  <unicode hex="2089"/>
  <outline>
    <contour>
      <point x="212" y="-10" type="curve"/>
      <point x="371" y="-10"/>
      <point x="432" y="95"/>
      <point x="432" y="253" type="curve"/>
      <point x="432" y="430"/>
      <point x="355" y="483"/>
      <point x="246" y="483" type="curve"/>
      <point x="114" y="483"/>
      <point x="58" y="415"/>
      <point x="58" y="329" type="curve"/>
      <point x="58" y="230"/>
      <point x="130" y="183"/>
      <point x="210" y="183" type="curve"/>
      <point x="307" y="183"/>
      <point x="337" y="254"/>
      <point x="354" y="309" type="curve"/>
      <point x="319" y="336" type="line"/>
      <point x="312" y="256"/>
      <point x="275" y="235"/>
      <point x="235" y="235" type="curve"/>
      <point x="187" y="235"/>
      <point x="177" y="267"/>
      <point x="177" y="323" type="curve"/>
      <point x="177" y="389"/>
      <point x="189" y="445"/>
      <point x="240" y="445" type="curve"/>
      <point x="303" y="445"/>
      <point x="308" y="354"/>
      <point x="308" y="259" type="curve"/>
      <point x="308" y="119"/>
      <point x="298" y="36"/>
      <point x="219" y="36" type="curve"/>
      <point x="182" y="36"/>
      <point x="148" y="59"/>
      <point x="109" y="124" type="curve"/>
      <point x="99" y="120"/>
      <point x="68" y="89"/>
      <point x="68" y="59" type="curve"/>
      <point x="69" y="5"/>
      <point x="145" y="-10"/>
    </contour>
  </outline>
</glyph>
<glyph name="colonsign" format="1">
  <advance width="592"/>
  <unicode hex="20A1"/>
  <outline>
    <contour>
      <point x="244" y="-115" type="curve"/>
      <point x="256" y="-119"/>
      <point x="263" y="-118"/>
      <point x="270" y="-116" type="curve"/>
      <point x="271" y="-99"/>
      <point x="279" y="-69"/>
      <point x="293" y="-31" type="curve"/>
      <point x="564" y="742" type="line" smooth="yes"/>
      <point x="569" y="756"/>
      <point x="565" y="766"/>
      <point x="550" y="771" type="curve"/>
      <point x="538" y="775"/>
      <point x="532" y="773"/>
      <point x="524" y="772" type="curve"/>
      <point x="523" y="755"/>
      <point x="515" y="725"/>
      <point x="501" y="687" type="curve"/>
      <point x="230" y="-86" type="line" smooth="yes"/>
      <point x="225" y="-100"/>
      <point x="229" y="-110"/>
    </contour>
    <contour>
      <point x="116" y="-115" type="curve"/>
      <point x="128" y="-119"/>
      <point x="135" y="-118"/>
      <point x="142" y="-116" type="curve"/>
      <point x="143" y="-99"/>
      <point x="151" y="-69"/>
      <point x="165" y="-31" type="curve"/>
      <point x="436" y="742" type="line" smooth="yes"/>
      <point x="441" y="756"/>
      <point x="437" y="766"/>
      <point x="422" y="771" type="curve"/>
      <point x="410" y="775"/>
      <point x="404" y="773"/>
      <point x="396" y="772" type="curve"/>
      <point x="395" y="755"/>
      <point x="387" y="725"/>
      <point x="373" y="687" type="curve"/>
      <point x="102" y="-86" type="line" smooth="yes"/>
      <point x="97" y="-100"/>
      <point x="101" y="-110"/>
    </contour>
    <component base="C"/>
  </outline>
</glyph>
<glyph name="naira" format="1">
  <advance width="708"/>
  <unicode hex="20A6"/>
  <outline>
    <contour>
      <point x="11" y="432" type="curve"/>
      <point x="10" y="400" type="line"/>
      <point x="23" y="401"/>
      <point x="57" y="403"/>
      <point x="70" y="403" type="curve"/>
      <point x="700" y="403" type="line" smooth="yes"/>
      <point x="720" y="403"/>
      <point x="735" y="414"/>
      <point x="736" y="436" type="curve"/>
      <point x="737" y="468" type="line"/>
      <point x="727" y="467"/>
      <point x="632" y="465"/>
      <point x="622" y="465" type="curve"/>
      <point x="47" y="465" type="line" smooth="yes"/>
      <point x="28" y="465"/>
      <point x="12" y="454"/>
    </contour>
    <contour>
      <point x="11" y="239" type="curve"/>
      <point x="10" y="207" type="line"/>
      <point x="23" y="209"/>
      <point x="57" y="211"/>
      <point x="70" y="211" type="curve"/>
      <point x="700" y="211" type="line" smooth="yes"/>
      <point x="720" y="211"/>
      <point x="735" y="222"/>
      <point x="736" y="244" type="curve"/>
      <point x="737" y="276" type="line"/>
      <point x="727" y="274"/>
      <point x="632" y="272"/>
      <point x="622" y="272" type="curve"/>
      <point x="47" y="272" type="line" smooth="yes"/>
      <point x="28" y="272"/>
      <point x="12" y="261"/>
    </contour>
    <component base="N" xOffset="22"/>
  </outline>
</glyph>
<glyph name="dong" format="1">
  <advance width="528"/>
  <unicode hex="20AB"/>
  <outline>
    <contour>
      <point x="506" y="653" type="line"/>
      <point x="238" y="653" type="line"/>
      <point x="238" y="607" type="line"/>
      <point x="506" y="607" type="line"/>
    </contour>
    <contour>
      <point x="189" y="82" type="curve"/>
      <point x="280" y="82"/>
      <point x="337" y="145"/>
      <point x="353" y="281" type="curve"/>
      <point x="334" y="290" type="line"/>
      <point x="334" y="250" type="line" smooth="yes"/>
      <point x="334" y="149"/>
      <point x="365" y="85"/>
      <point x="435" y="85" type="curve"/>
      <point x="480" y="85"/>
      <point x="517" y="113"/>
      <point x="517" y="150" type="curve"/>
      <point x="517" y="161"/>
      <point x="513" y="176"/>
      <point x="505" y="188" type="curve"/>
      <point x="499" y="179"/>
      <point x="487" y="176"/>
      <point x="479" y="176" type="curve"/>
      <point x="458" y="176"/>
      <point x="447" y="192"/>
      <point x="447" y="224" type="curve"/>
      <point x="448" y="684" type="line" smooth="yes"/>
      <point x="448" y="724"/>
      <point x="418" y="747"/>
      <point x="377" y="747" type="curve"/>
      <point x="343" y="747"/>
      <point x="318" y="729"/>
      <point x="307" y="720" type="curve"/>
      <point x="325" y="659"/>
      <point x="327" y="593"/>
      <point x="327" y="551" type="curve"/>
      <point x="328" y="515" type="line"/>
      <point x="311" y="548"/>
      <point x="275" y="567"/>
      <point x="221" y="567" type="curve"/>
      <point x="98" y="567"/>
      <point x="30" y="474"/>
      <point x="30" y="308" type="curve"/>
      <point x="30" y="176"/>
      <point x="75" y="82"/>
    </contour>
    <contour>
      <point x="225" y="149" type="curve"/>
      <point x="177" y="149"/>
      <point x="161" y="201"/>
      <point x="161" y="311" type="curve"/>
      <point x="161" y="434"/>
      <point x="185" y="506"/>
      <point x="252" y="506" type="curve"/>
      <point x="316" y="506"/>
      <point x="326" y="446"/>
      <point x="326" y="383" type="curve"/>
      <point x="326" y="266"/>
      <point x="296" y="149"/>
    </contour>
    <contour>
      <point x="503" y="45" type="line"/>
      <point x="46" y="45" type="line"/>
      <point x="46" y="0" type="line"/>
      <point x="503" y="0" type="line"/>
    </contour>
  </outline>
</glyph>
<glyph name="upArrow" format="1">
  <advance width="600"/>
  <unicode hex="2191"/>
  <outline>
    <contour>
      <point x="217" y="-14" type="curve"/>
      <point x="292" y="-14"/>
      <point x="355" y="41"/>
      <point x="353" y="181" type="curve"/>
      <point x="345" y="700" type="line"/>
      <point x="383" y="627"/>
      <point x="449" y="558"/>
      <point x="449" y="512" type="curve"/>
      <point x="449" y="481"/>
      <point x="420" y="469"/>
      <point x="404" y="477" type="curve"/>
      <point x="394" y="421"/>
      <point x="426" y="406"/>
      <point x="455" y="406" type="curve"/>
      <point x="505" y="406"/>
      <point x="521" y="453"/>
      <point x="517" y="493" type="curve"/>
      <point x="507" y="596"/>
      <point x="355" y="730"/>
      <point x="351" y="797" type="curve"/>
      <point x="351" y="806"/>
      <point x="353" y="814"/>
      <point x="358" y="820" type="curve"/>
      <point x="340" y="826" type="line"/>
      <point x="248" y="755"/>
      <point x="103" y="559"/>
      <point x="100" y="452" type="curve"/>
      <point x="99" y="414"/>
      <point x="114" y="363"/>
      <point x="161" y="361" type="curve"/>
      <point x="181" y="359"/>
      <point x="205" y="367"/>
      <point x="212" y="392" type="curve"/>
      <point x="184" y="399"/>
      <point x="171" y="431"/>
      <point x="173" y="464" type="curve"/>
      <point x="176" y="535"/>
      <point x="243" y="660"/>
      <point x="287" y="703" type="curve"/>
      <point x="287" y="156" type="line" smooth="yes"/>
      <point x="287" y="86"/>
      <point x="256" y="55"/>
      <point x="205" y="55" type="curve"/>
      <point x="179" y="55"/>
      <point x="157" y="65"/>
      <point x="147" y="84" type="curve"/>
      <point x="134" y="84"/>
      <point x="132" y="76"/>
      <point x="132" y="66" type="curve"/>
      <point x="132" y="42"/>
      <point x="150" y="-14"/>
    </contour>
  </outline>
</glyph>
<glyph name="radical" format="1">
  <advance width="587"/>
  <unicode hex="221A"/>
  <outline>
    <contour>
      <point x="500" y="665" type="curve"/>
      <point x="312" y="50" type="line"/>
      <point x="217" y="308" type="line" smooth="yes"/>
      <point x="195" y="368"/>
      <point x="141" y="388"/>
      <point x="92" y="388" type="curve"/>
      <point x="35" y="388"/>
      <point x="-1" y="359"/>
      <point x="-1" y="329" type="curve"/>
      <point x="-1" y="310"/>
      <point x="16" y="298"/>
      <point x="26" y="298" type="curve"/>
      <point x="29" y="306"/>
      <point x="38" y="311"/>
      <point x="51" y="311" type="curve"/>
      <point x="67" y="311"/>
      <point x="83" y="299"/>
      <point x="97" y="261" type="curve"/>
      <point x="235" y="-102" type="line" smooth="yes"/>
      <point x="242" y="-119"/>
      <point x="254" y="-128"/>
      <point x="271" y="-128" type="curve"/>
      <point x="324" y="-128" type="line"/>
      <point x="573" y="694" type="line"/>
      <point x="562" y="703"/>
      <point x="516" y="719"/>
    </contour>
  </outline>
</glyph>
<glyph name="blackSquare" format="1">
  <advance width="600"/>
  <unicode hex="25A0"/>
  <outline>
    <contour>
      <point x="528" y="488" type="line"/>
      <point x="317" y="276" type="line"/>
      <point x="531" y="62" type="line"/>
      <point x="531" y="488" type="line"/>
    </contour>
    <contour>
      <point x="69" y="488" type="line"/>
      <point x="69" y="65" type="line"/>
      <point x="281" y="276" type="line"/>
    </contour>
    <contour>
      <point x="510" y="506" type="line"/>
      <point x="87" y="506" type="line"/>
      <point x="299" y="294" type="line"/>
    </contour>
    <contour>
      <point x="87" y="47" type="line"/>
      <point x="87" y="44" type="line"/>
      <point x="513" y="44" type="line"/>
      <point x="299" y="258" type="line"/>
    </contour>
  </outline>
</glyph>
<glyph name="leftBlackTriangle" format="1">
  <advance width="595"/>
  <unicode hex="25C0"/>
  <outline>
    <contour>
      <point x="20" y="271" type="line"/>
      <point x="521" y="560" type="line"/>
      <point x="521" y="-19" type="line"/>
    </contour>
  </outline>
</glyph>
<glyph name="acutecomb.cap" format="1">
  <advance width="600"/>
  <outline>
    <contour>
      <point x="200" y="565" type="curve"/>
      <point x="400" y="645" type="line"/>
      <point x="389" y="675"/>
      <point x="349" y="719"/>
      <point x="324" y="729" type="curve"/>
      <point x="179" y="595" type="line"/>
      <point x="178" y="590"/>
      <point x="191" y="569"/>
    </contour>
    <contour>
      <point x="245" y="516" type="move" name="_top"/>
    </contour>
    <contour>
      <point x="222" y="125" type="move" name="top"/>
    </contour>
  </outline>
</glyph>
<glyph name="alpha.001" format="1">
  <advance width="559"/>
  <outline>
    <contour>
      <point x="562" y="95" type="curve"/>
      <point x="551" y="86"/>
      <point x="537" y="84"/>
      <point x="528" y="84" type="curve"/>
      <point x="461" y="84"/>
      <point x="442" y="141"/>
      <point x="465" y="225" type="curve"/>
      <point x="528" y="452" type="line"/>
      <point x="530" y="462"/>
      <point x="530" y="466"/>
      <point x="530" y="470" type="curve"/>
      <point x="530" y="514"/>
      <point x="493" y="535"/>
      <point x="444" y="535" type="curve"/>
      <point x="428" y="535"/>
      <point x="412" y="532"/>
      <point x="400" y="521" type="curve"/>
      <point x="388" y="421" type="line"/>
      <point x="402" y="430" type="line"/>
      <point x="381" y="496"/>
      <point x="329" y="535"/>
      <point x="254" y="535" type="curve"/>
      <point x="120" y="535"/>
      <point x="34" y="429"/>
      <point x="34" y="241" type="curve"/>
      <point x="34" y="90"/>
      <point x="95" y="-18"/>
      <point x="238" y="-18" type="curve"/>
      <point x="317" y="-18"/>
      <point x="382" y="40"/>
      <point x="412" y="184" type="curve"/>
      <point x="404" y="182" type="line"/>
      <point x="387" y="37"/>
      <point x="411" y="-18"/>
      <point x="485" y="-18" type="curve"/>
      <point x="540" y="-18"/>
      <point x="572" y="11"/>
      <point x="572" y="52" type="curve"/>
      <point x="572" y="64"/>
      <point x="569" y="81"/>
    </contour>
    <contour>
      <point x="257" y="27" type="curve"/>
      <point x="186" y="27"/>
      <point x="181" y="123"/>
      <point x="181" y="179" type="curve"/>
      <point x="181" y="380"/>
      <point x="186" y="487"/>
      <point x="277" y="487" type="curve"/>
      <point x="348" y="487"/>
      <point x="374" y="393"/>
      <point x="374" y="296" type="curve"/>
      <point x="374" y="181"/>
      <point x="341" y="27"/>
    </contour>
    <contour>
      <point x="261" y="0" type="move" name="bottom"/>
    </contour>
    <contour>
      <point x="261" y="516" type="move" name="top"/>
    </contour>
  </outline>
</glyph>
<glyph name="alpha.002.003" format="1">
  <advance width="555"/>
  <outline>
    <contour>
      <point x="370" y="325" type="curve"/>
      <point x="382" y="340" type="line"/>
      <point x="372" y="431"/>
      <point x="334" y="535"/>
      <point x="229" y="535" type="curve"/>
      <point x="106" y="535"/>
      <point x="34" y="402"/>
      <point x="34" y="232" type="curve"/>
      <point x="34" y="74"/>
      <point x="127" y="-18"/>
      <point x="212" y="-18" type="curve"/>
      <point x="291" y="-18"/>
      <point x="389" y="52"/>
      <point x="389" y="299" type="curve"/>
      <point x="380" y="263" type="line"/>
      <point x="340" y="74"/>
      <point x="397" y="-14"/>
      <point x="472" y="-14" type="curve"/>
      <point x="521" y="-14"/>
      <point x="561" y="17"/>
      <point x="561" y="56" type="curve"/>
      <point x="561" y="72"/>
      <point x="557" y="85"/>
      <point x="549" y="101" type="curve"/>
      <point x="538" y="92"/>
      <point x="529" y="88"/>
      <point x="515" y="88" type="curve"/>
      <point x="473" y="88"/>
      <point x="470" y="133"/>
      <point x="475" y="173" type="curve"/>
      <point x="507" y="437" type="line" smooth="yes"/>
      <point x="515" y="506"/>
      <point x="481" y="531"/>
      <point x="430" y="531" type="curve"/>
      <point x="406" y="531"/>
      <point x="385" y="525"/>
      <point x="373" y="516" type="curve"/>
      <point x="362" y="367" type="line" smooth="yes"/>
      <point x="350" y="201"/>
      <point x="281" y="126"/>
      <point x="193" y="126" type="curve"/>
      <point x="127" y="126"/>
      <point x="80" y="177"/>
      <point x="80" y="247" type="curve"/>
      <point x="80" y="324"/>
      <point x="138" y="389"/>
      <point x="235" y="389" type="curve"/>
      <point x="290" y="389"/>
      <point x="337" y="367"/>
    </contour>
    <contour>
      <point x="277" y="0" type="move" name="bottom"/>
    </contour>
    <contour>
      <point x="277" y="516" type="move" name="top"/>
    </contour>
  </outline>
</glyph>
<glyph name="alpha.ss03" format="1">
  <advance width="605"/>
  <outline>
    <contour>
      <point x="372" y="325" type="curve"/>
      <point x="392" y="350" type="line"/>
      <point x="378" y="431"/>
      <point x="342" y="535"/>
      <point x="244" y="535" type="curve"/>
      <point x="114" y="535"/>
      <point x="34" y="402"/>
      <point x="34" y="227" type="curve"/>
      <point x="34" y="74"/>
      <point x="106" y="-18"/>
      <point x="211" y="-18" type="curve"/>
      <point x="279" y="-18"/>
      <point x="365" y="17"/>
      <point x="423" y="145" type="curve"/>
      <point x="414" y="172" type="line"/>
      <point x="399" y="56"/>
      <point x="433" y="-14"/>
      <point x="515" y="-14" type="curve"/>
      <point x="569" y="-14"/>
      <point x="603" y="23"/>
      <point x="603" y="62" type="curve"/>
      <point x="603" y="74"/>
      <point x="598" y="94"/>
      <point x="590" y="108" type="curve"/>
      <point x="579" y="101"/>
      <point x="549" y="88"/>
      <point x="523" y="88" type="curve"/>
      <point x="465" y="88"/>
      <point x="448" y="135"/>
      <point x="448" y="169" type="curve"/>
      <point x="523" y="437" type="line" smooth="yes"/>
      <point x="542" y="504"/>
      <point x="478" y="531"/>
      <point x="428" y="531" type="curve"/>
      <point x="414" y="531"/>
      <point x="399" y="527"/>
      <point x="394" y="522" type="curve"/>
      <point x="354" y="315" type="line" smooth="yes"/>
      <point x="322" y="151"/>
      <point x="254" y="92"/>
      <point x="184" y="92" type="curve"/>
      <point x="109" y="92"/>
      <point x="80" y="161"/>
      <point x="80" y="222" type="curve"/>
      <point x="80" y="311"/>
      <point x="145" y="389"/>
      <point x="244" y="389" type="curve"/>
      <point x="290" y="389"/>
      <point x="339" y="367"/>
    </contour>
    <contour>
      <point x="277" y="0" type="move" name="bottom"/>
    </contour>
    <contour>
      <point x="277" y="516" type="move" name="top"/>
    </contour>
  </outline>
</glyph>
<glyph name="alpha.ss04" format="1">
  <advance width="555"/>
  <outline>
    <contour>
      <point x="370" y="325" type="curve"/>
      <point x="382" y="340" type="line"/>
      <point x="372" y="431"/>
      <point x="334" y="535"/>
      <point x="236" y="535" type="curve"/>
      <point x="106" y="535"/>
      <point x="34" y="402"/>
      <point x="34" y="227" type="curve"/>
      <point x="34" y="74"/>
      <point x="106" y="-18"/>
      <point x="198" y="-18" type="curve"/>
      <point x="277" y="-18"/>
      <point x="368" y="52"/>
      <point x="389" y="299" type="curve"/>
      <point x="380" y="263" type="line"/>
      <point x="340" y="74"/>
      <point x="397" y="-14"/>
      <point x="474" y="-14" type="curve"/>
      <point x="524" y="-14"/>
      <point x="561" y="17"/>
      <point x="561" y="56" type="curve"/>
      <point x="561" y="72"/>
      <point x="557" y="85"/>
      <point x="549" y="101" type="curve"/>
      <point x="538" y="92"/>
      <point x="529" y="88"/>
      <point x="519" y="88" type="curve"/>
      <point x="481" y="88"/>
      <point x="482" y="139"/>
      <point x="488" y="212" type="curve"/>
      <point x="507" y="437" type="line" smooth="yes"/>
      <point x="513" y="506"/>
      <point x="481" y="531"/>
      <point x="430" y="531" type="curve"/>
      <point x="406" y="531"/>
      <point x="385" y="525"/>
      <point x="373" y="516" type="curve"/>
      <point x="369" y="364" type="line" smooth="yes"/>
      <point x="365" y="222"/>
      <point x="294" y="129"/>
      <point x="185" y="129" type="curve"/>
      <point x="122" y="129"/>
      <point x="80" y="178"/>
      <point x="80" y="238" type="curve"/>
      <point x="80" y="311"/>
      <point x="145" y="389"/>
      <point x="244" y="389" type="curve"/>
      <point x="290" y="389"/>
      <point x="337" y="367"/>
    </contour>
    <contour>
      <point x="277" y="0" type="move" name="bottom"/>
    </contour>
    <contour>
      <point x="277" y="516" type="move" name="top"/>
    </contour>
  </outline>
</glyph>
<glyph name="brevecomb.cap" format="1">
  <advance width="600"/>
  <outline>
    <contour>
      <point x="435" y="703" type="curve"/>
      <point x="423" y="705"/>
      <point x="412" y="708"/>
      <point x="399" y="711" type="curve"/>
      <point x="382" y="659"/>
      <point x="343" y="638"/>
      <point x="295" y="638" type="curve"/>
      <point x="248" y="638"/>
      <point x="204" y="655"/>
      <point x="190" y="711" type="curve"/>
      <point x="176" y="708"/>
      <point x="163" y="705"/>
      <point x="149" y="702" type="curve"/>
      <point x="159" y="633"/>
      <point x="200" y="566"/>
      <point x="291" y="566" type="curve"/>
      <point x="380" y="566"/>
      <point x="420" y="630"/>
    </contour>
    <contour>
      <point x="292" y="516" type="move" name="_top"/>
    </contour>
    <contour>
      <point x="296" y="653" type="move" name="top"/>
    </contour>
  </outline>
</glyph>
<glyph name="ca_uuMatra-tamil" format="1">
  <advance width="1252"/>
  <outline>
    <contour>
      <point x="653" y="-221" type="curve"/>
      <point x="1018" y="-221"/>
      <point x="1242" y="-113"/>
      <point x="1242" y="81" type="curve"/>
      <point x="1242" y="161"/>
      <point x="1204" y="223"/>
      <point x="1116" y="223" type="curve"/>
      <point x="1011" y="223"/>
      <point x="960" y="133"/>
      <point x="951" y="68" type="curve"/>
      <point x="990" y="6" type="line"/>
      <point x="991" y="91"/>
      <point x="1028" y="128"/>
      <point x="1063" y="128" type="curve"/>
      <point x="1094" y="128"/>
      <point x="1102" y="99"/>
      <point x="1102" y="65" type="curve"/>
      <point x="1102" y="-87"/>
      <point x="942" y="-170"/>
      <point x="672" y="-170" type="curve"/>
      <point x="341" y="-170"/>
      <point x="190" y="-46"/>
      <point x="190" y="228" type="curve"/>
      <point x="190" y="446"/>
      <point x="285" y="511"/>
      <point x="329" y="537" type="curve"/>
      <point x="317" y="562"/>
      <point x="307" y="566"/>
      <point x="283" y="563" type="curve"/>
      <point x="192" y="552"/>
      <point x="50" y="456"/>
      <point x="50" y="220" type="curve"/>
      <point x="50" y="-84"/>
      <point x="242" y="-221"/>
    </contour>
    <contour>
      <point x="512" y="-15" type="curve"/>
      <point x="652" y="-15"/>
      <point x="777" y="72"/>
      <point x="777" y="240" type="curve"/>
      <point x="777" y="532" type="line"/>
      <point x="631" y="531" type="line"/>
      <point x="631" y="230" type="line" smooth="yes"/>
      <point x="631" y="147"/>
      <point x="608" y="55"/>
      <point x="491" y="55" type="curve"/>
      <point x="418" y="55"/>
      <point x="358" y="91"/>
      <point x="358" y="171" type="curve"/>
      <point x="358" y="236"/>
      <point x="396" y="286"/>
      <point x="506" y="286" type="curve"/>
      <point x="1036" y="286" type="line" smooth="yes"/>
      <point x="1063" y="286"/>
      <point x="1073" y="318"/>
      <point x="1065" y="334" type="curve"/>
      <point x="485" y="334" type="line" smooth="yes"/>
      <point x="356" y="334"/>
      <point x="296" y="262"/>
      <point x="296" y="171" type="curve"/>
      <point x="296" y="71"/>
      <point x="372" y="-15"/>
    </contour>
    <contour>
      <point x="909" y="-21" type="curve"/>
      <point x="951" y="-21"/>
      <point x="975" y="-9"/>
      <point x="990" y="6" type="curve"/>
      <point x="990" y="301" type="line"/>
      <point x="844" y="295" type="line"/>
      <point x="844" y="0" type="line" smooth="yes"/>
      <point x="844" y="-13"/>
      <point x="876" y="-21"/>
    </contour>
    <contour>
      <point x="411" y="507" type="curve"/>
      <point x="411" y="291" type="line"/>
      <point x="455" y="299" type="line"/>
      <point x="455" y="482" type="line" smooth="yes"/>
      <point x="455" y="496"/>
      <point x="463" y="499"/>
      <point x="472" y="499" type="curve"/>
      <point x="902" y="500" type="line" smooth="yes"/>
      <point x="932" y="500"/>
      <point x="939" y="516"/>
      <point x="939" y="532" type="curve"/>
      <point x="939" y="538"/>
      <point x="938" y="542"/>
      <point x="934" y="548" type="curve"/>
      <point x="449" y="548" type="line" smooth="yes"/>
      <point x="425" y="548"/>
      <point x="411" y="537"/>
    </contour>
    <contour>
      <point x="1222" y="548" type="move" name="imatra"/>
    </contour>
    <contour>
      <point x="666" y="548" type="move" name="top"/>
    </contour>
  </outline>
</glyph>
<glyph name="epsilon.001" format="1">
  <advance width="610"/>
  <outline>
    <contour>
      <point x="556" y="146" type="curve"/>
      <point x="533" y="78"/>
      <point x="472" y="44"/>
      <point x="383" y="44" type="curve"/>
      <point x="300" y="44"/>
      <point x="246" y="85"/>
      <point x="246" y="151" type="curve"/>
      <point x="246" y="199"/>
      <point x="267" y="247"/>
      <point x="361" y="247" type="curve"/>
      <point x="382" y="247"/>
      <point x="400" y="241"/>
      <point x="421" y="238" type="curve"/>
      <point x="442" y="257"/>
      <point x="436" y="284"/>
      <point x="419" y="293" type="curve"/>
      <point x="338" y="287" type="line" smooth="yes"/>
      <point x="276" y="282"/>
      <point x="256" y="348"/>
      <point x="256" y="388" type="curve"/>
      <point x="256" y="460"/>
      <point x="304" y="489"/>
      <point x="353" y="489" type="curve"/>
      <point x="419" y="489"/>
      <point x="467" y="454"/>
      <point x="463" y="377" type="curve"/>
      <point x="474" y="375"/>
      <point x="484" y="374"/>
      <point x="498" y="375" type="curve"/>
      <point x="547" y="378"/>
      <point x="564" y="407"/>
      <point x="564" y="438" type="curve"/>
      <point x="564" y="503"/>
      <point x="460" y="535"/>
      <point x="358" y="535" type="curve"/>
      <point x="228" y="535"/>
      <point x="109" y="492"/>
      <point x="109" y="396" type="curve"/>
      <point x="109" y="317"/>
      <point x="196" y="265"/>
      <point x="301" y="267" type="curve"/>
      <point x="301" y="274" type="line"/>
      <point x="175" y="274"/>
      <point x="99" y="217"/>
      <point x="99" y="139" type="curve"/>
      <point x="99" y="50"/>
      <point x="185" y="-18"/>
      <point x="335" y="-18" type="curve"/>
      <point x="464" y="-18"/>
      <point x="572" y="39"/>
      <point x="572" y="120" type="curve"/>
      <point x="572" y="135"/>
      <point x="565" y="142"/>
    </contour>
  </outline>
</glyph>
<glyph name="eta.ss03" format="1">
  <advance width="588"/>
  <outline>
    <contour>
      <point x="165" y="-14" type="curve"/>
      <point x="194" y="-14"/>
      <point x="236" y="1"/>
      <point x="248" y="12" type="curve"/>
      <point x="225" y="66"/>
      <point x="236" y="93"/>
      <point x="264" y="214" type="curve"/>
      <point x="285" y="305"/>
      <point x="322" y="424"/>
      <point x="414" y="424" type="curve"/>
      <point x="468" y="424"/>
      <point x="485" y="379"/>
      <point x="485" y="341" type="curve"/>
      <point x="485" y="216"/>
      <point x="392" y="-51"/>
      <point x="392" y="-130" type="curve"/>
      <point x="392" y="-193"/>
      <point x="426" y="-216"/>
      <point x="468" y="-216" type="curve"/>
      <point x="508" y="-216"/>
      <point x="534" y="-202"/>
      <point x="553" y="-185" type="curve"/>
      <point x="535" y="-141"/>
      <point x="532" y="-85"/>
      <point x="532" y="-23" type="curve"/>
      <point x="532" y="321" type="line" smooth="yes"/>
      <point x="532" y="467"/>
      <point x="483" y="535"/>
      <point x="391" y="535" type="curve"/>
      <point x="278" y="535"/>
      <point x="192" y="429"/>
      <point x="168" y="339" type="curve"/>
      <point x="180" y="300" type="line"/>
      <point x="187" y="460"/>
      <point x="142" y="531"/>
      <point x="81" y="531" type="curve"/>
      <point x="43" y="531"/>
      <point x="7" y="501"/>
      <point x="7" y="460" type="curve"/>
      <point x="7" y="444"/>
      <point x="10" y="431"/>
      <point x="18" y="417" type="curve"/>
      <point x="27" y="423"/>
      <point x="42" y="429"/>
      <point x="64" y="429" type="curve"/>
      <point x="105" y="429"/>
      <point x="139" y="403"/>
      <point x="143" y="300" type="curve"/>
      <point x="93" y="84" type="line" smooth="yes"/>
      <point x="80" y="28"/>
      <point x="107" y="-14"/>
    </contour>
  </outline>
</glyph>
<glyph name="iMatra-tamil.alt3" format="1">
  <advance width="335"/>
  <outline>
    <contour>
      <point x="177" y="-10" type="curve"/>
      <point x="210" y="-10"/>
      <point x="235" y="-2"/>
      <point x="259" y="15" type="curve"/>
      <point x="248" y="45"/>
      <point x="242" y="74"/>
      <point x="241" y="167" type="curve"/>
      <point x="238" y="508" type="line" smooth="yes"/>
      <point x="236" y="759"/>
      <point x="85" y="853"/>
      <point x="-137" y="853" type="curve"/>
      <point x="-379" y="853"/>
      <point x="-457" y="747"/>
      <point x="-457" y="655" type="curve"/>
      <point x="-457" y="570"/>
      <point x="-404" y="525"/>
      <point x="-321" y="525" type="curve"/>
      <point x="-309" y="525"/>
      <point x="-285" y="539"/>
      <point x="-289" y="548" type="curve"/>
      <point x="-318" y="548"/>
      <point x="-338" y="599"/>
      <point x="-338" y="657" type="curve"/>
      <point x="-338" y="726"/>
      <point x="-309" y="802"/>
      <point x="-140" y="802" type="curve"/>
      <point x="68" y="802"/>
      <point x="95" y="649"/>
      <point x="95" y="503" type="curve"/>
      <point x="95" y="103" type="line" smooth="yes"/>
      <point x="95" y="9"/>
      <point x="126" y="-10"/>
    </contour>
  </outline>
</glyph>
<glyph name="iMatra-tamil.alt4" format="1">
  <advance width="335"/>
  <outline>
    <contour>
      <point x="177" y="-10" type="curve"/>
      <point x="210" y="-10"/>
      <point x="235" y="-2"/>
      <point x="259" y="15" type="curve"/>
      <point x="248" y="45"/>
      <point x="242" y="77"/>
      <point x="241" y="167" type="curve"/>
      <point x="239" y="453" type="line" smooth="yes"/>
      <point x="237" y="744"/>
      <point x="-7" y="853"/>
      <point x="-256" y="853" type="curve"/>
      <point x="-501" y="853"/>
      <point x="-572" y="747"/>
      <point x="-572" y="664" type="curve"/>
      <point x="-572" y="588"/>
      <point x="-519" y="525"/>
      <point x="-436" y="525" type="curve"/>
      <point x="-424" y="525"/>
      <point x="-400" y="539"/>
      <point x="-404" y="548" type="curve"/>
      <point x="-433" y="548"/>
      <point x="-453" y="599"/>
      <point x="-453" y="658" type="curve"/>
      <point x="-453" y="728"/>
      <point x="-424" y="799"/>
      <point x="-265" y="799" type="curve"/>
      <point x="-36" y="799"/>
      <point x="95" y="647"/>
      <point x="95" y="468" type="curve"/>
      <point x="95" y="103" type="line" smooth="yes"/>
      <point x="95" y="9"/>
      <point x="126" y="-10"/>
    </contour>
  </outline>
</glyph>
<glyph name="iota.ss01" format="1">
  <advance width="261"/>
  <outline>
    <contour>
      <point x="46" y="503" type="curve"/>
      <point x="57" y="455"/>
      <point x="60" y="417"/>
      <point x="60" y="289" type="curve"/>
      <point x="60" y="231"/>
      <point x="64" y="159"/>
      <point x="80" y="101" type="curve"/>
      <point x="96" y="39"/>
      <point x="125" y="-14"/>
      <point x="181" y="-14" type="curve"/>
      <point x="217" y="-14"/>
      <point x="250" y="15"/>
      <point x="250" y="56" type="curve"/>
      <point x="250" y="68"/>
      <point x="246" y="85"/>
      <point x="238" y="99" type="curve"/>
      <point x="227" y="92"/>
      <point x="207" y="88"/>
      <point x="185" y="88" type="curve"/>
      <point x="125" y="88"/>
      <point x="106" y="125"/>
      <point x="122" y="182" type="curve"/>
      <point x="196" y="437" type="line" smooth="yes"/>
      <point x="216" y="506"/>
      <point x="169" y="531"/>
      <point x="125" y="531" type="curve"/>
      <point x="97" y="531"/>
      <point x="76" y="526"/>
    </contour>
  </outline>
</glyph>
<glyph name="lla_uMatra-tamil" format="1">
  <advance width="1712"/>
  <outline>
    <contour>
      <point x="629" y="-221" type="curve"/>
      <point x="1076" y="-221" type="line"/>
      <point x="1385" y="-221"/>
      <point x="1662" y="-128"/>
      <point x="1662" y="194" type="curve"/>
      <point x="1662" y="302"/>
      <point x="1631" y="417"/>
      <point x="1498" y="417" type="curve"/>
      <point x="1352" y="417"/>
      <point x="1324" y="276"/>
      <point x="1313" y="195" type="curve"/>
      <point x="1346" y="153" type="line"/>
      <point x="1348" y="225"/>
      <point x="1373" y="322"/>
      <point x="1446" y="322" type="curve"/>
      <point x="1485" y="322"/>
      <point x="1512" y="295"/>
      <point x="1512" y="186" type="curve"/>
      <point x="1512" y="-98"/>
      <point x="1330" y="-171"/>
      <point x="1076" y="-170" type="curve"/>
      <point x="629" y="-169" type="line" smooth="yes"/>
      <point x="348" y="-168"/>
      <point x="185" y="-65"/>
      <point x="185" y="226" type="curve"/>
      <point x="185" y="442"/>
      <point x="275" y="508"/>
      <point x="324" y="537" type="curve"/>
      <point x="312" y="562"/>
      <point x="302" y="566"/>
      <point x="278" y="563" type="curve"/>
      <point x="184" y="551"/>
      <point x="45" y="452"/>
      <point x="45" y="211" type="curve"/>
      <point x="45" y="-18"/>
      <point x="170" y="-221"/>
    </contour>
    <contour>
      <point x="569" y="-18" type="curve"/>
      <point x="679" y="-18"/>
      <point x="779" y="29"/>
      <point x="779" y="164" type="curve"/>
      <point x="779" y="262"/>
      <point x="726" y="344"/>
      <point x="609" y="344" type="curve"/>
      <point x="507" y="344"/>
      <point x="453" y="282"/>
      <point x="453" y="169" type="curve"/>
      <point x="453" y="126"/>
      <point x="461" y="71"/>
      <point x="497" y="28" type="curve"/>
      <point x="438" y="40"/>
      <point x="387" y="105"/>
      <point x="387" y="245" type="curve"/>
      <point x="387" y="477"/>
      <point x="526" y="515"/>
      <point x="621" y="515" type="curve"/>
      <point x="826" y="515"/>
      <point x="887" y="337"/>
      <point x="887" y="225" type="curve"/>
      <point x="887" y="103" type="line" smooth="yes"/>
      <point x="887" y="8"/>
      <point x="918" y="-10"/>
      <point x="964" y="-10" type="curve"/>
      <point x="995" y="-10"/>
      <point x="1024" y="-2"/>
      <point x="1048" y="15" type="curve"/>
      <point x="1037" y="45"/>
      <point x="1031" y="72"/>
      <point x="1030" y="167" type="curve"/>
      <point x="1028" y="416" type="line" smooth="yes"/>
      <point x="1028" y="478"/>
      <point x="1054" y="501"/>
      <point x="1111" y="501" type="curve"/>
      <point x="1449" y="501" type="line" smooth="yes"/>
      <point x="1476" y="501"/>
      <point x="1498" y="502"/>
      <point x="1498" y="528" type="curve"/>
      <point x="1498" y="534"/>
      <point x="1497" y="540"/>
      <point x="1493" y="548" type="curve"/>
      <point x="1076" y="548" type="line" smooth="yes"/>
      <point x="923" y="548"/>
      <point x="899" y="491"/>
      <point x="899" y="383" type="curve"/>
      <point x="866" y="498"/>
      <point x="760" y="563"/>
      <point x="617" y="563" type="curve"/>
      <point x="457" y="563"/>
      <point x="324" y="481"/>
      <point x="324" y="256" type="curve"/>
      <point x="324" y="54"/>
      <point x="432" y="-18"/>
    </contour>
    <contour>
      <point x="570" y="28" type="curve"/>
      <point x="530" y="28"/>
      <point x="510" y="74"/>
      <point x="510" y="153" type="curve"/>
      <point x="510" y="233"/>
      <point x="531" y="287"/>
      <point x="572" y="287" type="curve"/>
      <point x="615" y="287"/>
      <point x="629" y="229"/>
      <point x="629" y="158" type="curve"/>
      <point x="629" y="66"/>
      <point x="606" y="28"/>
    </contour>
    <contour>
      <point x="1284" y="-10" type="curve"/>
      <point x="1317" y="-10"/>
      <point x="1342" y="-2"/>
      <point x="1366" y="15" type="curve"/>
      <point x="1355" y="45"/>
      <point x="1349" y="72"/>
      <point x="1348" y="167" type="curve"/>
      <point x="1345" y="515" type="line"/>
      <point x="1202" y="509" type="line"/>
      <point x="1202" y="103" type="line" smooth="yes"/>
      <point x="1202" y="9"/>
      <point x="1233" y="-10"/>
    </contour>
    <contour>
      <point x="1675" y="548" type="move" name="imatra"/>
    </contour>
    <contour>
      <point x="883" y="548" type="move" name="top"/>
    </contour>
  </outline>
</glyph>
<glyph name="lla_uuMatra-tamil" format="1">
  <advance width="1943"/>
  <outline>
    <contour>
      <point x="813" y="-221" type="curve"/>
      <point x="1310" y="-221" type="line" smooth="yes"/>
      <point x="1620" y="-221"/>
      <point x="1893" y="-129"/>
      <point x="1893" y="197" type="curve"/>
      <point x="1893" y="303"/>
      <point x="1864" y="417"/>
      <point x="1732" y="417" type="curve"/>
      <point x="1586" y="417"/>
      <point x="1558" y="276"/>
      <point x="1547" y="195" type="curve"/>
      <point x="1580" y="153" type="line"/>
      <point x="1582" y="225"/>
      <point x="1607" y="322"/>
      <point x="1680" y="322" type="curve"/>
      <point x="1719" y="322"/>
      <point x="1746" y="294"/>
      <point x="1746" y="185" type="curve"/>
      <point x="1746" y="-106"/>
      <point x="1552" y="-170"/>
      <point x="1310" y="-170" type="curve"/>
      <point x="801" y="-169" type="line" smooth="yes"/>
      <point x="485" y="-168"/>
      <point x="193" y="-71"/>
      <point x="193" y="259" type="curve"/>
      <point x="193" y="409"/>
      <point x="253" y="521"/>
      <point x="350" y="521" type="curve"/>
      <point x="354" y="543" type="line"/>
      <point x="349" y="540"/>
      <point x="280" y="518"/>
      <point x="280" y="436" type="curve"/>
      <point x="280" y="370"/>
      <point x="324" y="330"/>
      <point x="394" y="330" type="curve"/>
      <point x="462" y="330"/>
      <point x="518" y="367"/>
      <point x="518" y="439" type="curve"/>
      <point x="518" y="534"/>
      <point x="422" y="566"/>
      <point x="335" y="566" type="curve"/>
      <point x="165" y="566"/>
      <point x="45" y="445"/>
      <point x="45" y="225" type="curve"/>
      <point x="45" y="-76"/>
      <point x="269" y="-221"/>
    </contour>
    <contour>
      <point x="425" y="372" type="curve"/>
      <point x="396" y="372"/>
      <point x="382" y="399"/>
      <point x="382" y="436" type="curve"/>
      <point x="382" y="466"/>
      <point x="391" y="497"/>
      <point x="424" y="497" type="curve"/>
      <point x="460" y="497"/>
      <point x="466" y="457"/>
      <point x="466" y="434" type="curve"/>
      <point x="466" y="407"/>
      <point x="458" y="372"/>
    </contour>
    <contour>
      <point x="801" y="31" type="curve"/>
      <point x="761" y="31"/>
      <point x="741" y="77"/>
      <point x="741" y="156" type="curve"/>
      <point x="741" y="236"/>
      <point x="762" y="290"/>
      <point x="803" y="290" type="curve"/>
      <point x="846" y="290"/>
      <point x="860" y="232"/>
      <point x="860" y="161" type="curve"/>
      <point x="860" y="69"/>
      <point x="837" y="31"/>
    </contour>
    <contour>
      <point x="800" y="-15" type="curve"/>
      <point x="910" y="-15"/>
      <point x="1010" y="32"/>
      <point x="1010" y="167" type="curve"/>
      <point x="1010" y="265"/>
      <point x="957" y="347"/>
      <point x="840" y="347" type="curve"/>
      <point x="738" y="347"/>
      <point x="684" y="285"/>
      <point x="684" y="172" type="curve"/>
      <point x="684" y="129"/>
      <point x="692" y="74"/>
      <point x="728" y="31" type="curve"/>
      <point x="669" y="43"/>
      <point x="618" y="105"/>
      <point x="618" y="246" type="curve"/>
      <point x="618" y="476"/>
      <point x="757" y="515"/>
      <point x="852" y="515" type="curve"/>
      <point x="1057" y="515"/>
      <point x="1118" y="337"/>
      <point x="1118" y="225" type="curve"/>
      <point x="1118" y="103" type="line" smooth="yes"/>
      <point x="1118" y="8"/>
      <point x="1149" y="-10"/>
      <point x="1195" y="-10" type="curve"/>
      <point x="1226" y="-10"/>
      <point x="1255" y="-2"/>
      <point x="1279" y="15" type="curve"/>
      <point x="1268" y="45"/>
      <point x="1262" y="72"/>
      <point x="1261" y="167" type="curve"/>
      <point x="1259" y="416" type="line" smooth="yes"/>
      <point x="1259" y="478"/>
      <point x="1285" y="501"/>
      <point x="1342" y="501" type="curve"/>
      <point x="1728" y="502" type="line" smooth="yes"/>
      <point x="1755" y="502"/>
      <point x="1777" y="503"/>
      <point x="1777" y="529" type="curve"/>
      <point x="1777" y="535"/>
      <point x="1776" y="541"/>
      <point x="1772" y="549" type="curve"/>
      <point x="1307" y="548" type="line" smooth="yes"/>
      <point x="1154" y="548"/>
      <point x="1130" y="491"/>
      <point x="1130" y="383" type="curve"/>
      <point x="1097" y="498"/>
      <point x="991" y="563"/>
      <point x="848" y="563" type="curve"/>
      <point x="688" y="563"/>
      <point x="555" y="481"/>
      <point x="555" y="257" type="curve"/>
      <point x="555" y="54"/>
      <point x="663" y="-15"/>
    </contour>
    <contour>
      <point x="1515" y="-10" type="curve"/>
      <point x="1548" y="-10"/>
      <point x="1573" y="-2"/>
      <point x="1597" y="15" type="curve"/>
      <point x="1586" y="45"/>
      <point x="1580" y="72"/>
      <point x="1579" y="167" type="curve"/>
      <point x="1576" y="515" type="line"/>
      <point x="1433" y="509" type="line"/>
      <point x="1433" y="103" type="line" smooth="yes"/>
      <point x="1433" y="9"/>
      <point x="1464" y="-10"/>
    </contour>
    <contour>
      <point x="1933" y="548" type="move" name="imatra"/>
    </contour>
    <contour>
      <point x="1019" y="548" type="move" name="top"/>
    </contour>
  </outline>
</glyph>
<glyph name="llla_uuMatra-tamil" format="1">
  <advance width="1413"/>
  <outline>
    <contour>
      <point x="555" y="-299" type="curve"/>
      <point x="837" y="-299"/>
      <point x="866" y="-171"/>
      <point x="1012" y="-171" type="curve"/>
      <point x="1232" y="-171" type="line"/>
      <point x="1232" y="-120" type="line"/>
      <point x="1165" y="-120" type="line" smooth="yes"/>
      <point x="1085" y="-120"/>
      <point x="1074" y="-47"/>
      <point x="1074" y="-18" type="curve"/>
      <point x="1074" y="0" type="line"/>
      <point x="1156" y="0" type="line" smooth="yes"/>
      <point x="1317" y="0"/>
      <point x="1363" y="116"/>
      <point x="1363" y="250" type="curve"/>
      <point x="1363" y="439"/>
      <point x="1271" y="563"/>
      <point x="1102" y="563" type="curve"/>
      <point x="996" y="563"/>
      <point x="928" y="515"/>
      <point x="928" y="368" type="curve"/>
      <point x="928" y="48" type="line"/>
      <point x="733" y="48" type="line"/>
      <point x="733" y="492" type="line" smooth="yes"/>
      <point x="733" y="532"/>
      <point x="718" y="558"/>
      <point x="658" y="558" type="curve"/>
      <point x="637" y="558"/>
      <point x="601" y="555"/>
      <point x="580" y="549" type="curve"/>
      <point x="587" y="531"/>
      <point x="587" y="503"/>
      <point x="587" y="483" type="curve"/>
      <point x="587" y="39" type="line" smooth="yes"/>
      <point x="587" y="18"/>
      <point x="597" y="0"/>
      <point x="626" y="0" type="curve"/>
      <point x="928" y="0" type="line"/>
      <point x="928" y="-18" type="line" smooth="yes"/>
      <point x="928" y="-44"/>
      <point x="932" y="-105"/>
      <point x="967" y="-120" type="curve"/>
      <point x="896" y="-126"/>
      <point x="794" y="-248"/>
      <point x="575" y="-248" type="curve"/>
      <point x="301" y="-248"/>
      <point x="192" y="-56"/>
      <point x="192" y="211" type="curve"/>
      <point x="192" y="421"/>
      <point x="259" y="521"/>
      <point x="349" y="521" type="curve"/>
      <point x="353" y="543" type="line"/>
      <point x="348" y="540"/>
      <point x="279" y="518"/>
      <point x="279" y="436" type="curve"/>
      <point x="279" y="370"/>
      <point x="323" y="330"/>
      <point x="393" y="330" type="curve"/>
      <point x="461" y="330"/>
      <point x="517" y="367"/>
      <point x="517" y="439" type="curve"/>
      <point x="517" y="534"/>
      <point x="421" y="566"/>
      <point x="334" y="566" type="curve"/>
      <point x="164" y="566"/>
      <point x="45" y="444"/>
      <point x="45" y="196" type="curve"/>
      <point x="45" y="-51"/>
      <point x="163" y="-299"/>
    </contour>
    <contour>
      <point x="424" y="372" type="curve"/>
      <point x="395" y="372"/>
      <point x="381" y="399"/>
      <point x="381" y="436" type="curve"/>
      <point x="381" y="466"/>
      <point x="390" y="497"/>
      <point x="423" y="497" type="curve"/>
      <point x="459" y="497"/>
      <point x="465" y="457"/>
      <point x="465" y="434" type="curve"/>
      <point x="465" y="407"/>
      <point x="457" y="372"/>
    </contour>
    <contour>
      <point x="1140" y="48" type="curve"/>
      <point x="1074" y="48" type="line"/>
      <point x="1074" y="385" type="line" smooth="yes"/>
      <point x="1074" y="480"/>
      <point x="1085" y="507"/>
      <point x="1137" y="507" type="curve"/>
      <point x="1225" y="507"/>
      <point x="1308" y="430"/>
      <point x="1308" y="239" type="curve"/>
      <point x="1308" y="113"/>
      <point x="1272" y="48"/>
    </contour>
    <contour>
      <point x="1352" y="548" type="move" name="imatra"/>
    </contour>
    <contour>
      <point x="722" y="548" type="move" name="top"/>
    </contour>
  </outline>
</glyph>
<glyph name="mu.ss03" format="1">
  <advance width="612"/>
  <outline>
    <contour>
      <point x="588" y="99" type="curve"/>
      <point x="577" y="92"/>
      <point x="557" y="88"/>
      <point x="535" y="88" type="curve"/>
      <point x="475" y="88"/>
      <point x="456" y="125"/>
      <point x="472" y="182" type="curve"/>
      <point x="546" y="437" type="line" smooth="yes"/>
      <point x="566" y="506"/>
      <point x="519" y="531"/>
      <point x="475" y="531" type="curve"/>
      <point x="447" y="531"/>
      <point x="426" y="526"/>
      <point x="396" y="503" type="curve"/>
      <point x="407" y="455"/>
      <point x="410" y="417"/>
      <point x="410" y="270" type="curve"/>
      <point x="410" y="194"/>
      <point x="357" y="126"/>
      <point x="276" y="126" type="curve"/>
      <point x="220" y="126"/>
      <point x="187" y="158"/>
      <point x="187" y="231" type="curve"/>
      <point x="187" y="328"/>
      <point x="208" y="420"/>
      <point x="220" y="467" type="curve"/>
      <point x="232" y="513"/>
      <point x="184" y="531"/>
      <point x="151" y="531" type="curve"/>
      <point x="116" y="531"/>
      <point x="94" y="525"/>
      <point x="65" y="503" type="curve"/>
      <point x="72" y="485"/>
      <point x="81" y="458"/>
      <point x="90" y="425" type="curve"/>
      <point x="77" y="23" type="line" smooth="yes"/>
      <point x="72" y="-127"/>
      <point x="67" y="-224"/>
      <point x="151" y="-224" type="curve"/>
      <point x="191" y="-224"/>
      <point x="227" y="-206"/>
      <point x="250" y="-175" type="curve"/>
      <point x="223" y="-149"/>
      <point x="161" y="27"/>
      <point x="139" y="208" type="curve"/>
      <point x="142" y="208" type="line"/>
      <point x="173" y="54"/>
      <point x="228" y="-18"/>
      <point x="300" y="-18" type="curve"/>
      <point x="354" y="-18"/>
      <point x="407" y="30"/>
      <point x="428" y="109" type="curve"/>
      <point x="450" y="28"/>
      <point x="479" y="-14"/>
      <point x="531" y="-14" type="curve"/>
      <point x="567" y="-14"/>
      <point x="600" y="15"/>
      <point x="600" y="56" type="curve"/>
      <point x="600" y="68"/>
      <point x="596" y="85"/>
    </contour>
  </outline>
</glyph>
<glyph name="n.ss03" format="1">
  <advance width="530"/>
  <outline>
    <contour>
      <point x="502" y="-13" type="curve"/>
      <point x="492" y="321" type="line"/>
      <point x="488" y="458"/>
      <point x="447" y="535"/>
      <point x="350" y="535" type="curve"/>
      <point x="243" y="535"/>
      <point x="170" y="443"/>
      <point x="119" y="199" type="curve"/>
      <point x="175" y="167" type="line"/>
      <point x="182" y="383" type="line" smooth="yes"/>
      <point x="186" y="496"/>
      <point x="146" y="531"/>
      <point x="93" y="531" type="curve"/>
      <point x="41" y="531"/>
      <point x="2" y="494"/>
      <point x="2" y="455" type="curve"/>
      <point x="2" y="443"/>
      <point x="7" y="423"/>
      <point x="15" y="409" type="curve"/>
      <point x="26" y="416"/>
      <point x="46" y="430"/>
      <point x="80" y="430" type="curve"/>
      <point x="121" y="430"/>
      <point x="147" y="389"/>
      <point x="138" y="326" type="curve"/>
      <point x="96" y="45" type="line" smooth="yes"/>
      <point x="91" y="11"/>
      <point x="136" y="-14"/>
      <point x="175" y="-14" type="curve"/>
      <point x="218" y="-14"/>
      <point x="246" y="10"/>
      <point x="251" y="15" type="curve"/>
      <point x="245" y="35"/>
      <point x="238" y="61"/>
      <point x="232" y="98" type="curve"/>
      <point x="197" y="321" type="line"/>
      <point x="229" y="355"/>
      <point x="287" y="389"/>
      <point x="346" y="389" type="curve"/>
      <point x="427" y="389"/>
      <point x="447" y="347"/>
      <point x="447" y="278" type="curve"/>
      <point x="447" y="207"/>
      <point x="402" y="5"/>
      <point x="363" y="-106" type="curve"/>
      <point x="350" y="-143"/>
      <point x="338" y="-164"/>
      <point x="328" y="-175" type="curve"/>
      <point x="351" y="-206"/>
      <point x="387" y="-224"/>
      <point x="427" y="-224" type="curve"/>
      <point x="511" y="-224"/>
      <point x="506" y="-130"/>
    </contour>
  </outline>
</glyph>
<glyph name="nga_uuMatra-tamil" format="1">
  <advance width="1314"/>
  <outline>
    <contour>
      <point x="630" y="-400" type="curve"/>
      <point x="1001" y="-400"/>
      <point x="1304" y="-318"/>
      <point x="1304" y="-58" type="curve"/>
      <point x="1304" y="32"/>
      <point x="1268" y="98"/>
      <point x="1177" y="98" type="curve"/>
      <point x="1119" y="98"/>
      <point x="1070" y="70"/>
      <point x="1046" y="32" type="curve"/>
      <point x="1047" y="482" type="line" smooth="yes"/>
      <point x="1047" y="522"/>
      <point x="1028" y="548"/>
      <point x="971" y="548" type="curve"/>
      <point x="951" y="548"/>
      <point x="915" y="545"/>
      <point x="894" y="539" type="curve"/>
      <point x="901" y="521"/>
      <point x="901" y="493"/>
      <point x="901" y="473" type="curve"/>
      <point x="900" y="-184" type="line" smooth="yes"/>
      <point x="900" y="-197"/>
      <point x="936" y="-205"/>
      <point x="971" y="-205" type="curve"/>
      <point x="1013" y="-205"/>
      <point x="1031" y="-193"/>
      <point x="1046" y="-178" type="curve"/>
      <point x="1046" y="-99" type="line" smooth="yes"/>
      <point x="1046" y="-28"/>
      <point x="1073" y="3"/>
      <point x="1111" y="3" type="curve"/>
      <point x="1155" y="3"/>
      <point x="1164" y="-38"/>
      <point x="1164" y="-77" type="curve"/>
      <point x="1164" y="-293"/>
      <point x="896" y="-340"/>
      <point x="639" y="-340" type="curve"/>
      <point x="339" y="-340"/>
      <point x="264" y="-276"/>
      <point x="264" y="-224" type="curve"/>
      <point x="264" y="-157"/>
      <point x="324" y="-121"/>
      <point x="437" y="-121" type="curve"/>
      <point x="585" y="-121"/>
      <point x="580" y="-177"/>
      <point x="585" y="-206" type="curve"/>
      <point x="624" y="-206"/>
      <point x="680" y="-189"/>
      <point x="680" y="-141" type="curve"/>
      <point x="680" y="-90"/>
      <point x="615" y="-59"/>
      <point x="463" y="-59" type="curve"/>
      <point x="216" y="-59"/>
      <point x="157" y="-128"/>
      <point x="157" y="-216" type="curve"/>
      <point x="157" y="-304"/>
      <point x="254" y="-400"/>
    </contour>
    <contour>
      <point x="122" y="548" type="line"/>
      <point x="122" y="0" type="line"/>
      <point x="172" y="0" type="line"/>
      <point x="172" y="500" type="line"/>
      <point x="362" y="500" type="line"/>
      <point x="362" y="161" type="line" smooth="yes"/>
      <point x="362" y="148"/>
      <point x="394" y="140"/>
      <point x="429" y="140" type="curve"/>
      <point x="471" y="140"/>
      <point x="495" y="152"/>
      <point x="510" y="167" type="curve"/>
      <point x="510" y="201" type="line" smooth="yes"/>
      <point x="510" y="268"/>
      <point x="562" y="322"/>
      <point x="612" y="322" type="curve"/>
      <point x="653" y="322"/>
      <point x="672" y="286"/>
      <point x="672" y="237" type="curve"/>
      <point x="672" y="97"/>
      <point x="513" y="51"/>
      <point x="379" y="39" type="curve"/>
      <point x="379" y="0" type="line"/>
      <point x="945" y="0" type="line"/>
      <point x="945" y="43" type="line"/>
      <point x="681" y="43" type="line"/>
      <point x="785" y="78"/>
      <point x="822" y="175"/>
      <point x="822" y="246" type="curve"/>
      <point x="822" y="336"/>
      <point x="763" y="417"/>
      <point x="654" y="417" type="curve"/>
      <point x="586" y="417"/>
      <point x="538" y="385"/>
      <point x="510" y="342" type="curve"/>
      <point x="510" y="500" type="line"/>
      <point x="610" y="500" type="line" smooth="yes"/>
      <point x="637" y="500"/>
      <point x="663" y="500"/>
      <point x="663" y="526" type="curve"/>
      <point x="663" y="532"/>
      <point x="662" y="540"/>
      <point x="658" y="548" type="curve"/>
    </contour>
    <contour>
      <point x="1301" y="548" type="move" name="imatra"/>
    </contour>
    <contour>
      <point x="734" y="548" type="move" name="top"/>
    </contour>
  </outline>
</glyph>
<glyph name="nna_uMatra-tamil" format="1">
  <advance width="2123"/>
  <outline>
    <contour>
      <point x="506" y="-336" type="curve"/>
      <point x="1278" y="-336"/>
      <point x="1706" y="-122"/>
      <point x="1706" y="242" type="curve"/>
      <point x="1706" y="453"/>
      <point x="1587" y="563"/>
      <point x="1376" y="563" type="curve"/>
      <point x="1150" y="563"/>
      <point x="978" y="436"/>
      <point x="978" y="195" type="curve"/>
      <point x="978" y="52"/>
      <point x="1037" y="-18"/>
      <point x="1143" y="-18" type="curve"/>
      <point x="1264" y="-18"/>
      <point x="1329" y="73"/>
      <point x="1329" y="218" type="curve"/>
      <point x="1329" y="424"/>
      <point x="1194" y="563"/>
      <point x="952" y="563" type="curve"/>
      <point x="719" y="563"/>
      <point x="563" y="435"/>
      <point x="563" y="198" type="curve"/>
      <point x="563" y="51"/>
      <point x="622" y="-18"/>
      <point x="727" y="-18" type="curve"/>
      <point x="850" y="-18"/>
      <point x="914" y="77"/>
      <point x="914" y="209" type="curve"/>
      <point x="914" y="424"/>
      <point x="741" y="563"/>
      <point x="461" y="563" type="curve"/>
      <point x="211" y="563"/>
      <point x="45" y="453"/>
      <point x="45" y="235" type="curve"/>
      <point x="45" y="54"/>
      <point x="156" y="-18"/>
      <point x="290" y="-18" type="curve"/>
      <point x="399" y="-18"/>
      <point x="499" y="29"/>
      <point x="499" y="164" type="curve"/>
      <point x="499" y="262"/>
      <point x="446" y="344"/>
      <point x="329" y="344" type="curve"/>
      <point x="226" y="344"/>
      <point x="173" y="280"/>
      <point x="173" y="170" type="curve"/>
      <point x="173" y="117"/>
      <point x="185" y="67"/>
      <point x="217" y="28" type="curve"/>
      <point x="159" y="40"/>
      <point x="108" y="104"/>
      <point x="108" y="225" type="curve"/>
      <point x="108" y="445"/>
      <point x="279" y="512"/>
      <point x="450" y="512" type="curve"/>
      <point x="606" y="512"/>
      <point x="764" y="456"/>
      <point x="764" y="200" type="curve"/>
      <point x="764" y="129"/>
      <point x="752" y="71"/>
      <point x="690" y="71" type="curve"/>
      <point x="651" y="71"/>
      <point x="618" y="93"/>
      <point x="618" y="205" type="curve"/>
      <point x="618" y="463"/>
      <point x="799" y="514"/>
      <point x="929" y="514" type="curve"/>
      <point x="1062" y="514"/>
      <point x="1179" y="461"/>
      <point x="1179" y="208" type="curve"/>
      <point x="1179" y="129"/>
      <point x="1168" y="71"/>
      <point x="1105" y="71" type="curve"/>
      <point x="1067" y="71"/>
      <point x="1033" y="93"/>
      <point x="1033" y="200" type="curve"/>
      <point x="1033" y="464"/>
      <point x="1247" y="513"/>
      <point x="1348" y="511" type="curve"/>
      <point x="1521" y="507"/>
      <point x="1556" y="350"/>
      <point x="1556" y="248" type="curve"/>
      <point x="1556" y="-75"/>
      <point x="1176" y="-285"/>
      <point x="509" y="-285" type="curve"/>
      <point x="265" y="-285"/>
      <point x="149" y="-263"/>
      <point x="149" y="-202" type="curve"/>
      <point x="149" y="-153"/>
      <point x="225" y="-135"/>
      <point x="426" y="-135" type="curve"/>
      <point x="2009" y="-135" type="line"/>
      <point x="2009" y="-87" type="line"/>
      <point x="389" y="-87" type="line" smooth="yes"/>
      <point x="160" y="-87"/>
      <point x="72" y="-123"/>
      <point x="72" y="-202" type="curve"/>
      <point x="72" y="-310"/>
      <point x="237" y="-336"/>
    </contour>
    <contour>
      <point x="290" y="28" type="curve"/>
      <point x="250" y="28"/>
      <point x="230" y="74"/>
      <point x="230" y="153" type="curve"/>
      <point x="230" y="233"/>
      <point x="251" y="287"/>
      <point x="292" y="287" type="curve"/>
      <point x="335" y="287"/>
      <point x="349" y="229"/>
      <point x="349" y="158" type="curve"/>
      <point x="349" y="66"/>
      <point x="326" y="28"/>
    </contour>
    <contour>
      <point x="2038" y="-135" type="line"/>
      <point x="2035" y="551" type="line"/>
      <point x="1986" y="569"/>
      <point x="1889" y="551"/>
      <point x="1889" y="523" type="curve"/>
      <point x="1889" y="-135" type="line"/>
    </contour>
    <contour>
      <point x="1061" y="548" type="move" name="imatra"/>
    </contour>
    <contour>
      <point x="577" y="548" type="move" name="top"/>
    </contour>
  </outline>
</glyph>
<glyph name="nnna_uMatra-tamil" format="1">
  <advance width="1669"/>
  <outline>
    <contour>
      <point x="399" y="-336" type="curve"/>
      <point x="867" y="-336"/>
      <point x="1252" y="-189"/>
      <point x="1252" y="230" type="curve"/>
      <point x="1252" y="468"/>
      <point x="1131" y="563"/>
      <point x="932" y="563" type="curve"/>
      <point x="714" y="563"/>
      <point x="563" y="437"/>
      <point x="563" y="200" type="curve"/>
      <point x="563" y="50"/>
      <point x="622" y="-18"/>
      <point x="726" y="-18" type="curve"/>
      <point x="849" y="-18"/>
      <point x="914" y="76"/>
      <point x="914" y="209" type="curve"/>
      <point x="914" y="425"/>
      <point x="741" y="563"/>
      <point x="461" y="563" type="curve"/>
      <point x="211" y="563"/>
      <point x="45" y="454"/>
      <point x="45" y="234" type="curve"/>
      <point x="45" y="54"/>
      <point x="155" y="-18"/>
      <point x="290" y="-18" type="curve"/>
      <point x="399" y="-18"/>
      <point x="499" y="29"/>
      <point x="499" y="164" type="curve"/>
      <point x="499" y="262"/>
      <point x="446" y="344"/>
      <point x="328" y="344" type="curve"/>
      <point x="226" y="344"/>
      <point x="173" y="282"/>
      <point x="173" y="166" type="curve"/>
      <point x="173" y="121"/>
      <point x="181" y="71"/>
      <point x="217" y="28" type="curve"/>
      <point x="159" y="40"/>
      <point x="108" y="104"/>
      <point x="108" y="225" type="curve"/>
      <point x="108" y="446"/>
      <point x="279" y="512"/>
      <point x="450" y="512" type="curve"/>
      <point x="607" y="512"/>
      <point x="764" y="457"/>
      <point x="764" y="200" type="curve"/>
      <point x="764" y="128"/>
      <point x="752" y="71"/>
      <point x="689" y="71" type="curve"/>
      <point x="650" y="71"/>
      <point x="618" y="93"/>
      <point x="618" y="209" type="curve"/>
      <point x="618" y="460"/>
      <point x="770" y="511"/>
      <point x="879" y="511" type="curve"/>
      <point x="1071" y="511"/>
      <point x="1102" y="351"/>
      <point x="1102" y="233" type="curve"/>
      <point x="1102" y="-135"/>
      <point x="788" y="-285"/>
      <point x="395" y="-285" type="curve"/>
      <point x="229" y="-285"/>
      <point x="144" y="-255"/>
      <point x="144" y="-206" type="curve"/>
      <point x="144" y="-153"/>
      <point x="213" y="-135"/>
      <point x="336" y="-135" type="curve"/>
      <point x="1555" y="-135" type="line"/>
      <point x="1555" y="-87" type="line"/>
      <point x="299" y="-87" type="line" smooth="yes"/>
      <point x="149" y="-87"/>
      <point x="66" y="-123"/>
      <point x="66" y="-206" type="curve"/>
      <point x="66" y="-305"/>
      <point x="206" y="-336"/>
    </contour>
    <contour>
      <point x="290" y="28" type="curve"/>
      <point x="250" y="28"/>
      <point x="230" y="74"/>
      <point x="230" y="153" type="curve"/>
      <point x="230" y="233"/>
      <point x="251" y="287"/>
      <point x="292" y="287" type="curve"/>
      <point x="335" y="287"/>
      <point x="349" y="229"/>
      <point x="349" y="158" type="curve"/>
      <point x="349" y="66"/>
      <point x="326" y="28"/>
    </contour>
    <contour>
      <point x="1584" y="-135" type="line"/>
      <point x="1581" y="551" type="line"/>
      <point x="1532" y="569"/>
      <point x="1435" y="551"/>
      <point x="1435" y="523" type="curve"/>
      <point x="1435" y="-135" type="line"/>
    </contour>
    <contour>
      <point x="1544" y="548" type="move" name="imatra"/>
    </contour>
    <contour>
      <point x="815" y="548" type="move" name="top"/>
    </contour>
  </outline>
</glyph>
<glyph name="nya_uMatra-tamil" format="1">
  <advance width="1438"/>
  <outline>
    <contour>
      <point x="387" y="-336" type="curve"/>
      <point x="787" y="-336"/>
      <point x="1055" y="-180"/>
      <point x="1055" y="176" type="curve"/>
      <point x="1055" y="303"/>
      <point x="1027" y="417"/>
      <point x="902" y="417" type="curve"/>
      <point x="763" y="417"/>
      <point x="731" y="275"/>
      <point x="721" y="195" type="curve"/>
      <point x="754" y="152" type="line"/>
      <point x="755" y="224"/>
      <point x="785" y="322"/>
      <point x="849" y="322" type="curve"/>
      <point x="883" y="322"/>
      <point x="905" y="295"/>
      <point x="905" y="171" type="curve"/>
      <point x="905" y="-158"/>
      <point x="717" y="-285"/>
      <point x="378" y="-285" type="curve"/>
      <point x="200" y="-285"/>
      <point x="141" y="-250"/>
      <point x="141" y="-204" type="curve"/>
      <point x="141" y="-153"/>
      <point x="212" y="-135"/>
      <point x="423" y="-135" type="curve"/>
      <point x="1316" y="-135" type="line"/>
      <point x="1316" y="-87" type="line"/>
      <point x="413" y="-87" type="line" smooth="yes"/>
      <point x="149" y="-87"/>
      <point x="63" y="-123"/>
      <point x="63" y="-204" type="curve"/>
      <point x="63" y="-281"/>
      <point x="141" y="-336"/>
    </contour>
    <contour>
      <point x="296" y="31" type="curve"/>
      <point x="256" y="31"/>
      <point x="236" y="77"/>
      <point x="236" y="156" type="curve"/>
      <point x="236" y="236"/>
      <point x="257" y="290"/>
      <point x="298" y="290" type="curve"/>
      <point x="341" y="290"/>
      <point x="355" y="232"/>
      <point x="355" y="161" type="curve"/>
      <point x="355" y="69"/>
      <point x="332" y="31"/>
    </contour>
    <contour>
      <point x="295" y="-15" type="curve"/>
      <point x="405" y="-15"/>
      <point x="505" y="32"/>
      <point x="505" y="167" type="curve"/>
      <point x="505" y="265"/>
      <point x="452" y="347"/>
      <point x="335" y="347" type="curve"/>
      <point x="233" y="347"/>
      <point x="179" y="285"/>
      <point x="179" y="172" type="curve"/>
      <point x="179" y="129"/>
      <point x="187" y="74"/>
      <point x="223" y="31" type="curve"/>
      <point x="164" y="43"/>
      <point x="113" y="107"/>
      <point x="113" y="244" type="curve"/>
      <point x="113" y="480"/>
      <point x="262" y="501"/>
      <point x="370" y="501" type="curve"/>
      <point x="866" y="500" type="line" smooth="yes"/>
      <point x="893" y="500"/>
      <point x="912" y="501"/>
      <point x="912" y="527" type="curve"/>
      <point x="912" y="533"/>
      <point x="911" y="540"/>
      <point x="909" y="548" type="curve"/>
      <point x="370" y="549" type="line" smooth="yes"/>
      <point x="205" y="549"/>
      <point x="50" y="490"/>
      <point x="50" y="254" type="curve"/>
      <point x="50" y="56"/>
      <point x="159" y="-15"/>
    </contour>
    <contour>
      <point x="687" y="-10" type="curve"/>
      <point x="720" y="-10"/>
      <point x="748" y="-2"/>
      <point x="772" y="15" type="curve"/>
      <point x="763" y="41"/>
      <point x="755" y="67"/>
      <point x="754" y="159" type="curve"/>
      <point x="751" y="515" type="line"/>
      <point x="605" y="509" type="line"/>
      <point x="605" y="103" type="line" smooth="yes"/>
      <point x="605" y="9"/>
      <point x="636" y="-10"/>
    </contour>
    <contour>
      <point x="1345" y="-135" type="line"/>
      <point x="1342" y="551" type="line"/>
      <point x="1293" y="569"/>
      <point x="1196" y="551"/>
      <point x="1196" y="523" type="curve"/>
      <point x="1196" y="-135" type="line"/>
    </contour>
    <contour>
      <point x="1326" y="548" type="move" name="imatra"/>
    </contour>
    <contour>
      <point x="688" y="548" type="move" name="top"/>
    </contour>
  </outline>
</glyph>
<glyph name="ra_uMatra-tamil" format="1">
  <advance width="1130"/>
  <outline>
    <contour>
      <point x="703" y="-9" type="curve"/>
      <point x="736" y="-9"/>
      <point x="764" y="-1"/>
      <point x="788" y="16" type="curve"/>
      <point x="779" y="42"/>
      <point x="771" y="68"/>
      <point x="770" y="159" type="curve"/>
      <point x="767" y="515" type="line"/>
      <point x="621" y="509" type="line"/>
      <point x="621" y="104" type="line" smooth="yes"/>
      <point x="621" y="10"/>
      <point x="652" y="-9"/>
    </contour>
    <contour>
      <point x="546" y="-221" type="curve"/>
      <point x="794" y="-221"/>
      <point x="1080" y="-130"/>
      <point x="1080" y="197" type="curve"/>
      <point x="1080" y="301"/>
      <point x="1051" y="417"/>
      <point x="921" y="417" type="curve"/>
      <point x="778" y="417"/>
      <point x="748" y="278"/>
      <point x="737" y="195" type="curve"/>
      <point x="770" y="153" type="line"/>
      <point x="771" y="222"/>
      <point x="799" y="322"/>
      <point x="866" y="322" type="curve"/>
      <point x="906" y="322"/>
      <point x="930" y="287"/>
      <point x="930" y="187" type="curve"/>
      <point x="930" y="-91"/>
      <point x="747" y="-170"/>
      <point x="556" y="-170" type="curve"/>
      <point x="372" y="-170"/>
      <point x="185" y="-96"/>
      <point x="185" y="223" type="curve"/>
      <point x="185" y="438"/>
      <point x="270" y="505"/>
      <point x="324" y="537" type="curve"/>
      <point x="312" y="562"/>
      <point x="302" y="566"/>
      <point x="278" y="563" type="curve"/>
      <point x="187" y="552"/>
      <point x="45" y="453"/>
      <point x="45" y="213" type="curve"/>
      <point x="45" y="-13"/>
      <point x="170" y="-221"/>
    </contour>
    <contour>
      <point x="377" y="509" type="line"/>
      <point x="377" y="0" type="line"/>
      <point x="431" y="0" type="line"/>
      <point x="431" y="515" type="line"/>
    </contour>
    <contour>
      <point x="377" y="501" type="line"/>
      <point x="880" y="500" type="line"/>
      <point x="907" y="500"/>
      <point x="926" y="501"/>
      <point x="926" y="527" type="curve"/>
      <point x="926" y="533"/>
      <point x="925" y="540"/>
      <point x="923" y="548" type="curve"/>
      <point x="377" y="548" type="line"/>
    </contour>
    <contour>
      <point x="1066" y="548" type="move" name="imatra"/>
    </contour>
    <contour>
      <point x="536" y="548" type="move" name="top"/>
    </contour>
  </outline>
</glyph>
<glyph name="ra_uuMatra-tamil" format="1">
  <advance width="1325"/>
  <outline>
    <contour>
      <point x="663" y="-221" type="curve"/>
      <point x="997" y="-221"/>
      <point x="1275" y="-129"/>
      <point x="1275" y="195" type="curve"/>
      <point x="1275" y="300"/>
      <point x="1246" y="417"/>
      <point x="1115" y="417" type="curve"/>
      <point x="972" y="417"/>
      <point x="942" y="278"/>
      <point x="931" y="195" type="curve"/>
      <point x="964" y="153" type="line"/>
      <point x="966" y="225"/>
      <point x="992" y="322"/>
      <point x="1063" y="322" type="curve"/>
      <point x="1100" y="322"/>
      <point x="1125" y="295"/>
      <point x="1125" y="189" type="curve"/>
      <point x="1125" y="-100"/>
      <point x="941" y="-170"/>
      <point x="662" y="-170" type="curve"/>
      <point x="381" y="-170"/>
      <point x="192" y="-63"/>
      <point x="192" y="239" type="curve"/>
      <point x="192" y="428"/>
      <point x="259" y="518"/>
      <point x="349" y="518" type="curve"/>
      <point x="353" y="540" type="line"/>
      <point x="341" y="533"/>
      <point x="279" y="515"/>
      <point x="279" y="429" type="curve"/>
      <point x="279" y="367"/>
      <point x="322" y="327"/>
      <point x="399" y="327" type="curve"/>
      <point x="458" y="327"/>
      <point x="517" y="363"/>
      <point x="517" y="437" type="curve"/>
      <point x="517" y="531"/>
      <point x="421" y="563"/>
      <point x="333" y="563" type="curve"/>
      <point x="164" y="563"/>
      <point x="45" y="445"/>
      <point x="45" y="233" type="curve"/>
      <point x="45" y="10"/>
      <point x="191" y="-221"/>
    </contour>
    <contour>
      <point x="424" y="369" type="curve"/>
      <point x="395" y="369"/>
      <point x="381" y="396"/>
      <point x="381" y="433" type="curve"/>
      <point x="381" y="463"/>
      <point x="390" y="494"/>
      <point x="423" y="494" type="curve"/>
      <point x="459" y="494"/>
      <point x="465" y="454"/>
      <point x="465" y="431" type="curve"/>
      <point x="465" y="404"/>
      <point x="457" y="369"/>
    </contour>
    <contour>
      <point x="570" y="509" type="line"/>
      <point x="570" y="0" type="line"/>
      <point x="624" y="0" type="line"/>
      <point x="624" y="515" type="line"/>
    </contour>
    <contour>
      <point x="897" y="-9" type="curve"/>
      <point x="930" y="-9"/>
      <point x="958" y="-1"/>
      <point x="982" y="16" type="curve"/>
      <point x="973" y="42"/>
      <point x="965" y="68"/>
      <point x="964" y="159" type="curve"/>
      <point x="961" y="515" type="line"/>
      <point x="815" y="509" type="line"/>
      <point x="815" y="104" type="line" smooth="yes"/>
      <point x="815" y="10"/>
      <point x="846" y="-9"/>
    </contour>
    <contour>
      <point x="570" y="548" type="line"/>
      <point x="570" y="501" type="line"/>
      <point x="1070" y="500" type="line" smooth="yes"/>
      <point x="1097" y="500"/>
      <point x="1116" y="501"/>
      <point x="1116" y="527" type="curve"/>
      <point x="1116" y="533"/>
      <point x="1115" y="540"/>
      <point x="1113" y="548" type="curve"/>
    </contour>
    <contour>
      <point x="1255" y="548" type="move" name="imatra"/>
    </contour>
    <contour>
      <point x="633" y="548" type="move" name="top"/>
    </contour>
  </outline>
</glyph>
